<svg xmlns="http://www.w3.org/2000/svg" class="" viewBox="0 0 3549.4 400" width="3549.4" height="400" aria-label="Circuit visualization" style="display: block; user-select: none;"><defs xmlns="http://www.w3.org/1999/xhtml"><style type="text/css">&lt;!--/*--&gt;&lt;![CDATA[/*&gt;&lt;!--*/

  /* from https://fonts.googleapis.com/css2?family=IBM+Plex+Sans&amp;display=swap */
  @font-face {
    font-family: 'IBM Plex Sans';
    font-style: normal;
    font-weight: 400;
    font-display: swap;
    src: url(https://fonts.gstatic.com/s/ibmplexsans/v14/zYXgKVElMYYaJe8bpLHnCwDKhdHeFaxOedc.woff2) format('woff2');
  }
  
  /* from https://fonts.googleapis.com/css2?family=IBM+Plex+Mono&amp;display=swap */
  @font-face {
    font-family: 'IBM Plex Mono';
    font-style: normal;
    font-weight: 400;
    font-display: swap;
    src: url(https://fonts.gstatic.com/s/ibmplexmono/v12/-F63fjptAgt5VM-kVkqdyU8n1i8q131nj-o.woff2) format('woff2');
  }    

/*]]&gt;*/--&gt;</style></defs><rect x="0" y="0" width="3549.4" height="400" style="fill: rgb(255, 255, 255);"/><g><g transform="translate(20, 0)"><g><g><text x="38.4" y="36" dy=".3em" style="fill: rgb(111, 111, 111); font-family: &quot;IBM Plex Mono&quot;, monospace; font-weight: 400; text-anchor: end; font-size: 14px;"><tspan>q[0]</tspan></text><text x="38.4" y="76" dy=".3em" style="fill: rgb(111, 111, 111); font-family: &quot;IBM Plex Mono&quot;, monospace; font-weight: 400; text-anchor: end; font-size: 14px;"><tspan>q[1]</tspan></text><text x="38.4" y="116" dy=".3em" style="fill: rgb(111, 111, 111); font-family: &quot;IBM Plex Mono&quot;, monospace; font-weight: 400; text-anchor: end; font-size: 14px;"><tspan>q[2]</tspan></text><text x="38.4" y="156" dy=".3em" style="fill: rgb(111, 111, 111); font-family: &quot;IBM Plex Mono&quot;, monospace; font-weight: 400; text-anchor: end; font-size: 14px;"><tspan>q[3]</tspan></text><text x="38.4" y="196" dy=".3em" style="fill: rgb(111, 111, 111); font-family: &quot;IBM Plex Mono&quot;, monospace; font-weight: 400; text-anchor: end; font-size: 14px;"><tspan>q[4]</tspan></text><text x="38.4" y="236" dy=".3em" style="fill: rgb(111, 111, 111); font-family: &quot;IBM Plex Mono&quot;, monospace; font-weight: 400; text-anchor: end; font-size: 14px;"><tspan>q[5]</tspan></text><text x="38.4" y="276" dy=".3em" style="fill: rgb(111, 111, 111); font-family: &quot;IBM Plex Mono&quot;, monospace; font-weight: 400; text-anchor: end; font-size: 14px;"><tspan>q[6]</tspan></text><text x="38.4" y="316" dy=".3em" style="fill: rgb(111, 111, 111); font-family: &quot;IBM Plex Mono&quot;, monospace; font-weight: 400; text-anchor: end; font-size: 14px;"><tspan>q[7]</tspan></text><text x="38.4" y="356" dy=".3em" style="fill: rgb(111, 111, 111); font-family: &quot;IBM Plex Mono&quot;, monospace; font-weight: 400; text-anchor: end; font-size: 14px;"><tspan>q[8]</tspan></text></g><g/></g></g><g><g><line x1="68.4" x2="3529.4" y1="36" y2="36" style="fill: none; stroke: rgb(224, 224, 224); stroke-width: 1; stroke-linecap: round;"/><line x1="68.4" x2="3529.4" y1="76" y2="76" style="fill: none; stroke: rgb(224, 224, 224); stroke-width: 1; stroke-linecap: round;"/><line x1="68.4" x2="3529.4" y1="116" y2="116" style="fill: none; stroke: rgb(224, 224, 224); stroke-width: 1; stroke-linecap: round;"/><line x1="68.4" x2="3529.4" y1="156" y2="156" style="fill: none; stroke: rgb(224, 224, 224); stroke-width: 1; stroke-linecap: round;"/><line x1="68.4" x2="3529.4" y1="196" y2="196" style="fill: none; stroke: rgb(224, 224, 224); stroke-width: 1; stroke-linecap: round;"/><line x1="68.4" x2="3529.4" y1="236" y2="236" style="fill: none; stroke: rgb(224, 224, 224); stroke-width: 1; stroke-linecap: round;"/><line x1="68.4" x2="3529.4" y1="276" y2="276" style="fill: none; stroke: rgb(224, 224, 224); stroke-width: 1; stroke-linecap: round;"/><line x1="68.4" x2="3529.4" y1="316" y2="316" style="fill: none; stroke: rgb(224, 224, 224); stroke-width: 1; stroke-linecap: round;"/><line x1="68.4" x2="3529.4" y1="356" y2="356" style="fill: none; stroke: rgb(224, 224, 224); stroke-width: 1; stroke-linecap: round;"/></g></g><g><rect x="76.4" y="220" width="59" height="32" style="fill: rgb(51, 177, 255); stroke-width: 0; stroke: transparent; paint-order: stroke;"/><text x="105.9" y="233" dy=".3em" style="font-family: &quot;IBM Plex Sans&quot;, sans-serif; font-size: 16px; font-style: normal; fill: rgb(22, 22, 22); font-weight: 400; text-anchor: middle;">RZ</text><text x="105.9" y="246" dy=".3em" style="font-family: &quot;IBM Plex Mono&quot;, monospace; font-size: 8px; font-style: normal; fill: rgb(22, 22, 22); font-weight: 400; text-anchor: middle;">(pi / 2)</text></g><g><rect x="76.4" y="260" width="59" height="32" style="fill: rgb(51, 177, 255); stroke-width: 0; stroke: transparent; paint-order: stroke;"/><text x="105.9" y="273" dy=".3em" style="font-family: &quot;IBM Plex Sans&quot;, sans-serif; font-size: 16px; font-style: normal; fill: rgb(22, 22, 22); font-weight: 400; text-anchor: middle;">RZ</text><text x="105.9" y="286" dy=".3em" style="font-family: &quot;IBM Plex Mono&quot;, monospace; font-size: 8px; font-style: normal; fill: rgb(22, 22, 22); font-weight: 400; text-anchor: middle;">(pi / 2)</text></g><g><rect x="76.4" y="300" width="59" height="32" style="fill: rgb(51, 177, 255); stroke-width: 0; stroke: transparent; paint-order: stroke;"/><text x="105.9" y="313" dy=".3em" style="font-family: &quot;IBM Plex Sans&quot;, sans-serif; font-size: 16px; font-style: normal; fill: rgb(22, 22, 22); font-weight: 400; text-anchor: middle;">RZ</text><text x="105.9" y="326" dy=".3em" style="font-family: &quot;IBM Plex Mono&quot;, monospace; font-size: 8px; font-style: normal; fill: rgb(22, 22, 22); font-weight: 400; text-anchor: middle;">(pi / 2)</text></g><g><rect x="76.4" y="340" width="59" height="32" style="fill: rgb(51, 177, 255); stroke-width: 0; stroke: transparent; paint-order: stroke;"/><text x="105.9" y="353" dy=".3em" style="font-family: &quot;IBM Plex Sans&quot;, sans-serif; font-size: 16px; font-style: normal; fill: rgb(22, 22, 22); font-weight: 400; text-anchor: middle;">RZ</text><text x="105.9" y="366" dy=".3em" style="font-family: &quot;IBM Plex Mono&quot;, monospace; font-size: 8px; font-style: normal; fill: rgb(22, 22, 22); font-weight: 400; text-anchor: middle;">(pi / 2)</text></g><g transform="translate(143.4, 220)"><rect x="0" y="0" width="32" height="32" style="fill: rgb(159, 24, 83); stroke-width: 0; stroke: transparent; paint-order: stroke;"/><path fill-rule="evenodd" clip-rule="evenodd" d="M12.4344 8H25.5V9.25H13.5656L12.0656 24.25H8.92123L8.42123 17.75H7V16.5H9.57877L10.0788 23H10.9344L12.4344 8Z" fill="#ffffff"/><text x="19" y="17" dy=".3em" style="font-family: &quot;IBM Plex Sans&quot;, sans-serif; font-size: 16px; font-style: normal; fill: rgb(255, 255, 255); font-weight: 400; text-anchor: middle;">X</text></g><g transform="translate(143.4, 260)"><rect x="0" y="0" width="32" height="32" style="fill: rgb(159, 24, 83); stroke-width: 0; stroke: transparent; paint-order: stroke;"/><path fill-rule="evenodd" clip-rule="evenodd" d="M12.4344 8H25.5V9.25H13.5656L12.0656 24.25H8.92123L8.42123 17.75H7V16.5H9.57877L10.0788 23H10.9344L12.4344 8Z" fill="#ffffff"/><text x="19" y="17" dy=".3em" style="font-family: &quot;IBM Plex Sans&quot;, sans-serif; font-size: 16px; font-style: normal; fill: rgb(255, 255, 255); font-weight: 400; text-anchor: middle;">X</text></g><g transform="translate(143.4, 300)"><rect x="0" y="0" width="32" height="32" style="fill: rgb(159, 24, 83); stroke-width: 0; stroke: transparent; paint-order: stroke;"/><path fill-rule="evenodd" clip-rule="evenodd" d="M12.4344 8H25.5V9.25H13.5656L12.0656 24.25H8.92123L8.42123 17.75H7V16.5H9.57877L10.0788 23H10.9344L12.4344 8Z" fill="#ffffff"/><text x="19" y="17" dy=".3em" style="font-family: &quot;IBM Plex Sans&quot;, sans-serif; font-size: 16px; font-style: normal; fill: rgb(255, 255, 255); font-weight: 400; text-anchor: middle;">X</text></g><g transform="translate(143.4, 340)"><rect x="0" y="0" width="32" height="32" style="fill: rgb(159, 24, 83); stroke-width: 0; stroke: transparent; paint-order: stroke;"/><path fill-rule="evenodd" clip-rule="evenodd" d="M12.4344 8H25.5V9.25H13.5656L12.0656 24.25H8.92123L8.42123 17.75H7V16.5H9.57877L10.0788 23H10.9344L12.4344 8Z" fill="#ffffff"/><text x="19" y="17" dy=".3em" style="font-family: &quot;IBM Plex Sans&quot;, sans-serif; font-size: 16px; font-style: normal; fill: rgb(255, 255, 255); font-weight: 400; text-anchor: middle;">X</text></g><g><rect x="183.4" y="220" width="59" height="32" style="fill: rgb(51, 177, 255); stroke-width: 0; stroke: transparent; paint-order: stroke;"/><text x="212.9" y="233" dy=".3em" style="font-family: &quot;IBM Plex Sans&quot;, sans-serif; font-size: 16px; font-style: normal; fill: rgb(22, 22, 22); font-weight: 400; text-anchor: middle;">RZ</text><text x="212.9" y="246" dy=".3em" style="font-family: &quot;IBM Plex Mono&quot;, monospace; font-size: 8px; font-style: normal; fill: rgb(22, 22, 22); font-weight: 400; text-anchor: middle;">(pi / 2)</text></g><g><rect x="183.4" y="260" width="59" height="32" style="fill: rgb(51, 177, 255); stroke-width: 0; stroke: transparent; paint-order: stroke;"/><text x="212.9" y="273" dy=".3em" style="font-family: &quot;IBM Plex Sans&quot;, sans-serif; font-size: 16px; font-style: normal; fill: rgb(22, 22, 22); font-weight: 400; text-anchor: middle;">RZ</text><text x="212.9" y="286" dy=".3em" style="font-family: &quot;IBM Plex Mono&quot;, monospace; font-size: 8px; font-style: normal; fill: rgb(22, 22, 22); font-weight: 400; text-anchor: middle;">(pi / 2)</text></g><g><rect x="183.4" y="300" width="59" height="32" style="fill: rgb(51, 177, 255); stroke-width: 0; stroke: transparent; paint-order: stroke;"/><text x="212.9" y="313" dy=".3em" style="font-family: &quot;IBM Plex Sans&quot;, sans-serif; font-size: 16px; font-style: normal; fill: rgb(22, 22, 22); font-weight: 400; text-anchor: middle;">RZ</text><text x="212.9" y="326" dy=".3em" style="font-family: &quot;IBM Plex Mono&quot;, monospace; font-size: 8px; font-style: normal; fill: rgb(22, 22, 22); font-weight: 400; text-anchor: middle;">(pi / 2)</text></g><g><rect x="183.4" y="340" width="59" height="32" style="fill: rgb(51, 177, 255); stroke-width: 0; stroke: transparent; paint-order: stroke;"/><text x="212.9" y="353" dy=".3em" style="font-family: &quot;IBM Plex Sans&quot;, sans-serif; font-size: 16px; font-style: normal; fill: rgb(22, 22, 22); font-weight: 400; text-anchor: middle;">RZ</text><text x="212.9" y="366" dy=".3em" style="font-family: &quot;IBM Plex Mono&quot;, monospace; font-size: 8px; font-style: normal; fill: rgb(22, 22, 22); font-weight: 400; text-anchor: middle;">(pi / 2)</text></g><line x1="266.4" y1="76" x2="266.4" y2="236" style="stroke-width: 1; stroke: rgb(0, 45, 156);"/><circle r="4" cx="266.4" cy="76" style="fill: rgb(0, 45, 156);"/><g transform="translate(266.4, 236)"><g><circle cx="0" cy="0" r="16" style="fill: rgb(0, 45, 156); stroke-width: 0; stroke: transparent; paint-order: stroke;"/><line x1="0" y1="-8" x2="0" y2="8" style="stroke-width: 1.25; stroke: rgb(255, 255, 255);"/><line x1="8" y1="0" x2="-8" y2="0" style="stroke-width: 1.25; stroke: rgb(255, 255, 255);"/></g></g><g><rect x="290.4" y="220" width="64" height="32" style="fill: rgb(51, 177, 255); stroke-width: 0; stroke: transparent; paint-order: stroke;"/><text x="322.4" y="233" dy=".3em" style="font-family: &quot;IBM Plex Sans&quot;, sans-serif; font-size: 16px; font-style: normal; fill: rgb(22, 22, 22); font-weight: 400; text-anchor: middle;">RZ</text><text x="322.4" y="246" dy=".3em" style="font-family: &quot;IBM Plex Mono&quot;, monospace; font-size: 8px; font-style: normal; fill: rgb(22, 22, 22); font-weight: 400; text-anchor: middle;">(-pi / 4)</text></g><line x1="378.4" y1="36" x2="378.4" y2="236" style="stroke-width: 1; stroke: rgb(0, 45, 156);"/><circle r="4" cx="378.4" cy="36" style="fill: rgb(0, 45, 156);"/><g transform="translate(378.4, 236)"><g><circle cx="0" cy="0" r="16" style="fill: rgb(0, 45, 156); stroke-width: 0; stroke: transparent; paint-order: stroke;"/><line x1="0" y1="-8" x2="0" y2="8" style="stroke-width: 1.25; stroke: rgb(255, 255, 255);"/><line x1="8" y1="0" x2="-8" y2="0" style="stroke-width: 1.25; stroke: rgb(255, 255, 255);"/></g></g><g><rect x="402.4" y="220" width="59" height="32" style="fill: rgb(51, 177, 255); stroke-width: 0; stroke: transparent; paint-order: stroke;"/><text x="431.9" y="233" dy=".3em" style="font-family: &quot;IBM Plex Sans&quot;, sans-serif; font-size: 16px; font-style: normal; fill: rgb(22, 22, 22); font-weight: 400; text-anchor: middle;">RZ</text><text x="431.9" y="246" dy=".3em" style="font-family: &quot;IBM Plex Mono&quot;, monospace; font-size: 8px; font-style: normal; fill: rgb(22, 22, 22); font-weight: 400; text-anchor: middle;">(pi / 4)</text></g><line x1="485.4" y1="76" x2="485.4" y2="236" style="stroke-width: 1; stroke: rgb(0, 45, 156);"/><circle r="4" cx="485.4" cy="76" style="fill: rgb(0, 45, 156);"/><g transform="translate(485.4, 236)"><g><circle cx="0" cy="0" r="16" style="fill: rgb(0, 45, 156); stroke-width: 0; stroke: transparent; paint-order: stroke;"/><line x1="0" y1="-8" x2="0" y2="8" style="stroke-width: 1.25; stroke: rgb(255, 255, 255);"/><line x1="8" y1="0" x2="-8" y2="0" style="stroke-width: 1.25; stroke: rgb(255, 255, 255);"/></g></g><g><rect x="511.9" y="60" width="59" height="32" style="fill: rgb(51, 177, 255); stroke-width: 0; stroke: transparent; paint-order: stroke;"/><text x="541.4" y="73" dy=".3em" style="font-family: &quot;IBM Plex Sans&quot;, sans-serif; font-size: 16px; font-style: normal; fill: rgb(22, 22, 22); font-weight: 400; text-anchor: middle;">RZ</text><text x="541.4" y="86" dy=".3em" style="font-family: &quot;IBM Plex Mono&quot;, monospace; font-size: 8px; font-style: normal; fill: rgb(22, 22, 22); font-weight: 400; text-anchor: middle;">(pi / 4)</text></g><g><rect x="509.4" y="220" width="64" height="32" style="fill: rgb(51, 177, 255); stroke-width: 0; stroke: transparent; paint-order: stroke;"/><text x="541.4" y="233" dy=".3em" style="font-family: &quot;IBM Plex Sans&quot;, sans-serif; font-size: 16px; font-style: normal; fill: rgb(22, 22, 22); font-weight: 400; text-anchor: middle;">RZ</text><text x="541.4" y="246" dy=".3em" style="font-family: &quot;IBM Plex Mono&quot;, monospace; font-size: 8px; font-style: normal; fill: rgb(22, 22, 22); font-weight: 400; text-anchor: middle;">(-pi / 4)</text></g><line x1="597.4" y1="36" x2="597.4" y2="236" style="stroke-width: 1; stroke: rgb(0, 45, 156);"/><circle r="4" cx="597.4" cy="36" style="fill: rgb(0, 45, 156);"/><g transform="translate(597.4, 236)"><g><circle cx="0" cy="0" r="16" style="fill: rgb(0, 45, 156); stroke-width: 0; stroke: transparent; paint-order: stroke;"/><line x1="0" y1="-8" x2="0" y2="8" style="stroke-width: 1.25; stroke: rgb(255, 255, 255);"/><line x1="8" y1="0" x2="-8" y2="0" style="stroke-width: 1.25; stroke: rgb(255, 255, 255);"/></g></g><line x1="660.4" y1="36" x2="660.4" y2="76" style="stroke-width: 1; stroke: rgb(0, 45, 156);"/><circle r="4" cx="660.4" cy="36" style="fill: rgb(0, 45, 156);"/><g transform="translate(660.4, 76)"><g><circle cx="0" cy="0" r="16" style="fill: rgb(0, 45, 156); stroke-width: 0; stroke: transparent; paint-order: stroke;"/><line x1="0" y1="-8" x2="0" y2="8" style="stroke-width: 1.25; stroke: rgb(255, 255, 255);"/><line x1="8" y1="0" x2="-8" y2="0" style="stroke-width: 1.25; stroke: rgb(255, 255, 255);"/></g></g><g><rect x="621.4" y="220" width="78" height="32" style="fill: rgb(51, 177, 255); stroke-width: 0; stroke: transparent; paint-order: stroke;"/><text x="660.4" y="233" dy=".3em" style="font-family: &quot;IBM Plex Sans&quot;, sans-serif; font-size: 16px; font-style: normal; fill: rgb(22, 22, 22); font-weight: 400; text-anchor: middle;">RZ</text><text x="660.4" y="246" dy=".3em" style="font-family: &quot;IBM Plex Mono&quot;, monospace; font-size: 8px; font-style: normal; fill: rgb(22, 22, 22); font-weight: 400; text-anchor: middle;">(3 * pi / 4)</text></g><g><rect x="709.9" y="20" width="59" height="32" style="fill: rgb(51, 177, 255); stroke-width: 0; stroke: transparent; paint-order: stroke;"/><text x="739.4" y="33" dy=".3em" style="font-family: &quot;IBM Plex Sans&quot;, sans-serif; font-size: 16px; font-style: normal; fill: rgb(22, 22, 22); font-weight: 400; text-anchor: middle;">RZ</text><text x="739.4" y="46" dy=".3em" style="font-family: &quot;IBM Plex Mono&quot;, monospace; font-size: 8px; font-style: normal; fill: rgb(22, 22, 22); font-weight: 400; text-anchor: middle;">(pi / 2)</text></g><g><rect x="707.4" y="60" width="64" height="32" style="fill: rgb(51, 177, 255); stroke-width: 0; stroke: transparent; paint-order: stroke;"/><text x="739.4" y="73" dy=".3em" style="font-family: &quot;IBM Plex Sans&quot;, sans-serif; font-size: 16px; font-style: normal; fill: rgb(22, 22, 22); font-weight: 400; text-anchor: middle;">RZ</text><text x="739.4" y="86" dy=".3em" style="font-family: &quot;IBM Plex Mono&quot;, monospace; font-size: 8px; font-style: normal; fill: rgb(22, 22, 22); font-weight: 400; text-anchor: middle;">(-pi / 4)</text></g><g transform="translate(723.4, 220)"><rect x="0" y="0" width="32" height="32" style="fill: rgb(159, 24, 83); stroke-width: 0; stroke: transparent; paint-order: stroke;"/><path fill-rule="evenodd" clip-rule="evenodd" d="M12.4344 8H25.5V9.25H13.5656L12.0656 24.25H8.92123L8.42123 17.75H7V16.5H9.57877L10.0788 23H10.9344L12.4344 8Z" fill="#ffffff"/><text x="19" y="17" dy=".3em" style="font-family: &quot;IBM Plex Sans&quot;, sans-serif; font-size: 16px; font-style: normal; fill: rgb(255, 255, 255); font-weight: 400; text-anchor: middle;">X</text></g><line x1="818.4" y1="36" x2="818.4" y2="76" style="stroke-width: 1; stroke: rgb(0, 45, 156);"/><circle r="4" cx="818.4" cy="36" style="fill: rgb(0, 45, 156);"/><g transform="translate(818.4, 76)"><g><circle cx="0" cy="0" r="16" style="fill: rgb(0, 45, 156); stroke-width: 0; stroke: transparent; paint-order: stroke;"/><line x1="0" y1="-8" x2="0" y2="8" style="stroke-width: 1.25; stroke: rgb(255, 255, 255);"/><line x1="8" y1="0" x2="-8" y2="0" style="stroke-width: 1.25; stroke: rgb(255, 255, 255);"/></g></g><g><rect x="779.4" y="220" width="78" height="32" style="fill: rgb(51, 177, 255); stroke-width: 0; stroke: transparent; paint-order: stroke;"/><text x="818.4" y="233" dy=".3em" style="font-family: &quot;IBM Plex Sans&quot;, sans-serif; font-size: 16px; font-style: normal; fill: rgb(22, 22, 22); font-weight: 400; text-anchor: middle;">RZ</text><text x="818.4" y="246" dy=".3em" style="font-family: &quot;IBM Plex Mono&quot;, monospace; font-size: 8px; font-style: normal; fill: rgb(22, 22, 22); font-weight: 400; text-anchor: middle;">(3 * pi / 4)</text></g><line x1="881.4" y1="236" x2="881.4" y2="276" style="stroke-width: 1; stroke: rgb(0, 45, 156);"/><circle r="4" cx="881.4" cy="236" style="fill: rgb(0, 45, 156);"/><g transform="translate(881.4, 276)"><g><circle cx="0" cy="0" r="16" style="fill: rgb(0, 45, 156); stroke-width: 0; stroke: transparent; paint-order: stroke;"/><line x1="0" y1="-8" x2="0" y2="8" style="stroke-width: 1.25; stroke: rgb(255, 255, 255);"/><line x1="8" y1="0" x2="-8" y2="0" style="stroke-width: 1.25; stroke: rgb(255, 255, 255);"/></g></g><g><rect x="905.4" y="260" width="64" height="32" style="fill: rgb(51, 177, 255); stroke-width: 0; stroke: transparent; paint-order: stroke;"/><text x="937.4" y="273" dy=".3em" style="font-family: &quot;IBM Plex Sans&quot;, sans-serif; font-size: 16px; font-style: normal; fill: rgb(22, 22, 22); font-weight: 400; text-anchor: middle;">RZ</text><text x="937.4" y="286" dy=".3em" style="font-family: &quot;IBM Plex Mono&quot;, monospace; font-size: 8px; font-style: normal; fill: rgb(22, 22, 22); font-weight: 400; text-anchor: middle;">(-pi / 4)</text></g><line x1="993.4" y1="116" x2="993.4" y2="276" style="stroke-width: 1; stroke: rgb(0, 45, 156);"/><circle r="4" cx="993.4" cy="116" style="fill: rgb(0, 45, 156);"/><g transform="translate(993.4, 276)"><g><circle cx="0" cy="0" r="16" style="fill: rgb(0, 45, 156); stroke-width: 0; stroke: transparent; paint-order: stroke;"/><line x1="0" y1="-8" x2="0" y2="8" style="stroke-width: 1.25; stroke: rgb(255, 255, 255);"/><line x1="8" y1="0" x2="-8" y2="0" style="stroke-width: 1.25; stroke: rgb(255, 255, 255);"/></g></g><g><rect x="1017.4000000000001" y="260" width="59" height="32" style="fill: rgb(51, 177, 255); stroke-width: 0; stroke: transparent; paint-order: stroke;"/><text x="1046.9" y="273" dy=".3em" style="font-family: &quot;IBM Plex Sans&quot;, sans-serif; font-size: 16px; font-style: normal; fill: rgb(22, 22, 22); font-weight: 400; text-anchor: middle;">RZ</text><text x="1046.9" y="286" dy=".3em" style="font-family: &quot;IBM Plex Mono&quot;, monospace; font-size: 8px; font-style: normal; fill: rgb(22, 22, 22); font-weight: 400; text-anchor: middle;">(pi / 4)</text></g><line x1="1100.4" y1="236" x2="1100.4" y2="276" style="stroke-width: 1; stroke: rgb(0, 45, 156);"/><circle r="4" cx="1100.4" cy="236" style="fill: rgb(0, 45, 156);"/><g transform="translate(1100.4, 276)"><g><circle cx="0" cy="0" r="16" style="fill: rgb(0, 45, 156); stroke-width: 0; stroke: transparent; paint-order: stroke;"/><line x1="0" y1="-8" x2="0" y2="8" style="stroke-width: 1.25; stroke: rgb(255, 255, 255);"/><line x1="8" y1="0" x2="-8" y2="0" style="stroke-width: 1.25; stroke: rgb(255, 255, 255);"/></g></g><g><rect x="1124.4" y="260" width="64" height="32" style="fill: rgb(51, 177, 255); stroke-width: 0; stroke: transparent; paint-order: stroke;"/><text x="1156.4" y="273" dy=".3em" style="font-family: &quot;IBM Plex Sans&quot;, sans-serif; font-size: 16px; font-style: normal; fill: rgb(22, 22, 22); font-weight: 400; text-anchor: middle;">RZ</text><text x="1156.4" y="286" dy=".3em" style="font-family: &quot;IBM Plex Mono&quot;, monospace; font-size: 8px; font-style: normal; fill: rgb(22, 22, 22); font-weight: 400; text-anchor: middle;">(-pi / 4)</text></g><line x1="1212.4" y1="116" x2="1212.4" y2="276" style="stroke-width: 1; stroke: rgb(0, 45, 156);"/><circle r="4" cx="1212.4" cy="116" style="fill: rgb(0, 45, 156);"/><g transform="translate(1212.4, 276)"><g><circle cx="0" cy="0" r="16" style="fill: rgb(0, 45, 156); stroke-width: 0; stroke: transparent; paint-order: stroke;"/><line x1="0" y1="-8" x2="0" y2="8" style="stroke-width: 1.25; stroke: rgb(255, 255, 255);"/><line x1="8" y1="0" x2="-8" y2="0" style="stroke-width: 1.25; stroke: rgb(255, 255, 255);"/></g></g><line x1="1275.4" y1="116" x2="1275.4" y2="236" style="stroke-width: 1; stroke: rgb(0, 45, 156);"/><circle r="4" cx="1275.4" cy="116" style="fill: rgb(0, 45, 156);"/><g transform="translate(1275.4, 236)"><g><circle cx="0" cy="0" r="16" style="fill: rgb(0, 45, 156); stroke-width: 0; stroke: transparent; paint-order: stroke;"/><line x1="0" y1="-8" x2="0" y2="8" style="stroke-width: 1.25; stroke: rgb(255, 255, 255);"/><line x1="8" y1="0" x2="-8" y2="0" style="stroke-width: 1.25; stroke: rgb(255, 255, 255);"/></g></g><g><rect x="1236.4" y="260" width="78" height="32" style="fill: rgb(51, 177, 255); stroke-width: 0; stroke: transparent; paint-order: stroke;"/><text x="1275.4" y="273" dy=".3em" style="font-family: &quot;IBM Plex Sans&quot;, sans-serif; font-size: 16px; font-style: normal; fill: rgb(22, 22, 22); font-weight: 400; text-anchor: middle;">RZ</text><text x="1275.4" y="286" dy=".3em" style="font-family: &quot;IBM Plex Mono&quot;, monospace; font-size: 8px; font-style: normal; fill: rgb(22, 22, 22); font-weight: 400; text-anchor: middle;">(3 * pi / 4)</text></g><g><rect x="1324.9" y="100" width="59" height="32" style="fill: rgb(51, 177, 255); stroke-width: 0; stroke: transparent; paint-order: stroke;"/><text x="1354.4" y="113" dy=".3em" style="font-family: &quot;IBM Plex Sans&quot;, sans-serif; font-size: 16px; font-style: normal; fill: rgb(22, 22, 22); font-weight: 400; text-anchor: middle;">RZ</text><text x="1354.4" y="126" dy=".3em" style="font-family: &quot;IBM Plex Mono&quot;, monospace; font-size: 8px; font-style: normal; fill: rgb(22, 22, 22); font-weight: 400; text-anchor: middle;">(pi / 2)</text></g><g><rect x="1322.4" y="220" width="64" height="32" style="fill: rgb(51, 177, 255); stroke-width: 0; stroke: transparent; paint-order: stroke;"/><text x="1354.4" y="233" dy=".3em" style="font-family: &quot;IBM Plex Sans&quot;, sans-serif; font-size: 16px; font-style: normal; fill: rgb(22, 22, 22); font-weight: 400; text-anchor: middle;">RZ</text><text x="1354.4" y="246" dy=".3em" style="font-family: &quot;IBM Plex Mono&quot;, monospace; font-size: 8px; font-style: normal; fill: rgb(22, 22, 22); font-weight: 400; text-anchor: middle;">(-pi / 4)</text></g><g transform="translate(1338.4, 260)"><rect x="0" y="0" width="32" height="32" style="fill: rgb(159, 24, 83); stroke-width: 0; stroke: transparent; paint-order: stroke;"/><path fill-rule="evenodd" clip-rule="evenodd" d="M12.4344 8H25.5V9.25H13.5656L12.0656 24.25H8.92123L8.42123 17.75H7V16.5H9.57877L10.0788 23H10.9344L12.4344 8Z" fill="#ffffff"/><text x="19" y="17" dy=".3em" style="font-family: &quot;IBM Plex Sans&quot;, sans-serif; font-size: 16px; font-style: normal; fill: rgb(255, 255, 255); font-weight: 400; text-anchor: middle;">X</text></g><line x1="1433.4" y1="116" x2="1433.4" y2="236" style="stroke-width: 1; stroke: rgb(0, 45, 156);"/><circle r="4" cx="1433.4" cy="116" style="fill: rgb(0, 45, 156);"/><g transform="translate(1433.4, 236)"><g><circle cx="0" cy="0" r="16" style="fill: rgb(0, 45, 156); stroke-width: 0; stroke: transparent; paint-order: stroke;"/><line x1="0" y1="-8" x2="0" y2="8" style="stroke-width: 1.25; stroke: rgb(255, 255, 255);"/><line x1="8" y1="0" x2="-8" y2="0" style="stroke-width: 1.25; stroke: rgb(255, 255, 255);"/></g></g><g><rect x="1394.4" y="260" width="78" height="32" style="fill: rgb(51, 177, 255); stroke-width: 0; stroke: transparent; paint-order: stroke;"/><text x="1433.4" y="273" dy=".3em" style="font-family: &quot;IBM Plex Sans&quot;, sans-serif; font-size: 16px; font-style: normal; fill: rgb(22, 22, 22); font-weight: 400; text-anchor: middle;">RZ</text><text x="1433.4" y="286" dy=".3em" style="font-family: &quot;IBM Plex Mono&quot;, monospace; font-size: 8px; font-style: normal; fill: rgb(22, 22, 22); font-weight: 400; text-anchor: middle;">(3 * pi / 4)</text></g><line x1="1496.4" y1="276" x2="1496.4" y2="316" style="stroke-width: 1; stroke: rgb(0, 45, 156);"/><circle r="4" cx="1496.4" cy="276" style="fill: rgb(0, 45, 156);"/><g transform="translate(1496.4, 316)"><g><circle cx="0" cy="0" r="16" style="fill: rgb(0, 45, 156); stroke-width: 0; stroke: transparent; paint-order: stroke;"/><line x1="0" y1="-8" x2="0" y2="8" style="stroke-width: 1.25; stroke: rgb(255, 255, 255);"/><line x1="8" y1="0" x2="-8" y2="0" style="stroke-width: 1.25; stroke: rgb(255, 255, 255);"/></g></g><g><rect x="1520.4" y="300" width="64" height="32" style="fill: rgb(51, 177, 255); stroke-width: 0; stroke: transparent; paint-order: stroke;"/><text x="1552.4" y="313" dy=".3em" style="font-family: &quot;IBM Plex Sans&quot;, sans-serif; font-size: 16px; font-style: normal; fill: rgb(22, 22, 22); font-weight: 400; text-anchor: middle;">RZ</text><text x="1552.4" y="326" dy=".3em" style="font-family: &quot;IBM Plex Mono&quot;, monospace; font-size: 8px; font-style: normal; fill: rgb(22, 22, 22); font-weight: 400; text-anchor: middle;">(-pi / 4)</text></g><line x1="1608.4" y1="156" x2="1608.4" y2="316" style="stroke-width: 1; stroke: rgb(0, 45, 156);"/><circle r="4" cx="1608.4" cy="156" style="fill: rgb(0, 45, 156);"/><g transform="translate(1608.4, 316)"><g><circle cx="0" cy="0" r="16" style="fill: rgb(0, 45, 156); stroke-width: 0; stroke: transparent; paint-order: stroke;"/><line x1="0" y1="-8" x2="0" y2="8" style="stroke-width: 1.25; stroke: rgb(255, 255, 255);"/><line x1="8" y1="0" x2="-8" y2="0" style="stroke-width: 1.25; stroke: rgb(255, 255, 255);"/></g></g><g><rect x="1632.4" y="300" width="59" height="32" style="fill: rgb(51, 177, 255); stroke-width: 0; stroke: transparent; paint-order: stroke;"/><text x="1661.9" y="313" dy=".3em" style="font-family: &quot;IBM Plex Sans&quot;, sans-serif; font-size: 16px; font-style: normal; fill: rgb(22, 22, 22); font-weight: 400; text-anchor: middle;">RZ</text><text x="1661.9" y="326" dy=".3em" style="font-family: &quot;IBM Plex Mono&quot;, monospace; font-size: 8px; font-style: normal; fill: rgb(22, 22, 22); font-weight: 400; text-anchor: middle;">(pi / 4)</text></g><line x1="1715.4" y1="276" x2="1715.4" y2="316" style="stroke-width: 1; stroke: rgb(0, 45, 156);"/><circle r="4" cx="1715.4" cy="276" style="fill: rgb(0, 45, 156);"/><g transform="translate(1715.4, 316)"><g><circle cx="0" cy="0" r="16" style="fill: rgb(0, 45, 156); stroke-width: 0; stroke: transparent; paint-order: stroke;"/><line x1="0" y1="-8" x2="0" y2="8" style="stroke-width: 1.25; stroke: rgb(255, 255, 255);"/><line x1="8" y1="0" x2="-8" y2="0" style="stroke-width: 1.25; stroke: rgb(255, 255, 255);"/></g></g><g><rect x="1739.4" y="300" width="64" height="32" style="fill: rgb(51, 177, 255); stroke-width: 0; stroke: transparent; paint-order: stroke;"/><text x="1771.4" y="313" dy=".3em" style="font-family: &quot;IBM Plex Sans&quot;, sans-serif; font-size: 16px; font-style: normal; fill: rgb(22, 22, 22); font-weight: 400; text-anchor: middle;">RZ</text><text x="1771.4" y="326" dy=".3em" style="font-family: &quot;IBM Plex Mono&quot;, monospace; font-size: 8px; font-style: normal; fill: rgb(22, 22, 22); font-weight: 400; text-anchor: middle;">(-pi / 4)</text></g><line x1="1827.4" y1="156" x2="1827.4" y2="316" style="stroke-width: 1; stroke: rgb(0, 45, 156);"/><circle r="4" cx="1827.4" cy="156" style="fill: rgb(0, 45, 156);"/><g transform="translate(1827.4, 316)"><g><circle cx="0" cy="0" r="16" style="fill: rgb(0, 45, 156); stroke-width: 0; stroke: transparent; paint-order: stroke;"/><line x1="0" y1="-8" x2="0" y2="8" style="stroke-width: 1.25; stroke: rgb(255, 255, 255);"/><line x1="8" y1="0" x2="-8" y2="0" style="stroke-width: 1.25; stroke: rgb(255, 255, 255);"/></g></g><line x1="1890.4" y1="156" x2="1890.4" y2="276" style="stroke-width: 1; stroke: rgb(0, 45, 156);"/><circle r="4" cx="1890.4" cy="156" style="fill: rgb(0, 45, 156);"/><g transform="translate(1890.4, 276)"><g><circle cx="0" cy="0" r="16" style="fill: rgb(0, 45, 156); stroke-width: 0; stroke: transparent; paint-order: stroke;"/><line x1="0" y1="-8" x2="0" y2="8" style="stroke-width: 1.25; stroke: rgb(255, 255, 255);"/><line x1="8" y1="0" x2="-8" y2="0" style="stroke-width: 1.25; stroke: rgb(255, 255, 255);"/></g></g><g><rect x="1851.4" y="300" width="78" height="32" style="fill: rgb(51, 177, 255); stroke-width: 0; stroke: transparent; paint-order: stroke;"/><text x="1890.4" y="313" dy=".3em" style="font-family: &quot;IBM Plex Sans&quot;, sans-serif; font-size: 16px; font-style: normal; fill: rgb(22, 22, 22); font-weight: 400; text-anchor: middle;">RZ</text><text x="1890.4" y="326" dy=".3em" style="font-family: &quot;IBM Plex Mono&quot;, monospace; font-size: 8px; font-style: normal; fill: rgb(22, 22, 22); font-weight: 400; text-anchor: middle;">(3 * pi / 4)</text></g><g><rect x="1939.9" y="140" width="59" height="32" style="fill: rgb(51, 177, 255); stroke-width: 0; stroke: transparent; paint-order: stroke;"/><text x="1969.4" y="153" dy=".3em" style="font-family: &quot;IBM Plex Sans&quot;, sans-serif; font-size: 16px; font-style: normal; fill: rgb(22, 22, 22); font-weight: 400; text-anchor: middle;">RZ</text><text x="1969.4" y="166" dy=".3em" style="font-family: &quot;IBM Plex Mono&quot;, monospace; font-size: 8px; font-style: normal; fill: rgb(22, 22, 22); font-weight: 400; text-anchor: middle;">(pi / 2)</text></g><g><rect x="1937.4" y="260" width="64" height="32" style="fill: rgb(51, 177, 255); stroke-width: 0; stroke: transparent; paint-order: stroke;"/><text x="1969.4" y="273" dy=".3em" style="font-family: &quot;IBM Plex Sans&quot;, sans-serif; font-size: 16px; font-style: normal; fill: rgb(22, 22, 22); font-weight: 400; text-anchor: middle;">RZ</text><text x="1969.4" y="286" dy=".3em" style="font-family: &quot;IBM Plex Mono&quot;, monospace; font-size: 8px; font-style: normal; fill: rgb(22, 22, 22); font-weight: 400; text-anchor: middle;">(-pi / 4)</text></g><g transform="translate(1953.4, 300)"><rect x="0" y="0" width="32" height="32" style="fill: rgb(159, 24, 83); stroke-width: 0; stroke: transparent; paint-order: stroke;"/><path fill-rule="evenodd" clip-rule="evenodd" d="M12.4344 8H25.5V9.25H13.5656L12.0656 24.25H8.92123L8.42123 17.75H7V16.5H9.57877L10.0788 23H10.9344L12.4344 8Z" fill="#ffffff"/><text x="19" y="17" dy=".3em" style="font-family: &quot;IBM Plex Sans&quot;, sans-serif; font-size: 16px; font-style: normal; fill: rgb(255, 255, 255); font-weight: 400; text-anchor: middle;">X</text></g><line x1="2048.4" y1="156" x2="2048.4" y2="276" style="stroke-width: 1; stroke: rgb(0, 45, 156);"/><circle r="4" cx="2048.4" cy="156" style="fill: rgb(0, 45, 156);"/><g transform="translate(2048.4, 276)"><g><circle cx="0" cy="0" r="16" style="fill: rgb(0, 45, 156); stroke-width: 0; stroke: transparent; paint-order: stroke;"/><line x1="0" y1="-8" x2="0" y2="8" style="stroke-width: 1.25; stroke: rgb(255, 255, 255);"/><line x1="8" y1="0" x2="-8" y2="0" style="stroke-width: 1.25; stroke: rgb(255, 255, 255);"/></g></g><g><rect x="2009.4" y="300" width="78" height="32" style="fill: rgb(51, 177, 255); stroke-width: 0; stroke: transparent; paint-order: stroke;"/><text x="2048.4" y="313" dy=".3em" style="font-family: &quot;IBM Plex Sans&quot;, sans-serif; font-size: 16px; font-style: normal; fill: rgb(22, 22, 22); font-weight: 400; text-anchor: middle;">RZ</text><text x="2048.4" y="326" dy=".3em" style="font-family: &quot;IBM Plex Mono&quot;, monospace; font-size: 8px; font-style: normal; fill: rgb(22, 22, 22); font-weight: 400; text-anchor: middle;">(3 * pi / 4)</text></g><line x1="2111.4" y1="316" x2="2111.4" y2="356" style="stroke-width: 1; stroke: rgb(0, 45, 156);"/><circle r="4" cx="2111.4" cy="316" style="fill: rgb(0, 45, 156);"/><g transform="translate(2111.4, 356)"><g><circle cx="0" cy="0" r="16" style="fill: rgb(0, 45, 156); stroke-width: 0; stroke: transparent; paint-order: stroke;"/><line x1="0" y1="-8" x2="0" y2="8" style="stroke-width: 1.25; stroke: rgb(255, 255, 255);"/><line x1="8" y1="0" x2="-8" y2="0" style="stroke-width: 1.25; stroke: rgb(255, 255, 255);"/></g></g><g><rect x="2135.4" y="340" width="64" height="32" style="fill: rgb(51, 177, 255); stroke-width: 0; stroke: transparent; paint-order: stroke;"/><text x="2167.4" y="353" dy=".3em" style="font-family: &quot;IBM Plex Sans&quot;, sans-serif; font-size: 16px; font-style: normal; fill: rgb(22, 22, 22); font-weight: 400; text-anchor: middle;">RZ</text><text x="2167.4" y="366" dy=".3em" style="font-family: &quot;IBM Plex Mono&quot;, monospace; font-size: 8px; font-style: normal; fill: rgb(22, 22, 22); font-weight: 400; text-anchor: middle;">(-pi / 4)</text></g><line x1="2223.4" y1="196" x2="2223.4" y2="356" style="stroke-width: 1; stroke: rgb(0, 45, 156);"/><circle r="4" cx="2223.4" cy="196" style="fill: rgb(0, 45, 156);"/><g transform="translate(2223.4, 356)"><g><circle cx="0" cy="0" r="16" style="fill: rgb(0, 45, 156); stroke-width: 0; stroke: transparent; paint-order: stroke;"/><line x1="0" y1="-8" x2="0" y2="8" style="stroke-width: 1.25; stroke: rgb(255, 255, 255);"/><line x1="8" y1="0" x2="-8" y2="0" style="stroke-width: 1.25; stroke: rgb(255, 255, 255);"/></g></g><g><rect x="2247.4" y="340" width="59" height="32" style="fill: rgb(51, 177, 255); stroke-width: 0; stroke: transparent; paint-order: stroke;"/><text x="2276.9" y="353" dy=".3em" style="font-family: &quot;IBM Plex Sans&quot;, sans-serif; font-size: 16px; font-style: normal; fill: rgb(22, 22, 22); font-weight: 400; text-anchor: middle;">RZ</text><text x="2276.9" y="366" dy=".3em" style="font-family: &quot;IBM Plex Mono&quot;, monospace; font-size: 8px; font-style: normal; fill: rgb(22, 22, 22); font-weight: 400; text-anchor: middle;">(pi / 4)</text></g><line x1="2330.4" y1="316" x2="2330.4" y2="356" style="stroke-width: 1; stroke: rgb(0, 45, 156);"/><circle r="4" cx="2330.4" cy="316" style="fill: rgb(0, 45, 156);"/><g transform="translate(2330.4, 356)"><g><circle cx="0" cy="0" r="16" style="fill: rgb(0, 45, 156); stroke-width: 0; stroke: transparent; paint-order: stroke;"/><line x1="0" y1="-8" x2="0" y2="8" style="stroke-width: 1.25; stroke: rgb(255, 255, 255);"/><line x1="8" y1="0" x2="-8" y2="0" style="stroke-width: 1.25; stroke: rgb(255, 255, 255);"/></g></g><g><rect x="2354.4" y="340" width="64" height="32" style="fill: rgb(51, 177, 255); stroke-width: 0; stroke: transparent; paint-order: stroke;"/><text x="2386.4" y="353" dy=".3em" style="font-family: &quot;IBM Plex Sans&quot;, sans-serif; font-size: 16px; font-style: normal; fill: rgb(22, 22, 22); font-weight: 400; text-anchor: middle;">RZ</text><text x="2386.4" y="366" dy=".3em" style="font-family: &quot;IBM Plex Mono&quot;, monospace; font-size: 8px; font-style: normal; fill: rgb(22, 22, 22); font-weight: 400; text-anchor: middle;">(-pi / 4)</text></g><line x1="2442.4" y1="196" x2="2442.4" y2="356" style="stroke-width: 1; stroke: rgb(0, 45, 156);"/><circle r="4" cx="2442.4" cy="196" style="fill: rgb(0, 45, 156);"/><g transform="translate(2442.4, 356)"><g><circle cx="0" cy="0" r="16" style="fill: rgb(0, 45, 156); stroke-width: 0; stroke: transparent; paint-order: stroke;"/><line x1="0" y1="-8" x2="0" y2="8" style="stroke-width: 1.25; stroke: rgb(255, 255, 255);"/><line x1="8" y1="0" x2="-8" y2="0" style="stroke-width: 1.25; stroke: rgb(255, 255, 255);"/></g></g><line x1="2482.4" y1="196" x2="2482.4" y2="316" style="stroke-width: 1; stroke: rgb(0, 45, 156);"/><circle r="4" cx="2482.4" cy="196" style="fill: rgb(0, 45, 156);"/><g transform="translate(2482.4, 316)"><g><circle cx="0" cy="0" r="16" style="fill: rgb(0, 45, 156); stroke-width: 0; stroke: transparent; paint-order: stroke;"/><line x1="0" y1="-8" x2="0" y2="8" style="stroke-width: 1.25; stroke: rgb(255, 255, 255);"/><line x1="8" y1="0" x2="-8" y2="0" style="stroke-width: 1.25; stroke: rgb(255, 255, 255);"/></g></g><g><rect x="2508.9" y="180" width="59" height="32" style="fill: rgb(51, 177, 255); stroke-width: 0; stroke: transparent; paint-order: stroke;"/><text x="2538.4" y="193" dy=".3em" style="font-family: &quot;IBM Plex Sans&quot;, sans-serif; font-size: 16px; font-style: normal; fill: rgb(22, 22, 22); font-weight: 400; text-anchor: middle;">RZ</text><text x="2538.4" y="206" dy=".3em" style="font-family: &quot;IBM Plex Mono&quot;, monospace; font-size: 8px; font-style: normal; fill: rgb(22, 22, 22); font-weight: 400; text-anchor: middle;">(pi / 4)</text></g><g><rect x="2506.4" y="300" width="64" height="32" style="fill: rgb(51, 177, 255); stroke-width: 0; stroke: transparent; paint-order: stroke;"/><text x="2538.4" y="313" dy=".3em" style="font-family: &quot;IBM Plex Sans&quot;, sans-serif; font-size: 16px; font-style: normal; fill: rgb(22, 22, 22); font-weight: 400; text-anchor: middle;">RZ</text><text x="2538.4" y="326" dy=".3em" style="font-family: &quot;IBM Plex Mono&quot;, monospace; font-size: 8px; font-style: normal; fill: rgb(22, 22, 22); font-weight: 400; text-anchor: middle;">(-pi / 4)</text></g><line x1="2594.4" y1="196" x2="2594.4" y2="316" style="stroke-width: 1; stroke: rgb(0, 45, 156);"/><circle r="4" cx="2594.4" cy="196" style="fill: rgb(0, 45, 156);"/><g transform="translate(2594.4, 316)"><g><circle cx="0" cy="0" r="16" style="fill: rgb(0, 45, 156); stroke-width: 0; stroke: transparent; paint-order: stroke;"/><line x1="0" y1="-8" x2="0" y2="8" style="stroke-width: 1.25; stroke: rgb(255, 255, 255);"/><line x1="8" y1="0" x2="-8" y2="0" style="stroke-width: 1.25; stroke: rgb(255, 255, 255);"/></g></g><g><rect x="2618.4" y="300" width="59" height="32" style="fill: rgb(51, 177, 255); stroke-width: 0; stroke: transparent; paint-order: stroke;"/><text x="2647.9" y="313" dy=".3em" style="font-family: &quot;IBM Plex Sans&quot;, sans-serif; font-size: 16px; font-style: normal; fill: rgb(22, 22, 22); font-weight: 400; text-anchor: middle;">RZ</text><text x="2647.9" y="326" dy=".3em" style="font-family: &quot;IBM Plex Mono&quot;, monospace; font-size: 8px; font-style: normal; fill: rgb(22, 22, 22); font-weight: 400; text-anchor: middle;">(pi / 2)</text></g><g transform="translate(2685.4, 300)"><rect x="0" y="0" width="32" height="32" style="fill: rgb(159, 24, 83); stroke-width: 0; stroke: transparent; paint-order: stroke;"/><path fill-rule="evenodd" clip-rule="evenodd" d="M12.4344 8H25.5V9.25H13.5656L12.0656 24.25H8.92123L8.42123 17.75H7V16.5H9.57877L10.0788 23H10.9344L12.4344 8Z" fill="#ffffff"/><text x="19" y="17" dy=".3em" style="font-family: &quot;IBM Plex Sans&quot;, sans-serif; font-size: 16px; font-style: normal; fill: rgb(255, 255, 255); font-weight: 400; text-anchor: middle;">X</text></g><g><rect x="2725.4" y="300" width="59" height="32" style="fill: rgb(51, 177, 255); stroke-width: 0; stroke: transparent; paint-order: stroke;"/><text x="2754.9" y="313" dy=".3em" style="font-family: &quot;IBM Plex Sans&quot;, sans-serif; font-size: 16px; font-style: normal; fill: rgb(22, 22, 22); font-weight: 400; text-anchor: middle;">RZ</text><text x="2754.9" y="326" dy=".3em" style="font-family: &quot;IBM Plex Mono&quot;, monospace; font-size: 8px; font-style: normal; fill: rgb(22, 22, 22); font-weight: 400; text-anchor: middle;">(pi / 2)</text></g><line x1="2808.4" y1="276" x2="2808.4" y2="316" style="stroke-width: 1; stroke: rgb(0, 45, 156);"/><circle r="4" cx="2808.4" cy="276" style="fill: rgb(0, 45, 156);"/><g transform="translate(2808.4, 316)"><g><circle cx="0" cy="0" r="16" style="fill: rgb(0, 45, 156); stroke-width: 0; stroke: transparent; paint-order: stroke;"/><line x1="0" y1="-8" x2="0" y2="8" style="stroke-width: 1.25; stroke: rgb(255, 255, 255);"/><line x1="8" y1="0" x2="-8" y2="0" style="stroke-width: 1.25; stroke: rgb(255, 255, 255);"/></g></g><g><rect x="2832.4" y="300" width="64" height="32" style="fill: rgb(51, 177, 255); stroke-width: 0; stroke: transparent; paint-order: stroke;"/><text x="2864.4" y="313" dy=".3em" style="font-family: &quot;IBM Plex Sans&quot;, sans-serif; font-size: 16px; font-style: normal; fill: rgb(22, 22, 22); font-weight: 400; text-anchor: middle;">RZ</text><text x="2864.4" y="326" dy=".3em" style="font-family: &quot;IBM Plex Mono&quot;, monospace; font-size: 8px; font-style: normal; fill: rgb(22, 22, 22); font-weight: 400; text-anchor: middle;">(-pi / 4)</text></g><line x1="2920.4" y1="156" x2="2920.4" y2="316" style="stroke-width: 1; stroke: rgb(0, 45, 156);"/><circle r="4" cx="2920.4" cy="156" style="fill: rgb(0, 45, 156);"/><g transform="translate(2920.4, 316)"><g><circle cx="0" cy="0" r="16" style="fill: rgb(0, 45, 156); stroke-width: 0; stroke: transparent; paint-order: stroke;"/><line x1="0" y1="-8" x2="0" y2="8" style="stroke-width: 1.25; stroke: rgb(255, 255, 255);"/><line x1="8" y1="0" x2="-8" y2="0" style="stroke-width: 1.25; stroke: rgb(255, 255, 255);"/></g></g><g><rect x="2944.4" y="300" width="59" height="32" style="fill: rgb(51, 177, 255); stroke-width: 0; stroke: transparent; paint-order: stroke;"/><text x="2973.9" y="313" dy=".3em" style="font-family: &quot;IBM Plex Sans&quot;, sans-serif; font-size: 16px; font-style: normal; fill: rgb(22, 22, 22); font-weight: 400; text-anchor: middle;">RZ</text><text x="2973.9" y="326" dy=".3em" style="font-family: &quot;IBM Plex Mono&quot;, monospace; font-size: 8px; font-style: normal; fill: rgb(22, 22, 22); font-weight: 400; text-anchor: middle;">(pi / 4)</text></g><line x1="3027.4" y1="276" x2="3027.4" y2="316" style="stroke-width: 1; stroke: rgb(0, 45, 156);"/><circle r="4" cx="3027.4" cy="276" style="fill: rgb(0, 45, 156);"/><g transform="translate(3027.4, 316)"><g><circle cx="0" cy="0" r="16" style="fill: rgb(0, 45, 156); stroke-width: 0; stroke: transparent; paint-order: stroke;"/><line x1="0" y1="-8" x2="0" y2="8" style="stroke-width: 1.25; stroke: rgb(255, 255, 255);"/><line x1="8" y1="0" x2="-8" y2="0" style="stroke-width: 1.25; stroke: rgb(255, 255, 255);"/></g></g><g><rect x="3053.9" y="260" width="59" height="32" style="fill: rgb(51, 177, 255); stroke-width: 0; stroke: transparent; paint-order: stroke;"/><text x="3083.4" y="273" dy=".3em" style="font-family: &quot;IBM Plex Sans&quot;, sans-serif; font-size: 16px; font-style: normal; fill: rgb(22, 22, 22); font-weight: 400; text-anchor: middle;">RZ</text><text x="3083.4" y="286" dy=".3em" style="font-family: &quot;IBM Plex Mono&quot;, monospace; font-size: 8px; font-style: normal; fill: rgb(22, 22, 22); font-weight: 400; text-anchor: middle;">(pi / 4)</text></g><g><rect x="3051.4" y="300" width="64" height="32" style="fill: rgb(51, 177, 255); stroke-width: 0; stroke: transparent; paint-order: stroke;"/><text x="3083.4" y="313" dy=".3em" style="font-family: &quot;IBM Plex Sans&quot;, sans-serif; font-size: 16px; font-style: normal; fill: rgb(22, 22, 22); font-weight: 400; text-anchor: middle;">RZ</text><text x="3083.4" y="326" dy=".3em" style="font-family: &quot;IBM Plex Mono&quot;, monospace; font-size: 8px; font-style: normal; fill: rgb(22, 22, 22); font-weight: 400; text-anchor: middle;">(-pi / 4)</text></g><line x1="3139.4" y1="156" x2="3139.4" y2="316" style="stroke-width: 1; stroke: rgb(0, 45, 156);"/><circle r="4" cx="3139.4" cy="156" style="fill: rgb(0, 45, 156);"/><g transform="translate(3139.4, 316)"><g><circle cx="0" cy="0" r="16" style="fill: rgb(0, 45, 156); stroke-width: 0; stroke: transparent; paint-order: stroke;"/><line x1="0" y1="-8" x2="0" y2="8" style="stroke-width: 1.25; stroke: rgb(255, 255, 255);"/><line x1="8" y1="0" x2="-8" y2="0" style="stroke-width: 1.25; stroke: rgb(255, 255, 255);"/></g></g><line x1="3179.4" y1="156" x2="3179.4" y2="276" style="stroke-width: 1; stroke: rgb(0, 45, 156);"/><circle r="4" cx="3179.4" cy="156" style="fill: rgb(0, 45, 156);"/><g transform="translate(3179.4, 276)"><g><circle cx="0" cy="0" r="16" style="fill: rgb(0, 45, 156); stroke-width: 0; stroke: transparent; paint-order: stroke;"/><line x1="0" y1="-8" x2="0" y2="8" style="stroke-width: 1.25; stroke: rgb(255, 255, 255);"/><line x1="8" y1="0" x2="-8" y2="0" style="stroke-width: 1.25; stroke: rgb(255, 255, 255);"/></g></g><g><rect x="3203.4" y="260" width="64" height="32" style="fill: rgb(51, 177, 255); stroke-width: 0; stroke: transparent; paint-order: stroke;"/><text x="3235.4" y="273" dy=".3em" style="font-family: &quot;IBM Plex Sans&quot;, sans-serif; font-size: 16px; font-style: normal; fill: rgb(22, 22, 22); font-weight: 400; text-anchor: middle;">RZ</text><text x="3235.4" y="286" dy=".3em" style="font-family: &quot;IBM Plex Mono&quot;, monospace; font-size: 8px; font-style: normal; fill: rgb(22, 22, 22); font-weight: 400; text-anchor: middle;">(-pi / 4)</text></g><line x1="3291.4" y1="156" x2="3291.4" y2="276" style="stroke-width: 1; stroke: rgb(0, 45, 156);"/><circle r="4" cx="3291.4" cy="156" style="fill: rgb(0, 45, 156);"/><g transform="translate(3291.4, 276)"><g><circle cx="0" cy="0" r="16" style="fill: rgb(0, 45, 156); stroke-width: 0; stroke: transparent; paint-order: stroke;"/><line x1="0" y1="-8" x2="0" y2="8" style="stroke-width: 1.25; stroke: rgb(255, 255, 255);"/><line x1="8" y1="0" x2="-8" y2="0" style="stroke-width: 1.25; stroke: rgb(255, 255, 255);"/></g></g><g><rect x="3315.4" y="260" width="59" height="32" style="fill: rgb(51, 177, 255); stroke-width: 0; stroke: transparent; paint-order: stroke;"/><text x="3344.9" y="273" dy=".3em" style="font-family: &quot;IBM Plex Sans&quot;, sans-serif; font-size: 16px; font-style: normal; fill: rgb(22, 22, 22); font-weight: 400; text-anchor: middle;">RZ</text><text x="3344.9" y="286" dy=".3em" style="font-family: &quot;IBM Plex Mono&quot;, monospace; font-size: 8px; font-style: normal; fill: rgb(22, 22, 22); font-weight: 400; text-anchor: middle;">(pi / 2)</text></g><g transform="translate(3382.4, 260)"><rect x="0" y="0" width="32" height="32" style="fill: rgb(159, 24, 83); stroke-width: 0; stroke: transparent; paint-order: stroke;"/><path fill-rule="evenodd" clip-rule="evenodd" d="M12.4344 8H25.5V9.25H13.5656L12.0656 24.25H8.92123L8.42123 17.75H7V16.5H9.57877L10.0788 23H10.9344L12.4344 8Z" fill="#ffffff"/><text x="19" y="17" dy=".3em" style="font-family: &quot;IBM Plex Sans&quot;, sans-serif; font-size: 16px; font-style: normal; fill: rgb(255, 255, 255); font-weight: 400; text-anchor: middle;">X</text></g><g><rect x="3422.4" y="260" width="59" height="32" style="fill: rgb(51, 177, 255); stroke-width: 0; stroke: transparent; paint-order: stroke;"/><text x="3451.9" y="273" dy=".3em" style="font-family: &quot;IBM Plex Sans&quot;, sans-serif; font-size: 16px; font-style: normal; fill: rgb(22, 22, 22); font-weight: 400; text-anchor: middle;">RZ</text><text x="3451.9" y="286" dy=".3em" style="font-family: &quot;IBM Plex Mono&quot;, monospace; font-size: 8px; font-style: normal; fill: rgb(22, 22, 22); font-weight: 400; text-anchor: middle;">(pi / 2)</text></g><line x1="3505.4" y1="236" x2="3505.4" y2="276" style="stroke-width: 1; stroke: rgb(0, 45, 156);"/><circle r="4" cx="3505.4" cy="236" style="fill: rgb(0, 45, 156);"/><g transform="translate(3505.4, 276)"><g><circle cx="0" cy="0" r="16" style="fill: rgb(0, 45, 156); stroke-width: 0; stroke: transparent; paint-order: stroke;"/><line x1="0" y1="-8" x2="0" y2="8" style="stroke-width: 1.25; stroke: rgb(255, 255, 255);"/><line x1="8" y1="0" x2="-8" y2="0" style="stroke-width: 1.25; stroke: rgb(255, 255, 255);"/></g></g></g></svg>