<svg xmlns="http://www.w3.org/2000/svg" class="" viewBox="0 0 2232.4 240" width="2232.4" height="240" aria-label="Circuit visualization" style="display: block; user-select: none;"><defs xmlns="http://www.w3.org/1999/xhtml"><style type="text/css">&lt;!--/*--&gt;&lt;![CDATA[/*&gt;&lt;!--*/

  /* from https://fonts.googleapis.com/css2?family=IBM+Plex+Sans&amp;display=swap */
  @font-face {
    font-family: 'IBM Plex Sans';
    font-style: normal;
    font-weight: 400;
    font-display: swap;
    src: url(https://fonts.gstatic.com/s/ibmplexsans/v14/zYXgKVElMYYaJe8bpLHnCwDKhdHeFaxOedc.woff2) format('woff2');
  }
  
  /* from https://fonts.googleapis.com/css2?family=IBM+Plex+Mono&amp;display=swap */
  @font-face {
    font-family: 'IBM Plex Mono';
    font-style: normal;
    font-weight: 400;
    font-display: swap;
    src: url(https://fonts.gstatic.com/s/ibmplexmono/v12/-F63fjptAgt5VM-kVkqdyU8n1i8q131nj-o.woff2) format('woff2');
  }    

/*]]&gt;*/--&gt;</style></defs><rect x="0" y="0" width="2232.4" height="240" style="fill: rgb(255, 255, 255);"/><g><g transform="translate(20, 0)"><g><g><text x="38.4" y="36" dy=".3em" style="fill: rgb(111, 111, 111); font-family: &quot;IBM Plex Mono&quot;, monospace; font-weight: 400; text-anchor: end; font-size: 14px;"><tspan>q[0]</tspan></text><text x="38.4" y="76" dy=".3em" style="fill: rgb(111, 111, 111); font-family: &quot;IBM Plex Mono&quot;, monospace; font-weight: 400; text-anchor: end; font-size: 14px;"><tspan>q[1]</tspan></text><text x="38.4" y="116" dy=".3em" style="fill: rgb(111, 111, 111); font-family: &quot;IBM Plex Mono&quot;, monospace; font-weight: 400; text-anchor: end; font-size: 14px;"><tspan>q[2]</tspan></text><text x="38.4" y="156" dy=".3em" style="fill: rgb(111, 111, 111); font-family: &quot;IBM Plex Mono&quot;, monospace; font-weight: 400; text-anchor: end; font-size: 14px;"><tspan>q[3]</tspan></text><text x="38.4" y="196" dy=".3em" style="fill: rgb(111, 111, 111); font-family: &quot;IBM Plex Mono&quot;, monospace; font-weight: 400; text-anchor: end; font-size: 14px;"><tspan>q[4]</tspan></text></g><g/></g></g><g><g><line x1="68.4" x2="2212.4" y1="36" y2="36" style="fill: none; stroke: rgb(224, 224, 224); stroke-width: 1; stroke-linecap: round;"/><line x1="68.4" x2="2212.4" y1="76" y2="76" style="fill: none; stroke: rgb(224, 224, 224); stroke-width: 1; stroke-linecap: round;"/><line x1="68.4" x2="2212.4" y1="116" y2="116" style="fill: none; stroke: rgb(224, 224, 224); stroke-width: 1; stroke-linecap: round;"/><line x1="68.4" x2="2212.4" y1="156" y2="156" style="fill: none; stroke: rgb(224, 224, 224); stroke-width: 1; stroke-linecap: round;"/><line x1="68.4" x2="2212.4" y1="196" y2="196" style="fill: none; stroke: rgb(224, 224, 224); stroke-width: 1; stroke-linecap: round;"/></g></g><g><rect x="76.4" y="140" width="59" height="32" style="fill: rgb(51, 177, 255); stroke-width: 0; stroke: transparent; paint-order: stroke;"/><text x="105.9" y="153" dy=".3em" style="font-family: &quot;IBM Plex Sans&quot;, sans-serif; font-size: 16px; font-style: normal; fill: rgb(22, 22, 22); font-weight: 400; text-anchor: middle;">RZ</text><text x="105.9" y="166" dy=".3em" style="font-family: &quot;IBM Plex Mono&quot;, monospace; font-size: 8px; font-style: normal; fill: rgb(22, 22, 22); font-weight: 400; text-anchor: middle;">(pi / 2)</text></g><g><rect x="76.4" y="180" width="59" height="32" style="fill: rgb(51, 177, 255); stroke-width: 0; stroke: transparent; paint-order: stroke;"/><text x="105.9" y="193" dy=".3em" style="font-family: &quot;IBM Plex Sans&quot;, sans-serif; font-size: 16px; font-style: normal; fill: rgb(22, 22, 22); font-weight: 400; text-anchor: middle;">RZ</text><text x="105.9" y="206" dy=".3em" style="font-family: &quot;IBM Plex Mono&quot;, monospace; font-size: 8px; font-style: normal; fill: rgb(22, 22, 22); font-weight: 400; text-anchor: middle;">(pi / 2)</text></g><g transform="translate(143.4, 140)"><rect x="0" y="0" width="32" height="32" style="fill: rgb(159, 24, 83); stroke-width: 0; stroke: transparent; paint-order: stroke;"/><path fill-rule="evenodd" clip-rule="evenodd" d="M12.4344 8H25.5V9.25H13.5656L12.0656 24.25H8.92123L8.42123 17.75H7V16.5H9.57877L10.0788 23H10.9344L12.4344 8Z" fill="#ffffff"/><text x="19" y="17" dy=".3em" style="font-family: &quot;IBM Plex Sans&quot;, sans-serif; font-size: 16px; font-style: normal; fill: rgb(255, 255, 255); font-weight: 400; text-anchor: middle;">X</text></g><g transform="translate(143.4, 180)"><rect x="0" y="0" width="32" height="32" style="fill: rgb(159, 24, 83); stroke-width: 0; stroke: transparent; paint-order: stroke;"/><path fill-rule="evenodd" clip-rule="evenodd" d="M12.4344 8H25.5V9.25H13.5656L12.0656 24.25H8.92123L8.42123 17.75H7V16.5H9.57877L10.0788 23H10.9344L12.4344 8Z" fill="#ffffff"/><text x="19" y="17" dy=".3em" style="font-family: &quot;IBM Plex Sans&quot;, sans-serif; font-size: 16px; font-style: normal; fill: rgb(255, 255, 255); font-weight: 400; text-anchor: middle;">X</text></g><g><rect x="183.4" y="140" width="59" height="32" style="fill: rgb(51, 177, 255); stroke-width: 0; stroke: transparent; paint-order: stroke;"/><text x="212.9" y="153" dy=".3em" style="font-family: &quot;IBM Plex Sans&quot;, sans-serif; font-size: 16px; font-style: normal; fill: rgb(22, 22, 22); font-weight: 400; text-anchor: middle;">RZ</text><text x="212.9" y="166" dy=".3em" style="font-family: &quot;IBM Plex Mono&quot;, monospace; font-size: 8px; font-style: normal; fill: rgb(22, 22, 22); font-weight: 400; text-anchor: middle;">(pi / 2)</text></g><g><rect x="183.4" y="180" width="59" height="32" style="fill: rgb(51, 177, 255); stroke-width: 0; stroke: transparent; paint-order: stroke;"/><text x="212.9" y="193" dy=".3em" style="font-family: &quot;IBM Plex Sans&quot;, sans-serif; font-size: 16px; font-style: normal; fill: rgb(22, 22, 22); font-weight: 400; text-anchor: middle;">RZ</text><text x="212.9" y="206" dy=".3em" style="font-family: &quot;IBM Plex Mono&quot;, monospace; font-size: 8px; font-style: normal; fill: rgb(22, 22, 22); font-weight: 400; text-anchor: middle;">(pi / 2)</text></g><line x1="266.4" y1="76" x2="266.4" y2="196" style="stroke-width: 1; stroke: rgb(0, 45, 156);"/><circle r="4" cx="266.4" cy="76" style="fill: rgb(0, 45, 156);"/><g transform="translate(266.4, 196)"><g><circle cx="0" cy="0" r="16" style="fill: rgb(0, 45, 156); stroke-width: 0; stroke: transparent; paint-order: stroke;"/><line x1="0" y1="-8" x2="0" y2="8" style="stroke-width: 1.25; stroke: rgb(255, 255, 255);"/><line x1="8" y1="0" x2="-8" y2="0" style="stroke-width: 1.25; stroke: rgb(255, 255, 255);"/></g></g><g><rect x="290.4" y="180" width="64" height="32" style="fill: rgb(51, 177, 255); stroke-width: 0; stroke: transparent; paint-order: stroke;"/><text x="322.4" y="193" dy=".3em" style="font-family: &quot;IBM Plex Sans&quot;, sans-serif; font-size: 16px; font-style: normal; fill: rgb(22, 22, 22); font-weight: 400; text-anchor: middle;">RZ</text><text x="322.4" y="206" dy=".3em" style="font-family: &quot;IBM Plex Mono&quot;, monospace; font-size: 8px; font-style: normal; fill: rgb(22, 22, 22); font-weight: 400; text-anchor: middle;">(-pi / 4)</text></g><line x1="378.4" y1="36" x2="378.4" y2="196" style="stroke-width: 1; stroke: rgb(0, 45, 156);"/><circle r="4" cx="378.4" cy="36" style="fill: rgb(0, 45, 156);"/><g transform="translate(378.4, 196)"><g><circle cx="0" cy="0" r="16" style="fill: rgb(0, 45, 156); stroke-width: 0; stroke: transparent; paint-order: stroke;"/><line x1="0" y1="-8" x2="0" y2="8" style="stroke-width: 1.25; stroke: rgb(255, 255, 255);"/><line x1="8" y1="0" x2="-8" y2="0" style="stroke-width: 1.25; stroke: rgb(255, 255, 255);"/></g></g><g><rect x="402.4" y="180" width="59" height="32" style="fill: rgb(51, 177, 255); stroke-width: 0; stroke: transparent; paint-order: stroke;"/><text x="431.9" y="193" dy=".3em" style="font-family: &quot;IBM Plex Sans&quot;, sans-serif; font-size: 16px; font-style: normal; fill: rgb(22, 22, 22); font-weight: 400; text-anchor: middle;">RZ</text><text x="431.9" y="206" dy=".3em" style="font-family: &quot;IBM Plex Mono&quot;, monospace; font-size: 8px; font-style: normal; fill: rgb(22, 22, 22); font-weight: 400; text-anchor: middle;">(pi / 4)</text></g><line x1="485.4" y1="76" x2="485.4" y2="196" style="stroke-width: 1; stroke: rgb(0, 45, 156);"/><circle r="4" cx="485.4" cy="76" style="fill: rgb(0, 45, 156);"/><g transform="translate(485.4, 196)"><g><circle cx="0" cy="0" r="16" style="fill: rgb(0, 45, 156); stroke-width: 0; stroke: transparent; paint-order: stroke;"/><line x1="0" y1="-8" x2="0" y2="8" style="stroke-width: 1.25; stroke: rgb(255, 255, 255);"/><line x1="8" y1="0" x2="-8" y2="0" style="stroke-width: 1.25; stroke: rgb(255, 255, 255);"/></g></g><g><rect x="511.9" y="60" width="59" height="32" style="fill: rgb(51, 177, 255); stroke-width: 0; stroke: transparent; paint-order: stroke;"/><text x="541.4" y="73" dy=".3em" style="font-family: &quot;IBM Plex Sans&quot;, sans-serif; font-size: 16px; font-style: normal; fill: rgb(22, 22, 22); font-weight: 400; text-anchor: middle;">RZ</text><text x="541.4" y="86" dy=".3em" style="font-family: &quot;IBM Plex Mono&quot;, monospace; font-size: 8px; font-style: normal; fill: rgb(22, 22, 22); font-weight: 400; text-anchor: middle;">(pi / 4)</text></g><g><rect x="509.4" y="180" width="64" height="32" style="fill: rgb(51, 177, 255); stroke-width: 0; stroke: transparent; paint-order: stroke;"/><text x="541.4" y="193" dy=".3em" style="font-family: &quot;IBM Plex Sans&quot;, sans-serif; font-size: 16px; font-style: normal; fill: rgb(22, 22, 22); font-weight: 400; text-anchor: middle;">RZ</text><text x="541.4" y="206" dy=".3em" style="font-family: &quot;IBM Plex Mono&quot;, monospace; font-size: 8px; font-style: normal; fill: rgb(22, 22, 22); font-weight: 400; text-anchor: middle;">(-pi / 4)</text></g><line x1="597.4" y1="36" x2="597.4" y2="196" style="stroke-width: 1; stroke: rgb(0, 45, 156);"/><circle r="4" cx="597.4" cy="36" style="fill: rgb(0, 45, 156);"/><g transform="translate(597.4, 196)"><g><circle cx="0" cy="0" r="16" style="fill: rgb(0, 45, 156); stroke-width: 0; stroke: transparent; paint-order: stroke;"/><line x1="0" y1="-8" x2="0" y2="8" style="stroke-width: 1.25; stroke: rgb(255, 255, 255);"/><line x1="8" y1="0" x2="-8" y2="0" style="stroke-width: 1.25; stroke: rgb(255, 255, 255);"/></g></g><line x1="660.4" y1="36" x2="660.4" y2="76" style="stroke-width: 1; stroke: rgb(0, 45, 156);"/><circle r="4" cx="660.4" cy="36" style="fill: rgb(0, 45, 156);"/><g transform="translate(660.4, 76)"><g><circle cx="0" cy="0" r="16" style="fill: rgb(0, 45, 156); stroke-width: 0; stroke: transparent; paint-order: stroke;"/><line x1="0" y1="-8" x2="0" y2="8" style="stroke-width: 1.25; stroke: rgb(255, 255, 255);"/><line x1="8" y1="0" x2="-8" y2="0" style="stroke-width: 1.25; stroke: rgb(255, 255, 255);"/></g></g><g><rect x="621.4" y="180" width="78" height="32" style="fill: rgb(51, 177, 255); stroke-width: 0; stroke: transparent; paint-order: stroke;"/><text x="660.4" y="193" dy=".3em" style="font-family: &quot;IBM Plex Sans&quot;, sans-serif; font-size: 16px; font-style: normal; fill: rgb(22, 22, 22); font-weight: 400; text-anchor: middle;">RZ</text><text x="660.4" y="206" dy=".3em" style="font-family: &quot;IBM Plex Mono&quot;, monospace; font-size: 8px; font-style: normal; fill: rgb(22, 22, 22); font-weight: 400; text-anchor: middle;">(3 * pi / 4)</text></g><g><rect x="709.9" y="20" width="59" height="32" style="fill: rgb(51, 177, 255); stroke-width: 0; stroke: transparent; paint-order: stroke;"/><text x="739.4" y="33" dy=".3em" style="font-family: &quot;IBM Plex Sans&quot;, sans-serif; font-size: 16px; font-style: normal; fill: rgb(22, 22, 22); font-weight: 400; text-anchor: middle;">RZ</text><text x="739.4" y="46" dy=".3em" style="font-family: &quot;IBM Plex Mono&quot;, monospace; font-size: 8px; font-style: normal; fill: rgb(22, 22, 22); font-weight: 400; text-anchor: middle;">(pi / 2)</text></g><g><rect x="707.4" y="60" width="64" height="32" style="fill: rgb(51, 177, 255); stroke-width: 0; stroke: transparent; paint-order: stroke;"/><text x="739.4" y="73" dy=".3em" style="font-family: &quot;IBM Plex Sans&quot;, sans-serif; font-size: 16px; font-style: normal; fill: rgb(22, 22, 22); font-weight: 400; text-anchor: middle;">RZ</text><text x="739.4" y="86" dy=".3em" style="font-family: &quot;IBM Plex Mono&quot;, monospace; font-size: 8px; font-style: normal; fill: rgb(22, 22, 22); font-weight: 400; text-anchor: middle;">(-pi / 4)</text></g><g transform="translate(723.4, 180)"><rect x="0" y="0" width="32" height="32" style="fill: rgb(159, 24, 83); stroke-width: 0; stroke: transparent; paint-order: stroke;"/><path fill-rule="evenodd" clip-rule="evenodd" d="M12.4344 8H25.5V9.25H13.5656L12.0656 24.25H8.92123L8.42123 17.75H7V16.5H9.57877L10.0788 23H10.9344L12.4344 8Z" fill="#ffffff"/><text x="19" y="17" dy=".3em" style="font-family: &quot;IBM Plex Sans&quot;, sans-serif; font-size: 16px; font-style: normal; fill: rgb(255, 255, 255); font-weight: 400; text-anchor: middle;">X</text></g><line x1="818.4" y1="36" x2="818.4" y2="76" style="stroke-width: 1; stroke: rgb(0, 45, 156);"/><circle r="4" cx="818.4" cy="36" style="fill: rgb(0, 45, 156);"/><g transform="translate(818.4, 76)"><g><circle cx="0" cy="0" r="16" style="fill: rgb(0, 45, 156); stroke-width: 0; stroke: transparent; paint-order: stroke;"/><line x1="0" y1="-8" x2="0" y2="8" style="stroke-width: 1.25; stroke: rgb(255, 255, 255);"/><line x1="8" y1="0" x2="-8" y2="0" style="stroke-width: 1.25; stroke: rgb(255, 255, 255);"/></g></g><g><rect x="779.4" y="180" width="78" height="32" style="fill: rgb(51, 177, 255); stroke-width: 0; stroke: transparent; paint-order: stroke;"/><text x="818.4" y="193" dy=".3em" style="font-family: &quot;IBM Plex Sans&quot;, sans-serif; font-size: 16px; font-style: normal; fill: rgb(22, 22, 22); font-weight: 400; text-anchor: middle;">RZ</text><text x="818.4" y="206" dy=".3em" style="font-family: &quot;IBM Plex Mono&quot;, monospace; font-size: 8px; font-style: normal; fill: rgb(22, 22, 22); font-weight: 400; text-anchor: middle;">(3 * pi / 4)</text></g><line x1="881.4" y1="156" x2="881.4" y2="196" style="stroke-width: 1; stroke: rgb(0, 45, 156);"/><circle r="4" cx="881.4" cy="196" style="fill: rgb(0, 45, 156);"/><g transform="translate(881.4, 156)"><g><circle cx="0" cy="0" r="16" style="fill: rgb(0, 45, 156); stroke-width: 0; stroke: transparent; paint-order: stroke;"/><line x1="0" y1="-8" x2="0" y2="8" style="stroke-width: 1.25; stroke: rgb(255, 255, 255);"/><line x1="8" y1="0" x2="-8" y2="0" style="stroke-width: 1.25; stroke: rgb(255, 255, 255);"/></g></g><g><rect x="905.4" y="140" width="64" height="32" style="fill: rgb(51, 177, 255); stroke-width: 0; stroke: transparent; paint-order: stroke;"/><text x="937.4" y="153" dy=".3em" style="font-family: &quot;IBM Plex Sans&quot;, sans-serif; font-size: 16px; font-style: normal; fill: rgb(22, 22, 22); font-weight: 400; text-anchor: middle;">RZ</text><text x="937.4" y="166" dy=".3em" style="font-family: &quot;IBM Plex Mono&quot;, monospace; font-size: 8px; font-style: normal; fill: rgb(22, 22, 22); font-weight: 400; text-anchor: middle;">(-pi / 4)</text></g><line x1="993.4" y1="116" x2="993.4" y2="156" style="stroke-width: 1; stroke: rgb(0, 45, 156);"/><circle r="4" cx="993.4" cy="116" style="fill: rgb(0, 45, 156);"/><g transform="translate(993.4, 156)"><g><circle cx="0" cy="0" r="16" style="fill: rgb(0, 45, 156); stroke-width: 0; stroke: transparent; paint-order: stroke;"/><line x1="0" y1="-8" x2="0" y2="8" style="stroke-width: 1.25; stroke: rgb(255, 255, 255);"/><line x1="8" y1="0" x2="-8" y2="0" style="stroke-width: 1.25; stroke: rgb(255, 255, 255);"/></g></g><g><rect x="1017.4000000000001" y="140" width="59" height="32" style="fill: rgb(51, 177, 255); stroke-width: 0; stroke: transparent; paint-order: stroke;"/><text x="1046.9" y="153" dy=".3em" style="font-family: &quot;IBM Plex Sans&quot;, sans-serif; font-size: 16px; font-style: normal; fill: rgb(22, 22, 22); font-weight: 400; text-anchor: middle;">RZ</text><text x="1046.9" y="166" dy=".3em" style="font-family: &quot;IBM Plex Mono&quot;, monospace; font-size: 8px; font-style: normal; fill: rgb(22, 22, 22); font-weight: 400; text-anchor: middle;">(pi / 4)</text></g><line x1="1100.4" y1="156" x2="1100.4" y2="196" style="stroke-width: 1; stroke: rgb(0, 45, 156);"/><circle r="4" cx="1100.4" cy="196" style="fill: rgb(0, 45, 156);"/><g transform="translate(1100.4, 156)"><g><circle cx="0" cy="0" r="16" style="fill: rgb(0, 45, 156); stroke-width: 0; stroke: transparent; paint-order: stroke;"/><line x1="0" y1="-8" x2="0" y2="8" style="stroke-width: 1.25; stroke: rgb(255, 255, 255);"/><line x1="8" y1="0" x2="-8" y2="0" style="stroke-width: 1.25; stroke: rgb(255, 255, 255);"/></g></g><g><rect x="1124.4" y="140" width="64" height="32" style="fill: rgb(51, 177, 255); stroke-width: 0; stroke: transparent; paint-order: stroke;"/><text x="1156.4" y="153" dy=".3em" style="font-family: &quot;IBM Plex Sans&quot;, sans-serif; font-size: 16px; font-style: normal; fill: rgb(22, 22, 22); font-weight: 400; text-anchor: middle;">RZ</text><text x="1156.4" y="166" dy=".3em" style="font-family: &quot;IBM Plex Mono&quot;, monospace; font-size: 8px; font-style: normal; fill: rgb(22, 22, 22); font-weight: 400; text-anchor: middle;">(-pi / 4)</text></g><line x1="1212.4" y1="116" x2="1212.4" y2="156" style="stroke-width: 1; stroke: rgb(0, 45, 156);"/><circle r="4" cx="1212.4" cy="116" style="fill: rgb(0, 45, 156);"/><g transform="translate(1212.4, 156)"><g><circle cx="0" cy="0" r="16" style="fill: rgb(0, 45, 156); stroke-width: 0; stroke: transparent; paint-order: stroke;"/><line x1="0" y1="-8" x2="0" y2="8" style="stroke-width: 1.25; stroke: rgb(255, 255, 255);"/><line x1="8" y1="0" x2="-8" y2="0" style="stroke-width: 1.25; stroke: rgb(255, 255, 255);"/></g></g><line x1="1252.4" y1="116" x2="1252.4" y2="196" style="stroke-width: 1; stroke: rgb(0, 45, 156);"/><circle r="4" cx="1252.4" cy="116" style="fill: rgb(0, 45, 156);"/><g transform="translate(1252.4, 196)"><g><circle cx="0" cy="0" r="16" style="fill: rgb(0, 45, 156); stroke-width: 0; stroke: transparent; paint-order: stroke;"/><line x1="0" y1="-8" x2="0" y2="8" style="stroke-width: 1.25; stroke: rgb(255, 255, 255);"/><line x1="8" y1="0" x2="-8" y2="0" style="stroke-width: 1.25; stroke: rgb(255, 255, 255);"/></g></g><g><rect x="1276.4" y="140" width="78" height="32" style="fill: rgb(51, 177, 255); stroke-width: 0; stroke: transparent; paint-order: stroke;"/><text x="1315.4" y="153" dy=".3em" style="font-family: &quot;IBM Plex Sans&quot;, sans-serif; font-size: 16px; font-style: normal; fill: rgb(22, 22, 22); font-weight: 400; text-anchor: middle;">RZ</text><text x="1315.4" y="166" dy=".3em" style="font-family: &quot;IBM Plex Mono&quot;, monospace; font-size: 8px; font-style: normal; fill: rgb(22, 22, 22); font-weight: 400; text-anchor: middle;">(3 * pi / 4)</text></g><g><rect x="1285.9" y="100" width="59" height="32" style="fill: rgb(51, 177, 255); stroke-width: 0; stroke: transparent; paint-order: stroke;"/><text x="1315.4" y="113" dy=".3em" style="font-family: &quot;IBM Plex Sans&quot;, sans-serif; font-size: 16px; font-style: normal; fill: rgb(22, 22, 22); font-weight: 400; text-anchor: middle;">RZ</text><text x="1315.4" y="126" dy=".3em" style="font-family: &quot;IBM Plex Mono&quot;, monospace; font-size: 8px; font-style: normal; fill: rgb(22, 22, 22); font-weight: 400; text-anchor: middle;">(pi / 4)</text></g><g><rect x="1283.4" y="180" width="64" height="32" style="fill: rgb(51, 177, 255); stroke-width: 0; stroke: transparent; paint-order: stroke;"/><text x="1315.4" y="193" dy=".3em" style="font-family: &quot;IBM Plex Sans&quot;, sans-serif; font-size: 16px; font-style: normal; fill: rgb(22, 22, 22); font-weight: 400; text-anchor: middle;">RZ</text><text x="1315.4" y="206" dy=".3em" style="font-family: &quot;IBM Plex Mono&quot;, monospace; font-size: 8px; font-style: normal; fill: rgb(22, 22, 22); font-weight: 400; text-anchor: middle;">(-pi / 4)</text></g><g transform="translate(1362.4, 140)"><rect x="0" y="0" width="32" height="32" style="fill: rgb(159, 24, 83); stroke-width: 0; stroke: transparent; paint-order: stroke;"/><path fill-rule="evenodd" clip-rule="evenodd" d="M12.4344 8H25.5V9.25H13.5656L12.0656 24.25H8.92123L8.42123 17.75H7V16.5H9.57877L10.0788 23H10.9344L12.4344 8Z" fill="#ffffff"/><text x="19" y="17" dy=".3em" style="font-family: &quot;IBM Plex Sans&quot;, sans-serif; font-size: 16px; font-style: normal; fill: rgb(255, 255, 255); font-weight: 400; text-anchor: middle;">X</text></g><line x1="1418.4" y1="116" x2="1418.4" y2="196" style="stroke-width: 1; stroke: rgb(0, 45, 156);"/><circle r="4" cx="1418.4" cy="116" style="fill: rgb(0, 45, 156);"/><g transform="translate(1418.4, 196)"><g><circle cx="0" cy="0" r="16" style="fill: rgb(0, 45, 156); stroke-width: 0; stroke: transparent; paint-order: stroke;"/><line x1="0" y1="-8" x2="0" y2="8" style="stroke-width: 1.25; stroke: rgb(255, 255, 255);"/><line x1="8" y1="0" x2="-8" y2="0" style="stroke-width: 1.25; stroke: rgb(255, 255, 255);"/></g></g><g><rect x="1442.4" y="140" width="59" height="32" style="fill: rgb(51, 177, 255); stroke-width: 0; stroke: transparent; paint-order: stroke;"/><text x="1471.9" y="153" dy=".3em" style="font-family: &quot;IBM Plex Sans&quot;, sans-serif; font-size: 16px; font-style: normal; fill: rgb(22, 22, 22); font-weight: 400; text-anchor: middle;">RZ</text><text x="1471.9" y="166" dy=".3em" style="font-family: &quot;IBM Plex Mono&quot;, monospace; font-size: 8px; font-style: normal; fill: rgb(22, 22, 22); font-weight: 400; text-anchor: middle;">(pi / 2)</text></g><g><rect x="1442.4" y="180" width="59" height="32" style="fill: rgb(51, 177, 255); stroke-width: 0; stroke: transparent; paint-order: stroke;"/><text x="1471.9" y="193" dy=".3em" style="font-family: &quot;IBM Plex Sans&quot;, sans-serif; font-size: 16px; font-style: normal; fill: rgb(22, 22, 22); font-weight: 400; text-anchor: middle;">RZ</text><text x="1471.9" y="206" dy=".3em" style="font-family: &quot;IBM Plex Mono&quot;, monospace; font-size: 8px; font-style: normal; fill: rgb(22, 22, 22); font-weight: 400; text-anchor: middle;">(pi / 2)</text></g><g transform="translate(1509.4, 180)"><rect x="0" y="0" width="32" height="32" style="fill: rgb(159, 24, 83); stroke-width: 0; stroke: transparent; paint-order: stroke;"/><path fill-rule="evenodd" clip-rule="evenodd" d="M12.4344 8H25.5V9.25H13.5656L12.0656 24.25H8.92123L8.42123 17.75H7V16.5H9.57877L10.0788 23H10.9344L12.4344 8Z" fill="#ffffff"/><text x="19" y="17" dy=".3em" style="font-family: &quot;IBM Plex Sans&quot;, sans-serif; font-size: 16px; font-style: normal; fill: rgb(255, 255, 255); font-weight: 400; text-anchor: middle;">X</text></g><g><rect x="1549.4" y="180" width="59" height="32" style="fill: rgb(51, 177, 255); stroke-width: 0; stroke: transparent; paint-order: stroke;"/><text x="1578.9" y="193" dy=".3em" style="font-family: &quot;IBM Plex Sans&quot;, sans-serif; font-size: 16px; font-style: normal; fill: rgb(22, 22, 22); font-weight: 400; text-anchor: middle;">RZ</text><text x="1578.9" y="206" dy=".3em" style="font-family: &quot;IBM Plex Mono&quot;, monospace; font-size: 8px; font-style: normal; fill: rgb(22, 22, 22); font-weight: 400; text-anchor: middle;">(pi / 2)</text></g><line x1="1632.4" y1="76" x2="1632.4" y2="196" style="stroke-width: 1; stroke: rgb(0, 45, 156);"/><circle r="4" cx="1632.4" cy="76" style="fill: rgb(0, 45, 156);"/><g transform="translate(1632.4, 196)"><g><circle cx="0" cy="0" r="16" style="fill: rgb(0, 45, 156); stroke-width: 0; stroke: transparent; paint-order: stroke;"/><line x1="0" y1="-8" x2="0" y2="8" style="stroke-width: 1.25; stroke: rgb(255, 255, 255);"/><line x1="8" y1="0" x2="-8" y2="0" style="stroke-width: 1.25; stroke: rgb(255, 255, 255);"/></g></g><g><rect x="1656.4" y="180" width="64" height="32" style="fill: rgb(51, 177, 255); stroke-width: 0; stroke: transparent; paint-order: stroke;"/><text x="1688.4" y="193" dy=".3em" style="font-family: &quot;IBM Plex Sans&quot;, sans-serif; font-size: 16px; font-style: normal; fill: rgb(22, 22, 22); font-weight: 400; text-anchor: middle;">RZ</text><text x="1688.4" y="206" dy=".3em" style="font-family: &quot;IBM Plex Mono&quot;, monospace; font-size: 8px; font-style: normal; fill: rgb(22, 22, 22); font-weight: 400; text-anchor: middle;">(-pi / 4)</text></g><line x1="1744.4" y1="36" x2="1744.4" y2="196" style="stroke-width: 1; stroke: rgb(0, 45, 156);"/><circle r="4" cx="1744.4" cy="36" style="fill: rgb(0, 45, 156);"/><g transform="translate(1744.4, 196)"><g><circle cx="0" cy="0" r="16" style="fill: rgb(0, 45, 156); stroke-width: 0; stroke: transparent; paint-order: stroke;"/><line x1="0" y1="-8" x2="0" y2="8" style="stroke-width: 1.25; stroke: rgb(255, 255, 255);"/><line x1="8" y1="0" x2="-8" y2="0" style="stroke-width: 1.25; stroke: rgb(255, 255, 255);"/></g></g><g><rect x="1768.4" y="180" width="59" height="32" style="fill: rgb(51, 177, 255); stroke-width: 0; stroke: transparent; paint-order: stroke;"/><text x="1797.9" y="193" dy=".3em" style="font-family: &quot;IBM Plex Sans&quot;, sans-serif; font-size: 16px; font-style: normal; fill: rgb(22, 22, 22); font-weight: 400; text-anchor: middle;">RZ</text><text x="1797.9" y="206" dy=".3em" style="font-family: &quot;IBM Plex Mono&quot;, monospace; font-size: 8px; font-style: normal; fill: rgb(22, 22, 22); font-weight: 400; text-anchor: middle;">(pi / 4)</text></g><line x1="1851.4" y1="76" x2="1851.4" y2="196" style="stroke-width: 1; stroke: rgb(0, 45, 156);"/><circle r="4" cx="1851.4" cy="76" style="fill: rgb(0, 45, 156);"/><g transform="translate(1851.4, 196)"><g><circle cx="0" cy="0" r="16" style="fill: rgb(0, 45, 156); stroke-width: 0; stroke: transparent; paint-order: stroke;"/><line x1="0" y1="-8" x2="0" y2="8" style="stroke-width: 1.25; stroke: rgb(255, 255, 255);"/><line x1="8" y1="0" x2="-8" y2="0" style="stroke-width: 1.25; stroke: rgb(255, 255, 255);"/></g></g><g><rect x="1877.9" y="60" width="59" height="32" style="fill: rgb(51, 177, 255); stroke-width: 0; stroke: transparent; paint-order: stroke;"/><text x="1907.4" y="73" dy=".3em" style="font-family: &quot;IBM Plex Sans&quot;, sans-serif; font-size: 16px; font-style: normal; fill: rgb(22, 22, 22); font-weight: 400; text-anchor: middle;">RZ</text><text x="1907.4" y="86" dy=".3em" style="font-family: &quot;IBM Plex Mono&quot;, monospace; font-size: 8px; font-style: normal; fill: rgb(22, 22, 22); font-weight: 400; text-anchor: middle;">(pi / 4)</text></g><g><rect x="1875.4" y="180" width="64" height="32" style="fill: rgb(51, 177, 255); stroke-width: 0; stroke: transparent; paint-order: stroke;"/><text x="1907.4" y="193" dy=".3em" style="font-family: &quot;IBM Plex Sans&quot;, sans-serif; font-size: 16px; font-style: normal; fill: rgb(22, 22, 22); font-weight: 400; text-anchor: middle;">RZ</text><text x="1907.4" y="206" dy=".3em" style="font-family: &quot;IBM Plex Mono&quot;, monospace; font-size: 8px; font-style: normal; fill: rgb(22, 22, 22); font-weight: 400; text-anchor: middle;">(-pi / 4)</text></g><line x1="1963.4" y1="36" x2="1963.4" y2="196" style="stroke-width: 1; stroke: rgb(0, 45, 156);"/><circle r="4" cx="1963.4" cy="36" style="fill: rgb(0, 45, 156);"/><g transform="translate(1963.4, 196)"><g><circle cx="0" cy="0" r="16" style="fill: rgb(0, 45, 156); stroke-width: 0; stroke: transparent; paint-order: stroke;"/><line x1="0" y1="-8" x2="0" y2="8" style="stroke-width: 1.25; stroke: rgb(255, 255, 255);"/><line x1="8" y1="0" x2="-8" y2="0" style="stroke-width: 1.25; stroke: rgb(255, 255, 255);"/></g></g><line x1="2026.4" y1="36" x2="2026.4" y2="76" style="stroke-width: 1; stroke: rgb(0, 45, 156);"/><circle r="4" cx="2026.4" cy="36" style="fill: rgb(0, 45, 156);"/><g transform="translate(2026.4, 76)"><g><circle cx="0" cy="0" r="16" style="fill: rgb(0, 45, 156); stroke-width: 0; stroke: transparent; paint-order: stroke;"/><line x1="0" y1="-8" x2="0" y2="8" style="stroke-width: 1.25; stroke: rgb(255, 255, 255);"/><line x1="8" y1="0" x2="-8" y2="0" style="stroke-width: 1.25; stroke: rgb(255, 255, 255);"/></g></g><g><rect x="1987.4" y="180" width="78" height="32" style="fill: rgb(51, 177, 255); stroke-width: 0; stroke: transparent; paint-order: stroke;"/><text x="2026.4" y="193" dy=".3em" style="font-family: &quot;IBM Plex Sans&quot;, sans-serif; font-size: 16px; font-style: normal; fill: rgb(22, 22, 22); font-weight: 400; text-anchor: middle;">RZ</text><text x="2026.4" y="206" dy=".3em" style="font-family: &quot;IBM Plex Mono&quot;, monospace; font-size: 8px; font-style: normal; fill: rgb(22, 22, 22); font-weight: 400; text-anchor: middle;">(3 * pi / 4)</text></g><g><rect x="2073.4" y="60" width="64" height="32" style="fill: rgb(51, 177, 255); stroke-width: 0; stroke: transparent; paint-order: stroke;"/><text x="2105.4" y="73" dy=".3em" style="font-family: &quot;IBM Plex Sans&quot;, sans-serif; font-size: 16px; font-style: normal; fill: rgb(22, 22, 22); font-weight: 400; text-anchor: middle;">RZ</text><text x="2105.4" y="86" dy=".3em" style="font-family: &quot;IBM Plex Mono&quot;, monospace; font-size: 8px; font-style: normal; fill: rgb(22, 22, 22); font-weight: 400; text-anchor: middle;">(-pi / 4)</text></g><g transform="translate(2089.4, 180)"><rect x="0" y="0" width="32" height="32" style="fill: rgb(159, 24, 83); stroke-width: 0; stroke: transparent; paint-order: stroke;"/><path fill-rule="evenodd" clip-rule="evenodd" d="M12.4344 8H25.5V9.25H13.5656L12.0656 24.25H8.92123L8.42123 17.75H7V16.5H9.57877L10.0788 23H10.9344L12.4344 8Z" fill="#ffffff"/><text x="19" y="17" dy=".3em" style="font-family: &quot;IBM Plex Sans&quot;, sans-serif; font-size: 16px; font-style: normal; fill: rgb(255, 255, 255); font-weight: 400; text-anchor: middle;">X</text></g><line x1="2174.9" y1="36" x2="2174.9" y2="76" style="stroke-width: 1; stroke: rgb(0, 45, 156);"/><circle r="4" cx="2174.9" cy="36" style="fill: rgb(0, 45, 156);"/><g transform="translate(2174.9, 76)"><g><circle cx="0" cy="0" r="16" style="fill: rgb(0, 45, 156); stroke-width: 0; stroke: transparent; paint-order: stroke;"/><line x1="0" y1="-8" x2="0" y2="8" style="stroke-width: 1.25; stroke: rgb(255, 255, 255);"/><line x1="8" y1="0" x2="-8" y2="0" style="stroke-width: 1.25; stroke: rgb(255, 255, 255);"/></g></g><g><rect x="2145.4" y="180" width="59" height="32" style="fill: rgb(51, 177, 255); stroke-width: 0; stroke: transparent; paint-order: stroke;"/><text x="2174.9" y="193" dy=".3em" style="font-family: &quot;IBM Plex Sans&quot;, sans-serif; font-size: 16px; font-style: normal; fill: rgb(22, 22, 22); font-weight: 400; text-anchor: middle;">RZ</text><text x="2174.9" y="206" dy=".3em" style="font-family: &quot;IBM Plex Mono&quot;, monospace; font-size: 8px; font-style: normal; fill: rgb(22, 22, 22); font-weight: 400; text-anchor: middle;">(pi / 2)</text></g></g></svg>