<svg xmlns="http://www.w3.org/2000/svg" class="" viewBox="0 0 2565.4 240" width="2565.4" height="240" aria-label="Circuit visualization" style="display: block; user-select: none;"><defs xmlns="http://www.w3.org/1999/xhtml"><style type="text/css">&lt;!--/*--&gt;&lt;![CDATA[/*&gt;&lt;!--*/

  /* from https://fonts.googleapis.com/css2?family=IBM+Plex+Sans&amp;display=swap */
  @font-face {
    font-family: 'IBM Plex Sans';
    font-style: normal;
    font-weight: 400;
    font-display: swap;
    src: url(https://fonts.gstatic.com/s/ibmplexsans/v14/zYXgKVElMYYaJe8bpLHnCwDKhdHeFaxOedc.woff2) format('woff2');
  }
  
  /* from https://fonts.googleapis.com/css2?family=IBM+Plex+Mono&amp;display=swap */
  @font-face {
    font-family: 'IBM Plex Mono';
    font-style: normal;
    font-weight: 400;
    font-display: swap;
    src: url(https://fonts.gstatic.com/s/ibmplexmono/v12/-F63fjptAgt5VM-kVkqdyU8n1i8q131nj-o.woff2) format('woff2');
  }    

/*]]&gt;*/--&gt;</style></defs><rect x="0" y="0" width="2565.4" height="240" style="fill: rgb(255, 255, 255);"/><g><g transform="translate(20, 0)"><g><g><text x="38.4" y="36" dy=".3em" style="fill: rgb(111, 111, 111); font-family: &quot;IBM Plex Mono&quot;, monospace; font-weight: 400; text-anchor: end; font-size: 14px;"><tspan>q[0]</tspan></text><text x="38.4" y="76" dy=".3em" style="fill: rgb(111, 111, 111); font-family: &quot;IBM Plex Mono&quot;, monospace; font-weight: 400; text-anchor: end; font-size: 14px;"><tspan>q[1]</tspan></text><text x="38.4" y="116" dy=".3em" style="fill: rgb(111, 111, 111); font-family: &quot;IBM Plex Mono&quot;, monospace; font-weight: 400; text-anchor: end; font-size: 14px;"><tspan>q[2]</tspan></text><text x="38.4" y="156" dy=".3em" style="fill: rgb(111, 111, 111); font-family: &quot;IBM Plex Mono&quot;, monospace; font-weight: 400; text-anchor: end; font-size: 14px;"><tspan>q[3]</tspan></text><text x="38.4" y="196" dy=".3em" style="fill: rgb(111, 111, 111); font-family: &quot;IBM Plex Mono&quot;, monospace; font-weight: 400; text-anchor: end; font-size: 14px;"><tspan>q[4]</tspan></text></g><g/></g></g><g><g><line x1="68.4" x2="2545.4" y1="36" y2="36" style="fill: none; stroke: rgb(224, 224, 224); stroke-width: 1; stroke-linecap: round;"/><line x1="68.4" x2="2545.4" y1="76" y2="76" style="fill: none; stroke: rgb(224, 224, 224); stroke-width: 1; stroke-linecap: round;"/><line x1="68.4" x2="2545.4" y1="116" y2="116" style="fill: none; stroke: rgb(224, 224, 224); stroke-width: 1; stroke-linecap: round;"/><line x1="68.4" x2="2545.4" y1="156" y2="156" style="fill: none; stroke: rgb(224, 224, 224); stroke-width: 1; stroke-linecap: round;"/><line x1="68.4" x2="2545.4" y1="196" y2="196" style="fill: none; stroke: rgb(224, 224, 224); stroke-width: 1; stroke-linecap: round;"/></g></g><g><rect x="76.4" y="180" width="59" height="32" style="fill: rgb(51, 177, 255); stroke-width: 0; stroke: transparent; paint-order: stroke;"/><text x="105.9" y="193" dy=".3em" style="font-family: &quot;IBM Plex Sans&quot;, sans-serif; font-size: 16px; font-style: normal; fill: rgb(22, 22, 22); font-weight: 400; text-anchor: middle;">RZ</text><text x="105.9" y="206" dy=".3em" style="font-family: &quot;IBM Plex Mono&quot;, monospace; font-size: 8px; font-style: normal; fill: rgb(22, 22, 22); font-weight: 400; text-anchor: middle;">(pi / 2)</text></g><g transform="translate(143.4, 180)"><rect x="0" y="0" width="32" height="32" style="fill: rgb(159, 24, 83); stroke-width: 0; stroke: transparent; paint-order: stroke;"/><path fill-rule="evenodd" clip-rule="evenodd" d="M12.4344 8H25.5V9.25H13.5656L12.0656 24.25H8.92123L8.42123 17.75H7V16.5H9.57877L10.0788 23H10.9344L12.4344 8Z" fill="#ffffff"/><text x="19" y="17" dy=".3em" style="font-family: &quot;IBM Plex Sans&quot;, sans-serif; font-size: 16px; font-style: normal; fill: rgb(255, 255, 255); font-weight: 400; text-anchor: middle;">X</text></g><g><rect x="183.4" y="180" width="59" height="32" style="fill: rgb(51, 177, 255); stroke-width: 0; stroke: transparent; paint-order: stroke;"/><text x="212.9" y="193" dy=".3em" style="font-family: &quot;IBM Plex Sans&quot;, sans-serif; font-size: 16px; font-style: normal; fill: rgb(22, 22, 22); font-weight: 400; text-anchor: middle;">RZ</text><text x="212.9" y="206" dy=".3em" style="font-family: &quot;IBM Plex Mono&quot;, monospace; font-size: 8px; font-style: normal; fill: rgb(22, 22, 22); font-weight: 400; text-anchor: middle;">(pi / 2)</text></g><line x1="266.4" y1="156" x2="266.4" y2="196" style="stroke-width: 1; stroke: rgb(0, 45, 156);"/><circle r="4" cx="266.4" cy="156" style="fill: rgb(0, 45, 156);"/><g transform="translate(266.4, 196)"><g><circle cx="0" cy="0" r="16" style="fill: rgb(0, 45, 156); stroke-width: 0; stroke: transparent; paint-order: stroke;"/><line x1="0" y1="-8" x2="0" y2="8" style="stroke-width: 1.25; stroke: rgb(255, 255, 255);"/><line x1="8" y1="0" x2="-8" y2="0" style="stroke-width: 1.25; stroke: rgb(255, 255, 255);"/></g></g><g><rect x="290.4" y="180" width="64" height="32" style="fill: rgb(51, 177, 255); stroke-width: 0; stroke: transparent; paint-order: stroke;"/><text x="322.4" y="193" dy=".3em" style="font-family: &quot;IBM Plex Sans&quot;, sans-serif; font-size: 16px; font-style: normal; fill: rgb(22, 22, 22); font-weight: 400; text-anchor: middle;">RZ</text><text x="322.4" y="206" dy=".3em" style="font-family: &quot;IBM Plex Mono&quot;, monospace; font-size: 8px; font-style: normal; fill: rgb(22, 22, 22); font-weight: 400; text-anchor: middle;">(-pi / 4)</text></g><line x1="378.4" y1="116" x2="378.4" y2="196" style="stroke-width: 1; stroke: rgb(0, 45, 156);"/><circle r="4" cx="378.4" cy="116" style="fill: rgb(0, 45, 156);"/><g transform="translate(378.4, 196)"><g><circle cx="0" cy="0" r="16" style="fill: rgb(0, 45, 156); stroke-width: 0; stroke: transparent; paint-order: stroke;"/><line x1="0" y1="-8" x2="0" y2="8" style="stroke-width: 1.25; stroke: rgb(255, 255, 255);"/><line x1="8" y1="0" x2="-8" y2="0" style="stroke-width: 1.25; stroke: rgb(255, 255, 255);"/></g></g><g><rect x="402.4" y="180" width="59" height="32" style="fill: rgb(51, 177, 255); stroke-width: 0; stroke: transparent; paint-order: stroke;"/><text x="431.9" y="193" dy=".3em" style="font-family: &quot;IBM Plex Sans&quot;, sans-serif; font-size: 16px; font-style: normal; fill: rgb(22, 22, 22); font-weight: 400; text-anchor: middle;">RZ</text><text x="431.9" y="206" dy=".3em" style="font-family: &quot;IBM Plex Mono&quot;, monospace; font-size: 8px; font-style: normal; fill: rgb(22, 22, 22); font-weight: 400; text-anchor: middle;">(pi / 4)</text></g><line x1="485.4" y1="156" x2="485.4" y2="196" style="stroke-width: 1; stroke: rgb(0, 45, 156);"/><circle r="4" cx="485.4" cy="156" style="fill: rgb(0, 45, 156);"/><g transform="translate(485.4, 196)"><g><circle cx="0" cy="0" r="16" style="fill: rgb(0, 45, 156); stroke-width: 0; stroke: transparent; paint-order: stroke;"/><line x1="0" y1="-8" x2="0" y2="8" style="stroke-width: 1.25; stroke: rgb(255, 255, 255);"/><line x1="8" y1="0" x2="-8" y2="0" style="stroke-width: 1.25; stroke: rgb(255, 255, 255);"/></g></g><g><rect x="511.9" y="140" width="59" height="32" style="fill: rgb(51, 177, 255); stroke-width: 0; stroke: transparent; paint-order: stroke;"/><text x="541.4" y="153" dy=".3em" style="font-family: &quot;IBM Plex Sans&quot;, sans-serif; font-size: 16px; font-style: normal; fill: rgb(22, 22, 22); font-weight: 400; text-anchor: middle;">RZ</text><text x="541.4" y="166" dy=".3em" style="font-family: &quot;IBM Plex Mono&quot;, monospace; font-size: 8px; font-style: normal; fill: rgb(22, 22, 22); font-weight: 400; text-anchor: middle;">(pi / 4)</text></g><g><rect x="509.4" y="180" width="64" height="32" style="fill: rgb(51, 177, 255); stroke-width: 0; stroke: transparent; paint-order: stroke;"/><text x="541.4" y="193" dy=".3em" style="font-family: &quot;IBM Plex Sans&quot;, sans-serif; font-size: 16px; font-style: normal; fill: rgb(22, 22, 22); font-weight: 400; text-anchor: middle;">RZ</text><text x="541.4" y="206" dy=".3em" style="font-family: &quot;IBM Plex Mono&quot;, monospace; font-size: 8px; font-style: normal; fill: rgb(22, 22, 22); font-weight: 400; text-anchor: middle;">(-pi / 4)</text></g><line x1="597.4" y1="116" x2="597.4" y2="196" style="stroke-width: 1; stroke: rgb(0, 45, 156);"/><circle r="4" cx="597.4" cy="116" style="fill: rgb(0, 45, 156);"/><g transform="translate(597.4, 196)"><g><circle cx="0" cy="0" r="16" style="fill: rgb(0, 45, 156); stroke-width: 0; stroke: transparent; paint-order: stroke;"/><line x1="0" y1="-8" x2="0" y2="8" style="stroke-width: 1.25; stroke: rgb(255, 255, 255);"/><line x1="8" y1="0" x2="-8" y2="0" style="stroke-width: 1.25; stroke: rgb(255, 255, 255);"/></g></g><line x1="650.9" y1="116" x2="650.9" y2="156" style="stroke-width: 1; stroke: rgb(0, 45, 156);"/><circle r="4" cx="650.9" cy="116" style="fill: rgb(0, 45, 156);"/><g transform="translate(650.9, 156)"><g><circle cx="0" cy="0" r="16" style="fill: rgb(0, 45, 156); stroke-width: 0; stroke: transparent; paint-order: stroke;"/><line x1="0" y1="-8" x2="0" y2="8" style="stroke-width: 1.25; stroke: rgb(255, 255, 255);"/><line x1="8" y1="0" x2="-8" y2="0" style="stroke-width: 1.25; stroke: rgb(255, 255, 255);"/></g></g><g><rect x="621.4" y="180" width="59" height="32" style="fill: rgb(51, 177, 255); stroke-width: 0; stroke: transparent; paint-order: stroke;"/><text x="650.9" y="193" dy=".3em" style="font-family: &quot;IBM Plex Sans&quot;, sans-serif; font-size: 16px; font-style: normal; fill: rgb(22, 22, 22); font-weight: 400; text-anchor: middle;">RZ</text><text x="650.9" y="206" dy=".3em" style="font-family: &quot;IBM Plex Mono&quot;, monospace; font-size: 8px; font-style: normal; fill: rgb(22, 22, 22); font-weight: 400; text-anchor: middle;">(pi / 4)</text></g><g><rect x="690.9" y="100" width="59" height="32" style="fill: rgb(51, 177, 255); stroke-width: 0; stroke: transparent; paint-order: stroke;"/><text x="720.4" y="113" dy=".3em" style="font-family: &quot;IBM Plex Sans&quot;, sans-serif; font-size: 16px; font-style: normal; fill: rgb(22, 22, 22); font-weight: 400; text-anchor: middle;">RZ</text><text x="720.4" y="126" dy=".3em" style="font-family: &quot;IBM Plex Mono&quot;, monospace; font-size: 8px; font-style: normal; fill: rgb(22, 22, 22); font-weight: 400; text-anchor: middle;">(pi / 2)</text></g><g><rect x="688.4" y="140" width="64" height="32" style="fill: rgb(51, 177, 255); stroke-width: 0; stroke: transparent; paint-order: stroke;"/><text x="720.4" y="153" dy=".3em" style="font-family: &quot;IBM Plex Sans&quot;, sans-serif; font-size: 16px; font-style: normal; fill: rgb(22, 22, 22); font-weight: 400; text-anchor: middle;">RZ</text><text x="720.4" y="166" dy=".3em" style="font-family: &quot;IBM Plex Mono&quot;, monospace; font-size: 8px; font-style: normal; fill: rgb(22, 22, 22); font-weight: 400; text-anchor: middle;">(-pi / 4)</text></g><line x1="776.4" y1="116" x2="776.4" y2="156" style="stroke-width: 1; stroke: rgb(0, 45, 156);"/><circle r="4" cx="776.4" cy="116" style="fill: rgb(0, 45, 156);"/><g transform="translate(776.4, 156)"><g><circle cx="0" cy="0" r="16" style="fill: rgb(0, 45, 156); stroke-width: 0; stroke: transparent; paint-order: stroke;"/><line x1="0" y1="-8" x2="0" y2="8" style="stroke-width: 1.25; stroke: rgb(255, 255, 255);"/><line x1="8" y1="0" x2="-8" y2="0" style="stroke-width: 1.25; stroke: rgb(255, 255, 255);"/></g></g><g><rect x="800.4" y="140" width="59" height="32" style="fill: rgb(51, 177, 255); stroke-width: 0; stroke: transparent; paint-order: stroke;"/><text x="829.9" y="153" dy=".3em" style="font-family: &quot;IBM Plex Sans&quot;, sans-serif; font-size: 16px; font-style: normal; fill: rgb(22, 22, 22); font-weight: 400; text-anchor: middle;">RZ</text><text x="829.9" y="166" dy=".3em" style="font-family: &quot;IBM Plex Mono&quot;, monospace; font-size: 8px; font-style: normal; fill: rgb(22, 22, 22); font-weight: 400; text-anchor: middle;">(pi / 2)</text></g><g transform="translate(867.4, 140)"><rect x="0" y="0" width="32" height="32" style="fill: rgb(159, 24, 83); stroke-width: 0; stroke: transparent; paint-order: stroke;"/><path fill-rule="evenodd" clip-rule="evenodd" d="M12.4344 8H25.5V9.25H13.5656L12.0656 24.25H8.92123L8.42123 17.75H7V16.5H9.57877L10.0788 23H10.9344L12.4344 8Z" fill="#ffffff"/><text x="19" y="17" dy=".3em" style="font-family: &quot;IBM Plex Sans&quot;, sans-serif; font-size: 16px; font-style: normal; fill: rgb(255, 255, 255); font-weight: 400; text-anchor: middle;">X</text></g><g><rect x="907.4" y="140" width="59" height="32" style="fill: rgb(51, 177, 255); stroke-width: 0; stroke: transparent; paint-order: stroke;"/><text x="936.9" y="153" dy=".3em" style="font-family: &quot;IBM Plex Sans&quot;, sans-serif; font-size: 16px; font-style: normal; fill: rgb(22, 22, 22); font-weight: 400; text-anchor: middle;">RZ</text><text x="936.9" y="166" dy=".3em" style="font-family: &quot;IBM Plex Mono&quot;, monospace; font-size: 8px; font-style: normal; fill: rgb(22, 22, 22); font-weight: 400; text-anchor: middle;">(pi / 2)</text></g><line x1="990.4" y1="76" x2="990.4" y2="156" style="stroke-width: 1; stroke: rgb(0, 45, 156);"/><circle r="4" cx="990.4" cy="76" style="fill: rgb(0, 45, 156);"/><g transform="translate(990.4, 156)"><g><circle cx="0" cy="0" r="16" style="fill: rgb(0, 45, 156); stroke-width: 0; stroke: transparent; paint-order: stroke;"/><line x1="0" y1="-8" x2="0" y2="8" style="stroke-width: 1.25; stroke: rgb(255, 255, 255);"/><line x1="8" y1="0" x2="-8" y2="0" style="stroke-width: 1.25; stroke: rgb(255, 255, 255);"/></g></g><g><rect x="1014.4000000000001" y="140" width="64" height="32" style="fill: rgb(51, 177, 255); stroke-width: 0; stroke: transparent; paint-order: stroke;"/><text x="1046.4" y="153" dy=".3em" style="font-family: &quot;IBM Plex Sans&quot;, sans-serif; font-size: 16px; font-style: normal; fill: rgb(22, 22, 22); font-weight: 400; text-anchor: middle;">RZ</text><text x="1046.4" y="166" dy=".3em" style="font-family: &quot;IBM Plex Mono&quot;, monospace; font-size: 8px; font-style: normal; fill: rgb(22, 22, 22); font-weight: 400; text-anchor: middle;">(-pi / 4)</text></g><line x1="1102.4" y1="36" x2="1102.4" y2="156" style="stroke-width: 1; stroke: rgb(0, 45, 156);"/><circle r="4" cx="1102.4" cy="36" style="fill: rgb(0, 45, 156);"/><g transform="translate(1102.4, 156)"><g><circle cx="0" cy="0" r="16" style="fill: rgb(0, 45, 156); stroke-width: 0; stroke: transparent; paint-order: stroke;"/><line x1="0" y1="-8" x2="0" y2="8" style="stroke-width: 1.25; stroke: rgb(255, 255, 255);"/><line x1="8" y1="0" x2="-8" y2="0" style="stroke-width: 1.25; stroke: rgb(255, 255, 255);"/></g></g><g><rect x="1126.4" y="140" width="59" height="32" style="fill: rgb(51, 177, 255); stroke-width: 0; stroke: transparent; paint-order: stroke;"/><text x="1155.9" y="153" dy=".3em" style="font-family: &quot;IBM Plex Sans&quot;, sans-serif; font-size: 16px; font-style: normal; fill: rgb(22, 22, 22); font-weight: 400; text-anchor: middle;">RZ</text><text x="1155.9" y="166" dy=".3em" style="font-family: &quot;IBM Plex Mono&quot;, monospace; font-size: 8px; font-style: normal; fill: rgb(22, 22, 22); font-weight: 400; text-anchor: middle;">(pi / 4)</text></g><line x1="1209.4" y1="76" x2="1209.4" y2="156" style="stroke-width: 1; stroke: rgb(0, 45, 156);"/><circle r="4" cx="1209.4" cy="76" style="fill: rgb(0, 45, 156);"/><g transform="translate(1209.4, 156)"><g><circle cx="0" cy="0" r="16" style="fill: rgb(0, 45, 156); stroke-width: 0; stroke: transparent; paint-order: stroke;"/><line x1="0" y1="-8" x2="0" y2="8" style="stroke-width: 1.25; stroke: rgb(255, 255, 255);"/><line x1="8" y1="0" x2="-8" y2="0" style="stroke-width: 1.25; stroke: rgb(255, 255, 255);"/></g></g><g><rect x="1235.9" y="60" width="59" height="32" style="fill: rgb(51, 177, 255); stroke-width: 0; stroke: transparent; paint-order: stroke;"/><text x="1265.4" y="73" dy=".3em" style="font-family: &quot;IBM Plex Sans&quot;, sans-serif; font-size: 16px; font-style: normal; fill: rgb(22, 22, 22); font-weight: 400; text-anchor: middle;">RZ</text><text x="1265.4" y="86" dy=".3em" style="font-family: &quot;IBM Plex Mono&quot;, monospace; font-size: 8px; font-style: normal; fill: rgb(22, 22, 22); font-weight: 400; text-anchor: middle;">(pi / 4)</text></g><g><rect x="1233.4" y="140" width="64" height="32" style="fill: rgb(51, 177, 255); stroke-width: 0; stroke: transparent; paint-order: stroke;"/><text x="1265.4" y="153" dy=".3em" style="font-family: &quot;IBM Plex Sans&quot;, sans-serif; font-size: 16px; font-style: normal; fill: rgb(22, 22, 22); font-weight: 400; text-anchor: middle;">RZ</text><text x="1265.4" y="166" dy=".3em" style="font-family: &quot;IBM Plex Mono&quot;, monospace; font-size: 8px; font-style: normal; fill: rgb(22, 22, 22); font-weight: 400; text-anchor: middle;">(-pi / 4)</text></g><line x1="1321.4" y1="36" x2="1321.4" y2="156" style="stroke-width: 1; stroke: rgb(0, 45, 156);"/><circle r="4" cx="1321.4" cy="36" style="fill: rgb(0, 45, 156);"/><g transform="translate(1321.4, 156)"><g><circle cx="0" cy="0" r="16" style="fill: rgb(0, 45, 156); stroke-width: 0; stroke: transparent; paint-order: stroke;"/><line x1="0" y1="-8" x2="0" y2="8" style="stroke-width: 1.25; stroke: rgb(255, 255, 255);"/><line x1="8" y1="0" x2="-8" y2="0" style="stroke-width: 1.25; stroke: rgb(255, 255, 255);"/></g></g><line x1="1384.4" y1="36" x2="1384.4" y2="76" style="stroke-width: 1; stroke: rgb(0, 45, 156);"/><circle r="4" cx="1384.4" cy="36" style="fill: rgb(0, 45, 156);"/><g transform="translate(1384.4, 76)"><g><circle cx="0" cy="0" r="16" style="fill: rgb(0, 45, 156); stroke-width: 0; stroke: transparent; paint-order: stroke;"/><line x1="0" y1="-8" x2="0" y2="8" style="stroke-width: 1.25; stroke: rgb(255, 255, 255);"/><line x1="8" y1="0" x2="-8" y2="0" style="stroke-width: 1.25; stroke: rgb(255, 255, 255);"/></g></g><g><rect x="1345.4" y="140" width="78" height="32" style="fill: rgb(51, 177, 255); stroke-width: 0; stroke: transparent; paint-order: stroke;"/><text x="1384.4" y="153" dy=".3em" style="font-family: &quot;IBM Plex Sans&quot;, sans-serif; font-size: 16px; font-style: normal; fill: rgb(22, 22, 22); font-weight: 400; text-anchor: middle;">RZ</text><text x="1384.4" y="166" dy=".3em" style="font-family: &quot;IBM Plex Mono&quot;, monospace; font-size: 8px; font-style: normal; fill: rgb(22, 22, 22); font-weight: 400; text-anchor: middle;">(3 * pi / 4)</text></g><g><rect x="1433.9" y="20" width="59" height="32" style="fill: rgb(51, 177, 255); stroke-width: 0; stroke: transparent; paint-order: stroke;"/><text x="1463.4" y="33" dy=".3em" style="font-family: &quot;IBM Plex Sans&quot;, sans-serif; font-size: 16px; font-style: normal; fill: rgb(22, 22, 22); font-weight: 400; text-anchor: middle;">RZ</text><text x="1463.4" y="46" dy=".3em" style="font-family: &quot;IBM Plex Mono&quot;, monospace; font-size: 8px; font-style: normal; fill: rgb(22, 22, 22); font-weight: 400; text-anchor: middle;">(pi / 2)</text></g><g><rect x="1431.4" y="60" width="64" height="32" style="fill: rgb(51, 177, 255); stroke-width: 0; stroke: transparent; paint-order: stroke;"/><text x="1463.4" y="73" dy=".3em" style="font-family: &quot;IBM Plex Sans&quot;, sans-serif; font-size: 16px; font-style: normal; fill: rgb(22, 22, 22); font-weight: 400; text-anchor: middle;">RZ</text><text x="1463.4" y="86" dy=".3em" style="font-family: &quot;IBM Plex Mono&quot;, monospace; font-size: 8px; font-style: normal; fill: rgb(22, 22, 22); font-weight: 400; text-anchor: middle;">(-pi / 4)</text></g><g transform="translate(1447.4, 140)"><rect x="0" y="0" width="32" height="32" style="fill: rgb(159, 24, 83); stroke-width: 0; stroke: transparent; paint-order: stroke;"/><path fill-rule="evenodd" clip-rule="evenodd" d="M12.4344 8H25.5V9.25H13.5656L12.0656 24.25H8.92123L8.42123 17.75H7V16.5H9.57877L10.0788 23H10.9344L12.4344 8Z" fill="#ffffff"/><text x="19" y="17" dy=".3em" style="font-family: &quot;IBM Plex Sans&quot;, sans-serif; font-size: 16px; font-style: normal; fill: rgb(255, 255, 255); font-weight: 400; text-anchor: middle;">X</text></g><line x1="1542.4" y1="36" x2="1542.4" y2="76" style="stroke-width: 1; stroke: rgb(0, 45, 156);"/><circle r="4" cx="1542.4" cy="36" style="fill: rgb(0, 45, 156);"/><g transform="translate(1542.4, 76)"><g><circle cx="0" cy="0" r="16" style="fill: rgb(0, 45, 156); stroke-width: 0; stroke: transparent; paint-order: stroke;"/><line x1="0" y1="-8" x2="0" y2="8" style="stroke-width: 1.25; stroke: rgb(255, 255, 255);"/><line x1="8" y1="0" x2="-8" y2="0" style="stroke-width: 1.25; stroke: rgb(255, 255, 255);"/></g></g><g><rect x="1503.4" y="140" width="78" height="32" style="fill: rgb(51, 177, 255); stroke-width: 0; stroke: transparent; paint-order: stroke;"/><text x="1542.4" y="153" dy=".3em" style="font-family: &quot;IBM Plex Sans&quot;, sans-serif; font-size: 16px; font-style: normal; fill: rgb(22, 22, 22); font-weight: 400; text-anchor: middle;">RZ</text><text x="1542.4" y="166" dy=".3em" style="font-family: &quot;IBM Plex Mono&quot;, monospace; font-size: 8px; font-style: normal; fill: rgb(22, 22, 22); font-weight: 400; text-anchor: middle;">(3 * pi / 4)</text></g><line x1="1605.4" y1="156" x2="1605.4" y2="196" style="stroke-width: 1; stroke: rgb(0, 45, 156);"/><circle r="4" cx="1605.4" cy="156" style="fill: rgb(0, 45, 156);"/><g transform="translate(1605.4, 196)"><g><circle cx="0" cy="0" r="16" style="fill: rgb(0, 45, 156); stroke-width: 0; stroke: transparent; paint-order: stroke;"/><line x1="0" y1="-8" x2="0" y2="8" style="stroke-width: 1.25; stroke: rgb(255, 255, 255);"/><line x1="8" y1="0" x2="-8" y2="0" style="stroke-width: 1.25; stroke: rgb(255, 255, 255);"/></g></g><g><rect x="1629.4" y="180" width="64" height="32" style="fill: rgb(51, 177, 255); stroke-width: 0; stroke: transparent; paint-order: stroke;"/><text x="1661.4" y="193" dy=".3em" style="font-family: &quot;IBM Plex Sans&quot;, sans-serif; font-size: 16px; font-style: normal; fill: rgb(22, 22, 22); font-weight: 400; text-anchor: middle;">RZ</text><text x="1661.4" y="206" dy=".3em" style="font-family: &quot;IBM Plex Mono&quot;, monospace; font-size: 8px; font-style: normal; fill: rgb(22, 22, 22); font-weight: 400; text-anchor: middle;">(-pi / 4)</text></g><line x1="1717.4" y1="116" x2="1717.4" y2="196" style="stroke-width: 1; stroke: rgb(0, 45, 156);"/><circle r="4" cx="1717.4" cy="116" style="fill: rgb(0, 45, 156);"/><g transform="translate(1717.4, 196)"><g><circle cx="0" cy="0" r="16" style="fill: rgb(0, 45, 156); stroke-width: 0; stroke: transparent; paint-order: stroke;"/><line x1="0" y1="-8" x2="0" y2="8" style="stroke-width: 1.25; stroke: rgb(255, 255, 255);"/><line x1="8" y1="0" x2="-8" y2="0" style="stroke-width: 1.25; stroke: rgb(255, 255, 255);"/></g></g><g><rect x="1741.4" y="180" width="59" height="32" style="fill: rgb(51, 177, 255); stroke-width: 0; stroke: transparent; paint-order: stroke;"/><text x="1770.9" y="193" dy=".3em" style="font-family: &quot;IBM Plex Sans&quot;, sans-serif; font-size: 16px; font-style: normal; fill: rgb(22, 22, 22); font-weight: 400; text-anchor: middle;">RZ</text><text x="1770.9" y="206" dy=".3em" style="font-family: &quot;IBM Plex Mono&quot;, monospace; font-size: 8px; font-style: normal; fill: rgb(22, 22, 22); font-weight: 400; text-anchor: middle;">(pi / 4)</text></g><line x1="1824.4" y1="156" x2="1824.4" y2="196" style="stroke-width: 1; stroke: rgb(0, 45, 156);"/><circle r="4" cx="1824.4" cy="156" style="fill: rgb(0, 45, 156);"/><g transform="translate(1824.4, 196)"><g><circle cx="0" cy="0" r="16" style="fill: rgb(0, 45, 156); stroke-width: 0; stroke: transparent; paint-order: stroke;"/><line x1="0" y1="-8" x2="0" y2="8" style="stroke-width: 1.25; stroke: rgb(255, 255, 255);"/><line x1="8" y1="0" x2="-8" y2="0" style="stroke-width: 1.25; stroke: rgb(255, 255, 255);"/></g></g><g><rect x="1848.4" y="180" width="64" height="32" style="fill: rgb(51, 177, 255); stroke-width: 0; stroke: transparent; paint-order: stroke;"/><text x="1880.4" y="193" dy=".3em" style="font-family: &quot;IBM Plex Sans&quot;, sans-serif; font-size: 16px; font-style: normal; fill: rgb(22, 22, 22); font-weight: 400; text-anchor: middle;">RZ</text><text x="1880.4" y="206" dy=".3em" style="font-family: &quot;IBM Plex Mono&quot;, monospace; font-size: 8px; font-style: normal; fill: rgb(22, 22, 22); font-weight: 400; text-anchor: middle;">(-pi / 4)</text></g><line x1="1936.4" y1="116" x2="1936.4" y2="196" style="stroke-width: 1; stroke: rgb(0, 45, 156);"/><circle r="4" cx="1936.4" cy="116" style="fill: rgb(0, 45, 156);"/><g transform="translate(1936.4, 196)"><g><circle cx="0" cy="0" r="16" style="fill: rgb(0, 45, 156); stroke-width: 0; stroke: transparent; paint-order: stroke;"/><line x1="0" y1="-8" x2="0" y2="8" style="stroke-width: 1.25; stroke: rgb(255, 255, 255);"/><line x1="8" y1="0" x2="-8" y2="0" style="stroke-width: 1.25; stroke: rgb(255, 255, 255);"/></g></g><line x1="1976.4" y1="116" x2="1976.4" y2="156" style="stroke-width: 1; stroke: rgb(0, 45, 156);"/><circle r="4" cx="1976.4" cy="116" style="fill: rgb(0, 45, 156);"/><g transform="translate(1976.4, 156)"><g><circle cx="0" cy="0" r="16" style="fill: rgb(0, 45, 156); stroke-width: 0; stroke: transparent; paint-order: stroke;"/><line x1="0" y1="-8" x2="0" y2="8" style="stroke-width: 1.25; stroke: rgb(255, 255, 255);"/><line x1="8" y1="0" x2="-8" y2="0" style="stroke-width: 1.25; stroke: rgb(255, 255, 255);"/></g></g><g><rect x="2000.4" y="140" width="64" height="32" style="fill: rgb(51, 177, 255); stroke-width: 0; stroke: transparent; paint-order: stroke;"/><text x="2032.4" y="153" dy=".3em" style="font-family: &quot;IBM Plex Sans&quot;, sans-serif; font-size: 16px; font-style: normal; fill: rgb(22, 22, 22); font-weight: 400; text-anchor: middle;">RZ</text><text x="2032.4" y="166" dy=".3em" style="font-family: &quot;IBM Plex Mono&quot;, monospace; font-size: 8px; font-style: normal; fill: rgb(22, 22, 22); font-weight: 400; text-anchor: middle;">(-pi / 4)</text></g><line x1="2088.4" y1="116" x2="2088.4" y2="156" style="stroke-width: 1; stroke: rgb(0, 45, 156);"/><circle r="4" cx="2088.4" cy="116" style="fill: rgb(0, 45, 156);"/><g transform="translate(2088.4, 156)"><g><circle cx="0" cy="0" r="16" style="fill: rgb(0, 45, 156); stroke-width: 0; stroke: transparent; paint-order: stroke;"/><line x1="0" y1="-8" x2="0" y2="8" style="stroke-width: 1.25; stroke: rgb(255, 255, 255);"/><line x1="8" y1="0" x2="-8" y2="0" style="stroke-width: 1.25; stroke: rgb(255, 255, 255);"/></g></g><g><rect x="2112.4" y="140" width="59" height="32" style="fill: rgb(51, 177, 255); stroke-width: 0; stroke: transparent; paint-order: stroke;"/><text x="2141.9" y="153" dy=".3em" style="font-family: &quot;IBM Plex Sans&quot;, sans-serif; font-size: 16px; font-style: normal; fill: rgb(22, 22, 22); font-weight: 400; text-anchor: middle;">RZ</text><text x="2141.9" y="166" dy=".3em" style="font-family: &quot;IBM Plex Mono&quot;, monospace; font-size: 8px; font-style: normal; fill: rgb(22, 22, 22); font-weight: 400; text-anchor: middle;">(pi / 2)</text></g><g transform="translate(2179.4, 140)"><rect x="0" y="0" width="32" height="32" style="fill: rgb(159, 24, 83); stroke-width: 0; stroke: transparent; paint-order: stroke;"/><path fill-rule="evenodd" clip-rule="evenodd" d="M12.4344 8H25.5V9.25H13.5656L12.0656 24.25H8.92123L8.42123 17.75H7V16.5H9.57877L10.0788 23H10.9344L12.4344 8Z" fill="#ffffff"/><text x="19" y="17" dy=".3em" style="font-family: &quot;IBM Plex Sans&quot;, sans-serif; font-size: 16px; font-style: normal; fill: rgb(255, 255, 255); font-weight: 400; text-anchor: middle;">X</text></g><g><rect x="2219.4" y="140" width="59" height="32" style="fill: rgb(51, 177, 255); stroke-width: 0; stroke: transparent; paint-order: stroke;"/><text x="2248.9" y="153" dy=".3em" style="font-family: &quot;IBM Plex Sans&quot;, sans-serif; font-size: 16px; font-style: normal; fill: rgb(22, 22, 22); font-weight: 400; text-anchor: middle;">RZ</text><text x="2248.9" y="166" dy=".3em" style="font-family: &quot;IBM Plex Mono&quot;, monospace; font-size: 8px; font-style: normal; fill: rgb(22, 22, 22); font-weight: 400; text-anchor: middle;">(pi / 2)</text></g><line x1="2302.4" y1="76" x2="2302.4" y2="156" style="stroke-width: 1; stroke: rgb(0, 45, 156);"/><circle r="4" cx="2302.4" cy="76" style="fill: rgb(0, 45, 156);"/><g transform="translate(2302.4, 156)"><g><circle cx="0" cy="0" r="16" style="fill: rgb(0, 45, 156); stroke-width: 0; stroke: transparent; paint-order: stroke;"/><line x1="0" y1="-8" x2="0" y2="8" style="stroke-width: 1.25; stroke: rgb(255, 255, 255);"/><line x1="8" y1="0" x2="-8" y2="0" style="stroke-width: 1.25; stroke: rgb(255, 255, 255);"/></g></g><g><rect x="2326.4" y="140" width="64" height="32" style="fill: rgb(51, 177, 255); stroke-width: 0; stroke: transparent; paint-order: stroke;"/><text x="2358.4" y="153" dy=".3em" style="font-family: &quot;IBM Plex Sans&quot;, sans-serif; font-size: 16px; font-style: normal; fill: rgb(22, 22, 22); font-weight: 400; text-anchor: middle;">RZ</text><text x="2358.4" y="166" dy=".3em" style="font-family: &quot;IBM Plex Mono&quot;, monospace; font-size: 8px; font-style: normal; fill: rgb(22, 22, 22); font-weight: 400; text-anchor: middle;">(-pi / 4)</text></g><line x1="2414.4" y1="36" x2="2414.4" y2="156" style="stroke-width: 1; stroke: rgb(0, 45, 156);"/><circle r="4" cx="2414.4" cy="36" style="fill: rgb(0, 45, 156);"/><g transform="translate(2414.4, 156)"><g><circle cx="0" cy="0" r="16" style="fill: rgb(0, 45, 156); stroke-width: 0; stroke: transparent; paint-order: stroke;"/><line x1="0" y1="-8" x2="0" y2="8" style="stroke-width: 1.25; stroke: rgb(255, 255, 255);"/><line x1="8" y1="0" x2="-8" y2="0" style="stroke-width: 1.25; stroke: rgb(255, 255, 255);"/></g></g><g><rect x="2438.4" y="140" width="59" height="32" style="fill: rgb(51, 177, 255); stroke-width: 0; stroke: transparent; paint-order: stroke;"/><text x="2467.9" y="153" dy=".3em" style="font-family: &quot;IBM Plex Sans&quot;, sans-serif; font-size: 16px; font-style: normal; fill: rgb(22, 22, 22); font-weight: 400; text-anchor: middle;">RZ</text><text x="2467.9" y="166" dy=".3em" style="font-family: &quot;IBM Plex Mono&quot;, monospace; font-size: 8px; font-style: normal; fill: rgb(22, 22, 22); font-weight: 400; text-anchor: middle;">(pi / 4)</text></g><line x1="2521.4" y1="76" x2="2521.4" y2="156" style="stroke-width: 1; stroke: rgb(0, 45, 156);"/><circle r="4" cx="2521.4" cy="76" style="fill: rgb(0, 45, 156);"/><g transform="translate(2521.4, 156)"><g><circle cx="0" cy="0" r="16" style="fill: rgb(0, 45, 156); stroke-width: 0; stroke: transparent; paint-order: stroke;"/><line x1="0" y1="-8" x2="0" y2="8" style="stroke-width: 1.25; stroke: rgb(255, 255, 255);"/><line x1="8" y1="0" x2="-8" y2="0" style="stroke-width: 1.25; stroke: rgb(255, 255, 255);"/></g></g></g></svg>