<svg xmlns="http://www.w3.org/2000/svg" class="" viewBox="0 0 2928.4 240" width="2928.4" height="240" aria-label="Circuit visualization" style="display: block; user-select: none;"><defs xmlns="http://www.w3.org/1999/xhtml"><style type="text/css">&lt;!--/*--&gt;&lt;![CDATA[/*&gt;&lt;!--*/

  /* from https://fonts.googleapis.com/css2?family=IBM+Plex+Sans&amp;display=swap */
  @font-face {
    font-family: 'IBM Plex Sans';
    font-style: normal;
    font-weight: 400;
    font-display: swap;
    src: url(https://fonts.gstatic.com/s/ibmplexsans/v14/zYXgKVElMYYaJe8bpLHnCwDKhdHeFaxOedc.woff2) format('woff2');
  }
  
  /* from https://fonts.googleapis.com/css2?family=IBM+Plex+Mono&amp;display=swap */
  @font-face {
    font-family: 'IBM Plex Mono';
    font-style: normal;
    font-weight: 400;
    font-display: swap;
    src: url(https://fonts.gstatic.com/s/ibmplexmono/v12/-F63fjptAgt5VM-kVkqdyU8n1i8q131nj-o.woff2) format('woff2');
  }    

/*]]&gt;*/--&gt;</style></defs><rect x="0" y="0" width="2928.4" height="240" style="fill: rgb(255, 255, 255);"/><g><g transform="translate(20, 0)"><g><g><text x="38.4" y="36" dy=".3em" style="fill: rgb(111, 111, 111); font-family: &quot;IBM Plex Mono&quot;, monospace; font-weight: 400; text-anchor: end; font-size: 14px;"><tspan>q[0]</tspan></text><text x="38.4" y="76" dy=".3em" style="fill: rgb(111, 111, 111); font-family: &quot;IBM Plex Mono&quot;, monospace; font-weight: 400; text-anchor: end; font-size: 14px;"><tspan>q[1]</tspan></text><text x="38.4" y="116" dy=".3em" style="fill: rgb(111, 111, 111); font-family: &quot;IBM Plex Mono&quot;, monospace; font-weight: 400; text-anchor: end; font-size: 14px;"><tspan>q[2]</tspan></text><text x="38.4" y="156" dy=".3em" style="fill: rgb(111, 111, 111); font-family: &quot;IBM Plex Mono&quot;, monospace; font-weight: 400; text-anchor: end; font-size: 14px;"><tspan>q[3]</tspan></text><text x="38.4" y="196" dy=".3em" style="fill: rgb(111, 111, 111); font-family: &quot;IBM Plex Mono&quot;, monospace; font-weight: 400; text-anchor: end; font-size: 14px;"><tspan>q[4]</tspan></text></g><g/></g></g><g><g><line x1="68.4" x2="2908.4" y1="36" y2="36" style="fill: none; stroke: rgb(224, 224, 224); stroke-width: 1; stroke-linecap: round;"/><line x1="68.4" x2="2908.4" y1="76" y2="76" style="fill: none; stroke: rgb(224, 224, 224); stroke-width: 1; stroke-linecap: round;"/><line x1="68.4" x2="2908.4" y1="116" y2="116" style="fill: none; stroke: rgb(224, 224, 224); stroke-width: 1; stroke-linecap: round;"/><line x1="68.4" x2="2908.4" y1="156" y2="156" style="fill: none; stroke: rgb(224, 224, 224); stroke-width: 1; stroke-linecap: round;"/><line x1="68.4" x2="2908.4" y1="196" y2="196" style="fill: none; stroke: rgb(224, 224, 224); stroke-width: 1; stroke-linecap: round;"/></g></g><g><rect x="76.4" y="180" width="59" height="32" style="fill: rgb(51, 177, 255); stroke-width: 0; stroke: transparent; paint-order: stroke;"/><text x="105.9" y="193" dy=".3em" style="font-family: &quot;IBM Plex Sans&quot;, sans-serif; font-size: 16px; font-style: normal; fill: rgb(22, 22, 22); font-weight: 400; text-anchor: middle;">RZ</text><text x="105.9" y="206" dy=".3em" style="font-family: &quot;IBM Plex Mono&quot;, monospace; font-size: 8px; font-style: normal; fill: rgb(22, 22, 22); font-weight: 400; text-anchor: middle;">(pi / 2)</text></g><g transform="translate(143.4, 180)"><rect x="0" y="0" width="32" height="32" style="fill: rgb(159, 24, 83); stroke-width: 0; stroke: transparent; paint-order: stroke;"/><path fill-rule="evenodd" clip-rule="evenodd" d="M12.4344 8H25.5V9.25H13.5656L12.0656 24.25H8.92123L8.42123 17.75H7V16.5H9.57877L10.0788 23H10.9344L12.4344 8Z" fill="#ffffff"/><text x="19" y="17" dy=".3em" style="font-family: &quot;IBM Plex Sans&quot;, sans-serif; font-size: 16px; font-style: normal; fill: rgb(255, 255, 255); font-weight: 400; text-anchor: middle;">X</text></g><g><rect x="183.4" y="180" width="64" height="32" style="fill: rgb(51, 177, 255); stroke-width: 0; stroke: transparent; paint-order: stroke;"/><text x="215.4" y="193" dy=".3em" style="font-family: &quot;IBM Plex Sans&quot;, sans-serif; font-size: 16px; font-style: normal; fill: rgb(22, 22, 22); font-weight: 400; text-anchor: middle;">RZ</text><text x="215.4" y="206" dy=".3em" style="font-family: &quot;IBM Plex Mono&quot;, monospace; font-size: 8px; font-style: normal; fill: rgb(22, 22, 22); font-weight: 400; text-anchor: middle;">(-pi / 2)</text></g><line x1="271.4" y1="156" x2="271.4" y2="196" style="stroke-width: 1; stroke: rgb(0, 45, 156);"/><circle r="4" cx="271.4" cy="156" style="fill: rgb(0, 45, 156);"/><g transform="translate(271.4, 196)"><g><circle cx="0" cy="0" r="16" style="fill: rgb(0, 45, 156); stroke-width: 0; stroke: transparent; paint-order: stroke;"/><line x1="0" y1="-8" x2="0" y2="8" style="stroke-width: 1.25; stroke: rgb(255, 255, 255);"/><line x1="8" y1="0" x2="-8" y2="0" style="stroke-width: 1.25; stroke: rgb(255, 255, 255);"/></g></g><g><rect x="295.4" y="180" width="64" height="32" style="fill: rgb(51, 177, 255); stroke-width: 0; stroke: transparent; paint-order: stroke;"/><text x="327.4" y="193" dy=".3em" style="font-family: &quot;IBM Plex Sans&quot;, sans-serif; font-size: 16px; font-style: normal; fill: rgb(22, 22, 22); font-weight: 400; text-anchor: middle;">RZ</text><text x="327.4" y="206" dy=".3em" style="font-family: &quot;IBM Plex Mono&quot;, monospace; font-size: 8px; font-style: normal; fill: rgb(22, 22, 22); font-weight: 400; text-anchor: middle;">(-pi / 4)</text></g><line x1="383.4" y1="36" x2="383.4" y2="196" style="stroke-width: 1; stroke: rgb(0, 45, 156);"/><circle r="4" cx="383.4" cy="36" style="fill: rgb(0, 45, 156);"/><g transform="translate(383.4, 196)"><g><circle cx="0" cy="0" r="16" style="fill: rgb(0, 45, 156); stroke-width: 0; stroke: transparent; paint-order: stroke;"/><line x1="0" y1="-8" x2="0" y2="8" style="stroke-width: 1.25; stroke: rgb(255, 255, 255);"/><line x1="8" y1="0" x2="-8" y2="0" style="stroke-width: 1.25; stroke: rgb(255, 255, 255);"/></g></g><g><rect x="407.4" y="180" width="59" height="32" style="fill: rgb(51, 177, 255); stroke-width: 0; stroke: transparent; paint-order: stroke;"/><text x="436.9" y="193" dy=".3em" style="font-family: &quot;IBM Plex Sans&quot;, sans-serif; font-size: 16px; font-style: normal; fill: rgb(22, 22, 22); font-weight: 400; text-anchor: middle;">RZ</text><text x="436.9" y="206" dy=".3em" style="font-family: &quot;IBM Plex Mono&quot;, monospace; font-size: 8px; font-style: normal; fill: rgb(22, 22, 22); font-weight: 400; text-anchor: middle;">(pi / 4)</text></g><line x1="490.4" y1="156" x2="490.4" y2="196" style="stroke-width: 1; stroke: rgb(0, 45, 156);"/><circle r="4" cx="490.4" cy="156" style="fill: rgb(0, 45, 156);"/><g transform="translate(490.4, 196)"><g><circle cx="0" cy="0" r="16" style="fill: rgb(0, 45, 156); stroke-width: 0; stroke: transparent; paint-order: stroke;"/><line x1="0" y1="-8" x2="0" y2="8" style="stroke-width: 1.25; stroke: rgb(255, 255, 255);"/><line x1="8" y1="0" x2="-8" y2="0" style="stroke-width: 1.25; stroke: rgb(255, 255, 255);"/></g></g><g><rect x="516.9" y="140" width="59" height="32" style="fill: rgb(51, 177, 255); stroke-width: 0; stroke: transparent; paint-order: stroke;"/><text x="546.4" y="153" dy=".3em" style="font-family: &quot;IBM Plex Sans&quot;, sans-serif; font-size: 16px; font-style: normal; fill: rgb(22, 22, 22); font-weight: 400; text-anchor: middle;">RZ</text><text x="546.4" y="166" dy=".3em" style="font-family: &quot;IBM Plex Mono&quot;, monospace; font-size: 8px; font-style: normal; fill: rgb(22, 22, 22); font-weight: 400; text-anchor: middle;">(pi / 4)</text></g><g><rect x="514.4" y="180" width="64" height="32" style="fill: rgb(51, 177, 255); stroke-width: 0; stroke: transparent; paint-order: stroke;"/><text x="546.4" y="193" dy=".3em" style="font-family: &quot;IBM Plex Sans&quot;, sans-serif; font-size: 16px; font-style: normal; fill: rgb(22, 22, 22); font-weight: 400; text-anchor: middle;">RZ</text><text x="546.4" y="206" dy=".3em" style="font-family: &quot;IBM Plex Mono&quot;, monospace; font-size: 8px; font-style: normal; fill: rgb(22, 22, 22); font-weight: 400; text-anchor: middle;">(-pi / 4)</text></g><line x1="602.4" y1="36" x2="602.4" y2="196" style="stroke-width: 1; stroke: rgb(0, 45, 156);"/><circle r="4" cx="602.4" cy="36" style="fill: rgb(0, 45, 156);"/><g transform="translate(602.4, 196)"><g><circle cx="0" cy="0" r="16" style="fill: rgb(0, 45, 156); stroke-width: 0; stroke: transparent; paint-order: stroke;"/><line x1="0" y1="-8" x2="0" y2="8" style="stroke-width: 1.25; stroke: rgb(255, 255, 255);"/><line x1="8" y1="0" x2="-8" y2="0" style="stroke-width: 1.25; stroke: rgb(255, 255, 255);"/></g></g><line x1="655.9" y1="36" x2="655.9" y2="156" style="stroke-width: 1; stroke: rgb(0, 45, 156);"/><circle r="4" cx="655.9" cy="36" style="fill: rgb(0, 45, 156);"/><g transform="translate(655.9, 156)"><g><circle cx="0" cy="0" r="16" style="fill: rgb(0, 45, 156); stroke-width: 0; stroke: transparent; paint-order: stroke;"/><line x1="0" y1="-8" x2="0" y2="8" style="stroke-width: 1.25; stroke: rgb(255, 255, 255);"/><line x1="8" y1="0" x2="-8" y2="0" style="stroke-width: 1.25; stroke: rgb(255, 255, 255);"/></g></g><g><rect x="626.4" y="180" width="59" height="32" style="fill: rgb(51, 177, 255); stroke-width: 0; stroke: transparent; paint-order: stroke;"/><text x="655.9" y="193" dy=".3em" style="font-family: &quot;IBM Plex Sans&quot;, sans-serif; font-size: 16px; font-style: normal; fill: rgb(22, 22, 22); font-weight: 400; text-anchor: middle;">RZ</text><text x="655.9" y="206" dy=".3em" style="font-family: &quot;IBM Plex Mono&quot;, monospace; font-size: 8px; font-style: normal; fill: rgb(22, 22, 22); font-weight: 400; text-anchor: middle;">(pi / 4)</text></g><g><rect x="695.9" y="20" width="59" height="32" style="fill: rgb(51, 177, 255); stroke-width: 0; stroke: transparent; paint-order: stroke;"/><text x="725.4" y="33" dy=".3em" style="font-family: &quot;IBM Plex Sans&quot;, sans-serif; font-size: 16px; font-style: normal; fill: rgb(22, 22, 22); font-weight: 400; text-anchor: middle;">RZ</text><text x="725.4" y="46" dy=".3em" style="font-family: &quot;IBM Plex Mono&quot;, monospace; font-size: 8px; font-style: normal; fill: rgb(22, 22, 22); font-weight: 400; text-anchor: middle;">(pi / 2)</text></g><g><rect x="693.4" y="140" width="64" height="32" style="fill: rgb(51, 177, 255); stroke-width: 0; stroke: transparent; paint-order: stroke;"/><text x="725.4" y="153" dy=".3em" style="font-family: &quot;IBM Plex Sans&quot;, sans-serif; font-size: 16px; font-style: normal; fill: rgb(22, 22, 22); font-weight: 400; text-anchor: middle;">RZ</text><text x="725.4" y="166" dy=".3em" style="font-family: &quot;IBM Plex Mono&quot;, monospace; font-size: 8px; font-style: normal; fill: rgb(22, 22, 22); font-weight: 400; text-anchor: middle;">(-pi / 4)</text></g><line x1="781.4" y1="36" x2="781.4" y2="156" style="stroke-width: 1; stroke: rgb(0, 45, 156);"/><circle r="4" cx="781.4" cy="36" style="fill: rgb(0, 45, 156);"/><g transform="translate(781.4, 156)"><g><circle cx="0" cy="0" r="16" style="fill: rgb(0, 45, 156); stroke-width: 0; stroke: transparent; paint-order: stroke;"/><line x1="0" y1="-8" x2="0" y2="8" style="stroke-width: 1.25; stroke: rgb(255, 255, 255);"/><line x1="8" y1="0" x2="-8" y2="0" style="stroke-width: 1.25; stroke: rgb(255, 255, 255);"/></g></g><line x1="821.4" y1="156" x2="821.4" y2="196" style="stroke-width: 1; stroke: rgb(0, 45, 156);"/><circle r="4" cx="821.4" cy="156" style="fill: rgb(0, 45, 156);"/><g transform="translate(821.4, 196)"><g><circle cx="0" cy="0" r="16" style="fill: rgb(0, 45, 156); stroke-width: 0; stroke: transparent; paint-order: stroke;"/><line x1="0" y1="-8" x2="0" y2="8" style="stroke-width: 1.25; stroke: rgb(255, 255, 255);"/><line x1="8" y1="0" x2="-8" y2="0" style="stroke-width: 1.25; stroke: rgb(255, 255, 255);"/></g></g><g><rect x="845.4" y="180" width="64" height="32" style="fill: rgb(51, 177, 255); stroke-width: 0; stroke: transparent; paint-order: stroke;"/><text x="877.4" y="193" dy=".3em" style="font-family: &quot;IBM Plex Sans&quot;, sans-serif; font-size: 16px; font-style: normal; fill: rgb(22, 22, 22); font-weight: 400; text-anchor: middle;">RZ</text><text x="877.4" y="206" dy=".3em" style="font-family: &quot;IBM Plex Mono&quot;, monospace; font-size: 8px; font-style: normal; fill: rgb(22, 22, 22); font-weight: 400; text-anchor: middle;">(-pi / 4)</text></g><line x1="933.4" y1="116" x2="933.4" y2="196" style="stroke-width: 1; stroke: rgb(0, 45, 156);"/><circle r="4" cx="933.4" cy="116" style="fill: rgb(0, 45, 156);"/><g transform="translate(933.4, 196)"><g><circle cx="0" cy="0" r="16" style="fill: rgb(0, 45, 156); stroke-width: 0; stroke: transparent; paint-order: stroke;"/><line x1="0" y1="-8" x2="0" y2="8" style="stroke-width: 1.25; stroke: rgb(255, 255, 255);"/><line x1="8" y1="0" x2="-8" y2="0" style="stroke-width: 1.25; stroke: rgb(255, 255, 255);"/></g></g><g><rect x="957.4" y="180" width="59" height="32" style="fill: rgb(51, 177, 255); stroke-width: 0; stroke: transparent; paint-order: stroke;"/><text x="986.9" y="193" dy=".3em" style="font-family: &quot;IBM Plex Sans&quot;, sans-serif; font-size: 16px; font-style: normal; fill: rgb(22, 22, 22); font-weight: 400; text-anchor: middle;">RZ</text><text x="986.9" y="206" dy=".3em" style="font-family: &quot;IBM Plex Mono&quot;, monospace; font-size: 8px; font-style: normal; fill: rgb(22, 22, 22); font-weight: 400; text-anchor: middle;">(pi / 4)</text></g><line x1="1040.4" y1="156" x2="1040.4" y2="196" style="stroke-width: 1; stroke: rgb(0, 45, 156);"/><circle r="4" cx="1040.4" cy="156" style="fill: rgb(0, 45, 156);"/><g transform="translate(1040.4, 196)"><g><circle cx="0" cy="0" r="16" style="fill: rgb(0, 45, 156); stroke-width: 0; stroke: transparent; paint-order: stroke;"/><line x1="0" y1="-8" x2="0" y2="8" style="stroke-width: 1.25; stroke: rgb(255, 255, 255);"/><line x1="8" y1="0" x2="-8" y2="0" style="stroke-width: 1.25; stroke: rgb(255, 255, 255);"/></g></g><g><rect x="1066.9" y="140" width="59" height="32" style="fill: rgb(51, 177, 255); stroke-width: 0; stroke: transparent; paint-order: stroke;"/><text x="1096.4" y="153" dy=".3em" style="font-family: &quot;IBM Plex Sans&quot;, sans-serif; font-size: 16px; font-style: normal; fill: rgb(22, 22, 22); font-weight: 400; text-anchor: middle;">RZ</text><text x="1096.4" y="166" dy=".3em" style="font-family: &quot;IBM Plex Mono&quot;, monospace; font-size: 8px; font-style: normal; fill: rgb(22, 22, 22); font-weight: 400; text-anchor: middle;">(pi / 4)</text></g><g><rect x="1064.4" y="180" width="64" height="32" style="fill: rgb(51, 177, 255); stroke-width: 0; stroke: transparent; paint-order: stroke;"/><text x="1096.4" y="193" dy=".3em" style="font-family: &quot;IBM Plex Sans&quot;, sans-serif; font-size: 16px; font-style: normal; fill: rgb(22, 22, 22); font-weight: 400; text-anchor: middle;">RZ</text><text x="1096.4" y="206" dy=".3em" style="font-family: &quot;IBM Plex Mono&quot;, monospace; font-size: 8px; font-style: normal; fill: rgb(22, 22, 22); font-weight: 400; text-anchor: middle;">(-pi / 4)</text></g><line x1="1152.4" y1="116" x2="1152.4" y2="196" style="stroke-width: 1; stroke: rgb(0, 45, 156);"/><circle r="4" cx="1152.4" cy="116" style="fill: rgb(0, 45, 156);"/><g transform="translate(1152.4, 196)"><g><circle cx="0" cy="0" r="16" style="fill: rgb(0, 45, 156); stroke-width: 0; stroke: transparent; paint-order: stroke;"/><line x1="0" y1="-8" x2="0" y2="8" style="stroke-width: 1.25; stroke: rgb(255, 255, 255);"/><line x1="8" y1="0" x2="-8" y2="0" style="stroke-width: 1.25; stroke: rgb(255, 255, 255);"/></g></g><line x1="1215.4" y1="116" x2="1215.4" y2="156" style="stroke-width: 1; stroke: rgb(0, 45, 156);"/><circle r="4" cx="1215.4" cy="116" style="fill: rgb(0, 45, 156);"/><g transform="translate(1215.4, 156)"><g><circle cx="0" cy="0" r="16" style="fill: rgb(0, 45, 156); stroke-width: 0; stroke: transparent; paint-order: stroke;"/><line x1="0" y1="-8" x2="0" y2="8" style="stroke-width: 1.25; stroke: rgb(255, 255, 255);"/><line x1="8" y1="0" x2="-8" y2="0" style="stroke-width: 1.25; stroke: rgb(255, 255, 255);"/></g></g><g><rect x="1176.4" y="180" width="78" height="32" style="fill: rgb(51, 177, 255); stroke-width: 0; stroke: transparent; paint-order: stroke;"/><text x="1215.4" y="193" dy=".3em" style="font-family: &quot;IBM Plex Sans&quot;, sans-serif; font-size: 16px; font-style: normal; fill: rgb(22, 22, 22); font-weight: 400; text-anchor: middle;">RZ</text><text x="1215.4" y="206" dy=".3em" style="font-family: &quot;IBM Plex Mono&quot;, monospace; font-size: 8px; font-style: normal; fill: rgb(22, 22, 22); font-weight: 400; text-anchor: middle;">(3 * pi / 4)</text></g><g><rect x="1264.9" y="100" width="59" height="32" style="fill: rgb(51, 177, 255); stroke-width: 0; stroke: transparent; paint-order: stroke;"/><text x="1294.4" y="113" dy=".3em" style="font-family: &quot;IBM Plex Sans&quot;, sans-serif; font-size: 16px; font-style: normal; fill: rgb(22, 22, 22); font-weight: 400; text-anchor: middle;">RZ</text><text x="1294.4" y="126" dy=".3em" style="font-family: &quot;IBM Plex Mono&quot;, monospace; font-size: 8px; font-style: normal; fill: rgb(22, 22, 22); font-weight: 400; text-anchor: middle;">(pi / 2)</text></g><g><rect x="1262.4" y="140" width="64" height="32" style="fill: rgb(51, 177, 255); stroke-width: 0; stroke: transparent; paint-order: stroke;"/><text x="1294.4" y="153" dy=".3em" style="font-family: &quot;IBM Plex Sans&quot;, sans-serif; font-size: 16px; font-style: normal; fill: rgb(22, 22, 22); font-weight: 400; text-anchor: middle;">RZ</text><text x="1294.4" y="166" dy=".3em" style="font-family: &quot;IBM Plex Mono&quot;, monospace; font-size: 8px; font-style: normal; fill: rgb(22, 22, 22); font-weight: 400; text-anchor: middle;">(-pi / 4)</text></g><g transform="translate(1278.4, 180)"><rect x="0" y="0" width="32" height="32" style="fill: rgb(159, 24, 83); stroke-width: 0; stroke: transparent; paint-order: stroke;"/><path fill-rule="evenodd" clip-rule="evenodd" d="M12.4344 8H25.5V9.25H13.5656L12.0656 24.25H8.92123L8.42123 17.75H7V16.5H9.57877L10.0788 23H10.9344L12.4344 8Z" fill="#ffffff"/><text x="19" y="17" dy=".3em" style="font-family: &quot;IBM Plex Sans&quot;, sans-serif; font-size: 16px; font-style: normal; fill: rgb(255, 255, 255); font-weight: 400; text-anchor: middle;">X</text></g><line x1="1363.9" y1="116" x2="1363.9" y2="156" style="stroke-width: 1; stroke: rgb(0, 45, 156);"/><circle r="4" cx="1363.9" cy="116" style="fill: rgb(0, 45, 156);"/><g transform="translate(1363.9, 156)"><g><circle cx="0" cy="0" r="16" style="fill: rgb(0, 45, 156); stroke-width: 0; stroke: transparent; paint-order: stroke;"/><line x1="0" y1="-8" x2="0" y2="8" style="stroke-width: 1.25; stroke: rgb(255, 255, 255);"/><line x1="8" y1="0" x2="-8" y2="0" style="stroke-width: 1.25; stroke: rgb(255, 255, 255);"/></g></g><g><rect x="1334.4" y="180" width="59" height="32" style="fill: rgb(51, 177, 255); stroke-width: 0; stroke: transparent; paint-order: stroke;"/><text x="1363.9" y="193" dy=".3em" style="font-family: &quot;IBM Plex Sans&quot;, sans-serif; font-size: 16px; font-style: normal; fill: rgb(22, 22, 22); font-weight: 400; text-anchor: middle;">RZ</text><text x="1363.9" y="206" dy=".3em" style="font-family: &quot;IBM Plex Mono&quot;, monospace; font-size: 8px; font-style: normal; fill: rgb(22, 22, 22); font-weight: 400; text-anchor: middle;">(pi / 2)</text></g><line x1="1417.4" y1="156" x2="1417.4" y2="196" style="stroke-width: 1; stroke: rgb(0, 45, 156);"/><circle r="4" cx="1417.4" cy="156" style="fill: rgb(0, 45, 156);"/><g transform="translate(1417.4, 196)"><g><circle cx="0" cy="0" r="16" style="fill: rgb(0, 45, 156); stroke-width: 0; stroke: transparent; paint-order: stroke;"/><line x1="0" y1="-8" x2="0" y2="8" style="stroke-width: 1.25; stroke: rgb(255, 255, 255);"/><line x1="8" y1="0" x2="-8" y2="0" style="stroke-width: 1.25; stroke: rgb(255, 255, 255);"/></g></g><g><rect x="1441.4" y="180" width="59" height="32" style="fill: rgb(51, 177, 255); stroke-width: 0; stroke: transparent; paint-order: stroke;"/><text x="1470.9" y="193" dy=".3em" style="font-family: &quot;IBM Plex Sans&quot;, sans-serif; font-size: 16px; font-style: normal; fill: rgb(22, 22, 22); font-weight: 400; text-anchor: middle;">RZ</text><text x="1470.9" y="206" dy=".3em" style="font-family: &quot;IBM Plex Mono&quot;, monospace; font-size: 8px; font-style: normal; fill: rgb(22, 22, 22); font-weight: 400; text-anchor: middle;">(pi / 2)</text></g><g transform="translate(1508.4, 180)"><rect x="0" y="0" width="32" height="32" style="fill: rgb(159, 24, 83); stroke-width: 0; stroke: transparent; paint-order: stroke;"/><path fill-rule="evenodd" clip-rule="evenodd" d="M12.4344 8H25.5V9.25H13.5656L12.0656 24.25H8.92123L8.42123 17.75H7V16.5H9.57877L10.0788 23H10.9344L12.4344 8Z" fill="#ffffff"/><text x="19" y="17" dy=".3em" style="font-family: &quot;IBM Plex Sans&quot;, sans-serif; font-size: 16px; font-style: normal; fill: rgb(255, 255, 255); font-weight: 400; text-anchor: middle;">X</text></g><g><rect x="1548.4" y="180" width="59" height="32" style="fill: rgb(51, 177, 255); stroke-width: 0; stroke: transparent; paint-order: stroke;"/><text x="1577.9" y="193" dy=".3em" style="font-family: &quot;IBM Plex Sans&quot;, sans-serif; font-size: 16px; font-style: normal; fill: rgb(22, 22, 22); font-weight: 400; text-anchor: middle;">RZ</text><text x="1577.9" y="206" dy=".3em" style="font-family: &quot;IBM Plex Mono&quot;, monospace; font-size: 8px; font-style: normal; fill: rgb(22, 22, 22); font-weight: 400; text-anchor: middle;">(pi / 2)</text></g><line x1="1631.4" y1="116" x2="1631.4" y2="196" style="stroke-width: 1; stroke: rgb(0, 45, 156);"/><circle r="4" cx="1631.4" cy="116" style="fill: rgb(0, 45, 156);"/><g transform="translate(1631.4, 196)"><g><circle cx="0" cy="0" r="16" style="fill: rgb(0, 45, 156); stroke-width: 0; stroke: transparent; paint-order: stroke;"/><line x1="0" y1="-8" x2="0" y2="8" style="stroke-width: 1.25; stroke: rgb(255, 255, 255);"/><line x1="8" y1="0" x2="-8" y2="0" style="stroke-width: 1.25; stroke: rgb(255, 255, 255);"/></g></g><g><rect x="1655.4" y="180" width="64" height="32" style="fill: rgb(51, 177, 255); stroke-width: 0; stroke: transparent; paint-order: stroke;"/><text x="1687.4" y="193" dy=".3em" style="font-family: &quot;IBM Plex Sans&quot;, sans-serif; font-size: 16px; font-style: normal; fill: rgb(22, 22, 22); font-weight: 400; text-anchor: middle;">RZ</text><text x="1687.4" y="206" dy=".3em" style="font-family: &quot;IBM Plex Mono&quot;, monospace; font-size: 8px; font-style: normal; fill: rgb(22, 22, 22); font-weight: 400; text-anchor: middle;">(-pi / 4)</text></g><line x1="1743.4" y1="76" x2="1743.4" y2="196" style="stroke-width: 1; stroke: rgb(0, 45, 156);"/><circle r="4" cx="1743.4" cy="76" style="fill: rgb(0, 45, 156);"/><g transform="translate(1743.4, 196)"><g><circle cx="0" cy="0" r="16" style="fill: rgb(0, 45, 156); stroke-width: 0; stroke: transparent; paint-order: stroke;"/><line x1="0" y1="-8" x2="0" y2="8" style="stroke-width: 1.25; stroke: rgb(255, 255, 255);"/><line x1="8" y1="0" x2="-8" y2="0" style="stroke-width: 1.25; stroke: rgb(255, 255, 255);"/></g></g><g><rect x="1767.4" y="180" width="59" height="32" style="fill: rgb(51, 177, 255); stroke-width: 0; stroke: transparent; paint-order: stroke;"/><text x="1796.9" y="193" dy=".3em" style="font-family: &quot;IBM Plex Sans&quot;, sans-serif; font-size: 16px; font-style: normal; fill: rgb(22, 22, 22); font-weight: 400; text-anchor: middle;">RZ</text><text x="1796.9" y="206" dy=".3em" style="font-family: &quot;IBM Plex Mono&quot;, monospace; font-size: 8px; font-style: normal; fill: rgb(22, 22, 22); font-weight: 400; text-anchor: middle;">(pi / 4)</text></g><line x1="1850.4" y1="116" x2="1850.4" y2="196" style="stroke-width: 1; stroke: rgb(0, 45, 156);"/><circle r="4" cx="1850.4" cy="116" style="fill: rgb(0, 45, 156);"/><g transform="translate(1850.4, 196)"><g><circle cx="0" cy="0" r="16" style="fill: rgb(0, 45, 156); stroke-width: 0; stroke: transparent; paint-order: stroke;"/><line x1="0" y1="-8" x2="0" y2="8" style="stroke-width: 1.25; stroke: rgb(255, 255, 255);"/><line x1="8" y1="0" x2="-8" y2="0" style="stroke-width: 1.25; stroke: rgb(255, 255, 255);"/></g></g><g><rect x="1874.4" y="180" width="64" height="32" style="fill: rgb(51, 177, 255); stroke-width: 0; stroke: transparent; paint-order: stroke;"/><text x="1906.4" y="193" dy=".3em" style="font-family: &quot;IBM Plex Sans&quot;, sans-serif; font-size: 16px; font-style: normal; fill: rgb(22, 22, 22); font-weight: 400; text-anchor: middle;">RZ</text><text x="1906.4" y="206" dy=".3em" style="font-family: &quot;IBM Plex Mono&quot;, monospace; font-size: 8px; font-style: normal; fill: rgb(22, 22, 22); font-weight: 400; text-anchor: middle;">(-pi / 4)</text></g><line x1="1962.4" y1="76" x2="1962.4" y2="196" style="stroke-width: 1; stroke: rgb(0, 45, 156);"/><circle r="4" cx="1962.4" cy="76" style="fill: rgb(0, 45, 156);"/><g transform="translate(1962.4, 196)"><g><circle cx="0" cy="0" r="16" style="fill: rgb(0, 45, 156); stroke-width: 0; stroke: transparent; paint-order: stroke;"/><line x1="0" y1="-8" x2="0" y2="8" style="stroke-width: 1.25; stroke: rgb(255, 255, 255);"/><line x1="8" y1="0" x2="-8" y2="0" style="stroke-width: 1.25; stroke: rgb(255, 255, 255);"/></g></g><line x1="2025.4" y1="76" x2="2025.4" y2="116" style="stroke-width: 1; stroke: rgb(0, 45, 156);"/><circle r="4" cx="2025.4" cy="76" style="fill: rgb(0, 45, 156);"/><g transform="translate(2025.4, 116)"><g><circle cx="0" cy="0" r="16" style="fill: rgb(0, 45, 156); stroke-width: 0; stroke: transparent; paint-order: stroke;"/><line x1="0" y1="-8" x2="0" y2="8" style="stroke-width: 1.25; stroke: rgb(255, 255, 255);"/><line x1="8" y1="0" x2="-8" y2="0" style="stroke-width: 1.25; stroke: rgb(255, 255, 255);"/></g></g><g><rect x="1986.4" y="180" width="78" height="32" style="fill: rgb(51, 177, 255); stroke-width: 0; stroke: transparent; paint-order: stroke;"/><text x="2025.4" y="193" dy=".3em" style="font-family: &quot;IBM Plex Sans&quot;, sans-serif; font-size: 16px; font-style: normal; fill: rgb(22, 22, 22); font-weight: 400; text-anchor: middle;">RZ</text><text x="2025.4" y="206" dy=".3em" style="font-family: &quot;IBM Plex Mono&quot;, monospace; font-size: 8px; font-style: normal; fill: rgb(22, 22, 22); font-weight: 400; text-anchor: middle;">(3 * pi / 4)</text></g><g><rect x="2074.9" y="60" width="59" height="32" style="fill: rgb(51, 177, 255); stroke-width: 0; stroke: transparent; paint-order: stroke;"/><text x="2104.4" y="73" dy=".3em" style="font-family: &quot;IBM Plex Sans&quot;, sans-serif; font-size: 16px; font-style: normal; fill: rgb(22, 22, 22); font-weight: 400; text-anchor: middle;">RZ</text><text x="2104.4" y="86" dy=".3em" style="font-family: &quot;IBM Plex Mono&quot;, monospace; font-size: 8px; font-style: normal; fill: rgb(22, 22, 22); font-weight: 400; text-anchor: middle;">(pi / 2)</text></g><g><rect x="2072.4" y="100" width="64" height="32" style="fill: rgb(51, 177, 255); stroke-width: 0; stroke: transparent; paint-order: stroke;"/><text x="2104.4" y="113" dy=".3em" style="font-family: &quot;IBM Plex Sans&quot;, sans-serif; font-size: 16px; font-style: normal; fill: rgb(22, 22, 22); font-weight: 400; text-anchor: middle;">RZ</text><text x="2104.4" y="126" dy=".3em" style="font-family: &quot;IBM Plex Mono&quot;, monospace; font-size: 8px; font-style: normal; fill: rgb(22, 22, 22); font-weight: 400; text-anchor: middle;">(-pi / 4)</text></g><g transform="translate(2088.4, 180)"><rect x="0" y="0" width="32" height="32" style="fill: rgb(159, 24, 83); stroke-width: 0; stroke: transparent; paint-order: stroke;"/><path fill-rule="evenodd" clip-rule="evenodd" d="M12.4344 8H25.5V9.25H13.5656L12.0656 24.25H8.92123L8.42123 17.75H7V16.5H9.57877L10.0788 23H10.9344L12.4344 8Z" fill="#ffffff"/><text x="19" y="17" dy=".3em" style="font-family: &quot;IBM Plex Sans&quot;, sans-serif; font-size: 16px; font-style: normal; fill: rgb(255, 255, 255); font-weight: 400; text-anchor: middle;">X</text></g><line x1="2173.9" y1="76" x2="2173.9" y2="116" style="stroke-width: 1; stroke: rgb(0, 45, 156);"/><circle r="4" cx="2173.9" cy="76" style="fill: rgb(0, 45, 156);"/><g transform="translate(2173.9, 116)"><g><circle cx="0" cy="0" r="16" style="fill: rgb(0, 45, 156); stroke-width: 0; stroke: transparent; paint-order: stroke;"/><line x1="0" y1="-8" x2="0" y2="8" style="stroke-width: 1.25; stroke: rgb(255, 255, 255);"/><line x1="8" y1="0" x2="-8" y2="0" style="stroke-width: 1.25; stroke: rgb(255, 255, 255);"/></g></g><g><rect x="2144.4" y="180" width="59" height="32" style="fill: rgb(51, 177, 255); stroke-width: 0; stroke: transparent; paint-order: stroke;"/><text x="2173.9" y="193" dy=".3em" style="font-family: &quot;IBM Plex Sans&quot;, sans-serif; font-size: 16px; font-style: normal; fill: rgb(22, 22, 22); font-weight: 400; text-anchor: middle;">RZ</text><text x="2173.9" y="206" dy=".3em" style="font-family: &quot;IBM Plex Mono&quot;, monospace; font-size: 8px; font-style: normal; fill: rgb(22, 22, 22); font-weight: 400; text-anchor: middle;">(pi / 2)</text></g><line x1="2227.4" y1="116" x2="2227.4" y2="196" style="stroke-width: 1; stroke: rgb(0, 45, 156);"/><circle r="4" cx="2227.4" cy="116" style="fill: rgb(0, 45, 156);"/><g transform="translate(2227.4, 196)"><g><circle cx="0" cy="0" r="16" style="fill: rgb(0, 45, 156); stroke-width: 0; stroke: transparent; paint-order: stroke;"/><line x1="0" y1="-8" x2="0" y2="8" style="stroke-width: 1.25; stroke: rgb(255, 255, 255);"/><line x1="8" y1="0" x2="-8" y2="0" style="stroke-width: 1.25; stroke: rgb(255, 255, 255);"/></g></g><g><rect x="2251.4" y="180" width="59" height="32" style="fill: rgb(51, 177, 255); stroke-width: 0; stroke: transparent; paint-order: stroke;"/><text x="2280.9" y="193" dy=".3em" style="font-family: &quot;IBM Plex Sans&quot;, sans-serif; font-size: 16px; font-style: normal; fill: rgb(22, 22, 22); font-weight: 400; text-anchor: middle;">RZ</text><text x="2280.9" y="206" dy=".3em" style="font-family: &quot;IBM Plex Mono&quot;, monospace; font-size: 8px; font-style: normal; fill: rgb(22, 22, 22); font-weight: 400; text-anchor: middle;">(pi / 2)</text></g><g transform="translate(2318.4, 180)"><rect x="0" y="0" width="32" height="32" style="fill: rgb(159, 24, 83); stroke-width: 0; stroke: transparent; paint-order: stroke;"/><path fill-rule="evenodd" clip-rule="evenodd" d="M12.4344 8H25.5V9.25H13.5656L12.0656 24.25H8.92123L8.42123 17.75H7V16.5H9.57877L10.0788 23H10.9344L12.4344 8Z" fill="#ffffff"/><text x="19" y="17" dy=".3em" style="font-family: &quot;IBM Plex Sans&quot;, sans-serif; font-size: 16px; font-style: normal; fill: rgb(255, 255, 255); font-weight: 400; text-anchor: middle;">X</text></g><g><rect x="2358.4" y="180" width="59" height="32" style="fill: rgb(51, 177, 255); stroke-width: 0; stroke: transparent; paint-order: stroke;"/><text x="2387.9" y="193" dy=".3em" style="font-family: &quot;IBM Plex Sans&quot;, sans-serif; font-size: 16px; font-style: normal; fill: rgb(22, 22, 22); font-weight: 400; text-anchor: middle;">RZ</text><text x="2387.9" y="206" dy=".3em" style="font-family: &quot;IBM Plex Mono&quot;, monospace; font-size: 8px; font-style: normal; fill: rgb(22, 22, 22); font-weight: 400; text-anchor: middle;">(pi / 2)</text></g><line x1="2441.4" y1="76" x2="2441.4" y2="196" style="stroke-width: 1; stroke: rgb(0, 45, 156);"/><circle r="4" cx="2441.4" cy="76" style="fill: rgb(0, 45, 156);"/><g transform="translate(2441.4, 196)"><g><circle cx="0" cy="0" r="16" style="fill: rgb(0, 45, 156); stroke-width: 0; stroke: transparent; paint-order: stroke;"/><line x1="0" y1="-8" x2="0" y2="8" style="stroke-width: 1.25; stroke: rgb(255, 255, 255);"/><line x1="8" y1="0" x2="-8" y2="0" style="stroke-width: 1.25; stroke: rgb(255, 255, 255);"/></g></g><g><rect x="2465.4" y="180" width="64" height="32" style="fill: rgb(51, 177, 255); stroke-width: 0; stroke: transparent; paint-order: stroke;"/><text x="2497.4" y="193" dy=".3em" style="font-family: &quot;IBM Plex Sans&quot;, sans-serif; font-size: 16px; font-style: normal; fill: rgb(22, 22, 22); font-weight: 400; text-anchor: middle;">RZ</text><text x="2497.4" y="206" dy=".3em" style="font-family: &quot;IBM Plex Mono&quot;, monospace; font-size: 8px; font-style: normal; fill: rgb(22, 22, 22); font-weight: 400; text-anchor: middle;">(-pi / 4)</text></g><line x1="2553.4" y1="36" x2="2553.4" y2="196" style="stroke-width: 1; stroke: rgb(0, 45, 156);"/><circle r="4" cx="2553.4" cy="36" style="fill: rgb(0, 45, 156);"/><g transform="translate(2553.4, 196)"><g><circle cx="0" cy="0" r="16" style="fill: rgb(0, 45, 156); stroke-width: 0; stroke: transparent; paint-order: stroke;"/><line x1="0" y1="-8" x2="0" y2="8" style="stroke-width: 1.25; stroke: rgb(255, 255, 255);"/><line x1="8" y1="0" x2="-8" y2="0" style="stroke-width: 1.25; stroke: rgb(255, 255, 255);"/></g></g><g><rect x="2577.4" y="180" width="59" height="32" style="fill: rgb(51, 177, 255); stroke-width: 0; stroke: transparent; paint-order: stroke;"/><text x="2606.9" y="193" dy=".3em" style="font-family: &quot;IBM Plex Sans&quot;, sans-serif; font-size: 16px; font-style: normal; fill: rgb(22, 22, 22); font-weight: 400; text-anchor: middle;">RZ</text><text x="2606.9" y="206" dy=".3em" style="font-family: &quot;IBM Plex Mono&quot;, monospace; font-size: 8px; font-style: normal; fill: rgb(22, 22, 22); font-weight: 400; text-anchor: middle;">(pi / 4)</text></g><line x1="2660.4" y1="76" x2="2660.4" y2="196" style="stroke-width: 1; stroke: rgb(0, 45, 156);"/><circle r="4" cx="2660.4" cy="76" style="fill: rgb(0, 45, 156);"/><g transform="translate(2660.4, 196)"><g><circle cx="0" cy="0" r="16" style="fill: rgb(0, 45, 156); stroke-width: 0; stroke: transparent; paint-order: stroke;"/><line x1="0" y1="-8" x2="0" y2="8" style="stroke-width: 1.25; stroke: rgb(255, 255, 255);"/><line x1="8" y1="0" x2="-8" y2="0" style="stroke-width: 1.25; stroke: rgb(255, 255, 255);"/></g></g><g><rect x="2684.4" y="180" width="64" height="32" style="fill: rgb(51, 177, 255); stroke-width: 0; stroke: transparent; paint-order: stroke;"/><text x="2716.4" y="193" dy=".3em" style="font-family: &quot;IBM Plex Sans&quot;, sans-serif; font-size: 16px; font-style: normal; fill: rgb(22, 22, 22); font-weight: 400; text-anchor: middle;">RZ</text><text x="2716.4" y="206" dy=".3em" style="font-family: &quot;IBM Plex Mono&quot;, monospace; font-size: 8px; font-style: normal; fill: rgb(22, 22, 22); font-weight: 400; text-anchor: middle;">(-pi / 4)</text></g><line x1="2772.4" y1="36" x2="2772.4" y2="196" style="stroke-width: 1; stroke: rgb(0, 45, 156);"/><circle r="4" cx="2772.4" cy="36" style="fill: rgb(0, 45, 156);"/><g transform="translate(2772.4, 196)"><g><circle cx="0" cy="0" r="16" style="fill: rgb(0, 45, 156); stroke-width: 0; stroke: transparent; paint-order: stroke;"/><line x1="0" y1="-8" x2="0" y2="8" style="stroke-width: 1.25; stroke: rgb(255, 255, 255);"/><line x1="8" y1="0" x2="-8" y2="0" style="stroke-width: 1.25; stroke: rgb(255, 255, 255);"/></g></g><line x1="2812.4" y1="36" x2="2812.4" y2="76" style="stroke-width: 1; stroke: rgb(0, 45, 156);"/><circle r="4" cx="2812.4" cy="36" style="fill: rgb(0, 45, 156);"/><g transform="translate(2812.4, 76)"><g><circle cx="0" cy="0" r="16" style="fill: rgb(0, 45, 156); stroke-width: 0; stroke: transparent; paint-order: stroke;"/><line x1="0" y1="-8" x2="0" y2="8" style="stroke-width: 1.25; stroke: rgb(255, 255, 255);"/><line x1="8" y1="0" x2="-8" y2="0" style="stroke-width: 1.25; stroke: rgb(255, 255, 255);"/></g></g><g><rect x="2836.4" y="60" width="64" height="32" style="fill: rgb(51, 177, 255); stroke-width: 0; stroke: transparent; paint-order: stroke;"/><text x="2868.4" y="73" dy=".3em" style="font-family: &quot;IBM Plex Sans&quot;, sans-serif; font-size: 16px; font-style: normal; fill: rgb(22, 22, 22); font-weight: 400; text-anchor: middle;">RZ</text><text x="2868.4" y="86" dy=".3em" style="font-family: &quot;IBM Plex Mono&quot;, monospace; font-size: 8px; font-style: normal; fill: rgb(22, 22, 22); font-weight: 400; text-anchor: middle;">(-pi / 4)</text></g></g></svg>