<svg xmlns="http://www.w3.org/2000/svg" class="" viewBox="0 0 1866 640" width="1866" height="640" aria-label="Circuit visualization" style="display: block; user-select: none;"><defs xmlns="http://www.w3.org/1999/xhtml"><style type="text/css">&lt;!--/*--&gt;&lt;![CDATA[/*&gt;&lt;!--*/

  /* from https://fonts.googleapis.com/css2?family=IBM+Plex+Sans&amp;display=swap */
  @font-face {
    font-family: 'IBM Plex Sans';
    font-style: normal;
    font-weight: 400;
    font-display: swap;
    src: url(https://fonts.gstatic.com/s/ibmplexsans/v14/zYXgKVElMYYaJe8bpLHnCwDKhdHeFaxOedc.woff2) format('woff2');
  }
  
  /* from https://fonts.googleapis.com/css2?family=IBM+Plex+Mono&amp;display=swap */
  @font-face {
    font-family: 'IBM Plex Mono';
    font-style: normal;
    font-weight: 400;
    font-display: swap;
    src: url(https://fonts.gstatic.com/s/ibmplexmono/v12/-F63fjptAgt5VM-kVkqdyU8n1i8q131nj-o.woff2) format('woff2');
  }    

/*]]&gt;*/--&gt;</style></defs><rect x="0" y="0" width="1866" height="640" style="fill: rgb(255, 255, 255);"/><g><g transform="translate(20, 0)"><g><g><text x="48" y="36" dy=".3em" style="fill: rgb(111, 111, 111); font-family: &quot;IBM Plex Mono&quot;, monospace; font-weight: 400; text-anchor: end; font-size: 14px;"><tspan>q[0]</tspan></text><text x="48" y="76" dy=".3em" style="fill: rgb(111, 111, 111); font-family: &quot;IBM Plex Mono&quot;, monospace; font-weight: 400; text-anchor: end; font-size: 14px;"><tspan>q[1]</tspan></text><text x="48" y="116" dy=".3em" style="fill: rgb(111, 111, 111); font-family: &quot;IBM Plex Mono&quot;, monospace; font-weight: 400; text-anchor: end; font-size: 14px;"><tspan>q[2]</tspan></text><text x="48" y="156" dy=".3em" style="fill: rgb(111, 111, 111); font-family: &quot;IBM Plex Mono&quot;, monospace; font-weight: 400; text-anchor: end; font-size: 14px;"><tspan>q[3]</tspan></text><text x="48" y="196" dy=".3em" style="fill: rgb(111, 111, 111); font-family: &quot;IBM Plex Mono&quot;, monospace; font-weight: 400; text-anchor: end; font-size: 14px;"><tspan>q[4]</tspan></text><text x="48" y="236" dy=".3em" style="fill: rgb(111, 111, 111); font-family: &quot;IBM Plex Mono&quot;, monospace; font-weight: 400; text-anchor: end; font-size: 14px;"><tspan>q[5]</tspan></text><text x="48" y="276" dy=".3em" style="fill: rgb(111, 111, 111); font-family: &quot;IBM Plex Mono&quot;, monospace; font-weight: 400; text-anchor: end; font-size: 14px;"><tspan>q[6]</tspan></text><text x="48" y="316" dy=".3em" style="fill: rgb(111, 111, 111); font-family: &quot;IBM Plex Mono&quot;, monospace; font-weight: 400; text-anchor: end; font-size: 14px;"><tspan>q[7]</tspan></text><text x="48" y="356" dy=".3em" style="fill: rgb(111, 111, 111); font-family: &quot;IBM Plex Mono&quot;, monospace; font-weight: 400; text-anchor: end; font-size: 14px;"><tspan>q[8]</tspan></text><text x="48" y="396" dy=".3em" style="fill: rgb(111, 111, 111); font-family: &quot;IBM Plex Mono&quot;, monospace; font-weight: 400; text-anchor: end; font-size: 14px;"><tspan>q[9]</tspan></text><text x="48" y="436" dy=".3em" style="fill: rgb(111, 111, 111); font-family: &quot;IBM Plex Mono&quot;, monospace; font-weight: 400; text-anchor: end; font-size: 14px;"><tspan>q[10]</tspan></text><text x="48" y="476" dy=".3em" style="fill: rgb(111, 111, 111); font-family: &quot;IBM Plex Mono&quot;, monospace; font-weight: 400; text-anchor: end; font-size: 14px;"><tspan>q[11]</tspan></text><text x="48" y="516" dy=".3em" style="fill: rgb(111, 111, 111); font-family: &quot;IBM Plex Mono&quot;, monospace; font-weight: 400; text-anchor: end; font-size: 14px;"><tspan>q[12]</tspan></text><text x="48" y="556" dy=".3em" style="fill: rgb(111, 111, 111); font-family: &quot;IBM Plex Mono&quot;, monospace; font-weight: 400; text-anchor: end; font-size: 14px;"><tspan>q[13]</tspan></text><text x="48" y="596" dy=".3em" style="fill: rgb(111, 111, 111); font-family: &quot;IBM Plex Mono&quot;, monospace; font-weight: 400; text-anchor: end; font-size: 14px;"><tspan>q[14]</tspan></text></g><g/></g></g><g><g><line x1="78" x2="1846" y1="36" y2="36" style="fill: none; stroke: rgb(224, 224, 224); stroke-width: 1; stroke-linecap: round;"/><line x1="78" x2="1846" y1="76" y2="76" style="fill: none; stroke: rgb(224, 224, 224); stroke-width: 1; stroke-linecap: round;"/><line x1="78" x2="1846" y1="116" y2="116" style="fill: none; stroke: rgb(224, 224, 224); stroke-width: 1; stroke-linecap: round;"/><line x1="78" x2="1846" y1="156" y2="156" style="fill: none; stroke: rgb(224, 224, 224); stroke-width: 1; stroke-linecap: round;"/><line x1="78" x2="1846" y1="196" y2="196" style="fill: none; stroke: rgb(224, 224, 224); stroke-width: 1; stroke-linecap: round;"/><line x1="78" x2="1846" y1="236" y2="236" style="fill: none; stroke: rgb(224, 224, 224); stroke-width: 1; stroke-linecap: round;"/><line x1="78" x2="1846" y1="276" y2="276" style="fill: none; stroke: rgb(224, 224, 224); stroke-width: 1; stroke-linecap: round;"/><line x1="78" x2="1846" y1="316" y2="316" style="fill: none; stroke: rgb(224, 224, 224); stroke-width: 1; stroke-linecap: round;"/><line x1="78" x2="1846" y1="356" y2="356" style="fill: none; stroke: rgb(224, 224, 224); stroke-width: 1; stroke-linecap: round;"/><line x1="78" x2="1846" y1="396" y2="396" style="fill: none; stroke: rgb(224, 224, 224); stroke-width: 1; stroke-linecap: round;"/><line x1="78" x2="1846" y1="436" y2="436" style="fill: none; stroke: rgb(224, 224, 224); stroke-width: 1; stroke-linecap: round;"/><line x1="78" x2="1846" y1="476" y2="476" style="fill: none; stroke: rgb(224, 224, 224); stroke-width: 1; stroke-linecap: round;"/><line x1="78" x2="1846" y1="516" y2="516" style="fill: none; stroke: rgb(224, 224, 224); stroke-width: 1; stroke-linecap: round;"/><line x1="78" x2="1846" y1="556" y2="556" style="fill: none; stroke: rgb(224, 224, 224); stroke-width: 1; stroke-linecap: round;"/><line x1="78" x2="1846" y1="596" y2="596" style="fill: none; stroke: rgb(224, 224, 224); stroke-width: 1; stroke-linecap: round;"/></g></g><line x1="102" y1="116" x2="102" y2="156" style="stroke-width: 1; stroke: rgb(0, 45, 156);"/><circle r="4" cx="102" cy="116" style="fill: rgb(0, 45, 156);"/><g transform="translate(102, 156)"><g><circle cx="0" cy="0" r="16" style="fill: rgb(0, 45, 156); stroke-width: 0; stroke: transparent; paint-order: stroke;"/><line x1="0" y1="-8" x2="0" y2="8" style="stroke-width: 1.25; stroke: rgb(255, 255, 255);"/><line x1="8" y1="0" x2="-8" y2="0" style="stroke-width: 1.25; stroke: rgb(255, 255, 255);"/></g></g><g transform="translate(86, 300)"><rect x="0" y="0" width="32" height="32" style="fill: rgb(159, 24, 83); stroke-width: 0; stroke: transparent; paint-order: stroke;"/><path fill-rule="evenodd" clip-rule="evenodd" d="M12.4344 8H25.5V9.25H13.5656L12.0656 24.25H8.92123L8.42123 17.75H7V16.5H9.57877L10.0788 23H10.9344L12.4344 8Z" fill="#ffffff"/><text x="19" y="17" dy=".3em" style="font-family: &quot;IBM Plex Sans&quot;, sans-serif; font-size: 16px; font-style: normal; fill: rgb(255, 255, 255); font-weight: 400; text-anchor: middle;">X</text></g><g transform="translate(86, 380)"><rect x="0" y="0" width="32" height="32" style="fill: rgb(159, 24, 83); stroke-width: 0; stroke: transparent; paint-order: stroke;"/><path fill-rule="evenodd" clip-rule="evenodd" d="M12.4344 8H25.5V9.25H13.5656L12.0656 24.25H8.92123L8.42123 17.75H7V16.5H9.57877L10.0788 23H10.9344L12.4344 8Z" fill="#ffffff"/><text x="19" y="17" dy=".3em" style="font-family: &quot;IBM Plex Sans&quot;, sans-serif; font-size: 16px; font-style: normal; fill: rgb(255, 255, 255); font-weight: 400; text-anchor: middle;">X</text></g><g transform="translate(86, 500)"><rect x="0" y="0" width="32" height="32" style="fill: rgb(159, 24, 83); stroke-width: 0; stroke: transparent; paint-order: stroke;"/><path fill-rule="evenodd" clip-rule="evenodd" d="M12.4344 8H25.5V9.25H13.5656L12.0656 24.25H8.92123L8.42123 17.75H7V16.5H9.57877L10.0788 23H10.9344L12.4344 8Z" fill="#ffffff"/><text x="19" y="17" dy=".3em" style="font-family: &quot;IBM Plex Sans&quot;, sans-serif; font-size: 16px; font-style: normal; fill: rgb(255, 255, 255); font-weight: 400; text-anchor: middle;">X</text></g><g transform="translate(86, 580)"><rect x="0" y="0" width="32" height="32" style="fill: rgb(159, 24, 83); stroke-width: 0; stroke: transparent; paint-order: stroke;"/><path fill-rule="evenodd" clip-rule="evenodd" d="M12.4344 8H25.5V9.25H13.5656L12.0656 24.25H8.92123L8.42123 17.75H7V16.5H9.57877L10.0788 23H10.9344L12.4344 8Z" fill="#ffffff"/><text x="19" y="17" dy=".3em" style="font-family: &quot;IBM Plex Sans&quot;, sans-serif; font-size: 16px; font-style: normal; fill: rgb(255, 255, 255); font-weight: 400; text-anchor: middle;">X</text></g><g transform="translate(126, 140)"><rect x="0" y="0" width="32" height="32" style="fill: rgb(159, 24, 83); stroke-width: 0; stroke: transparent; paint-order: stroke;"/><path fill-rule="evenodd" clip-rule="evenodd" d="M12.4344 8H25.5V9.25H13.5656L12.0656 24.25H8.92123L8.42123 17.75H7V16.5H9.57877L10.0788 23H10.9344L12.4344 8Z" fill="#ffffff"/><text x="19" y="17" dy=".3em" style="font-family: &quot;IBM Plex Sans&quot;, sans-serif; font-size: 16px; font-style: normal; fill: rgb(255, 255, 255); font-weight: 400; text-anchor: middle;">X</text></g><line x1="142" y1="276" x2="142" y2="316" style="stroke-width: 1; stroke: rgb(0, 45, 156);"/><circle r="4" cx="142" cy="276" style="fill: rgb(0, 45, 156);"/><g transform="translate(142, 316)"><g><circle cx="0" cy="0" r="16" style="fill: rgb(0, 45, 156); stroke-width: 0; stroke: transparent; paint-order: stroke;"/><line x1="0" y1="-8" x2="0" y2="8" style="stroke-width: 1.25; stroke: rgb(255, 255, 255);"/><line x1="8" y1="0" x2="-8" y2="0" style="stroke-width: 1.25; stroke: rgb(255, 255, 255);"/></g></g><line x1="142" y1="476" x2="142" y2="516" style="stroke-width: 1; stroke: rgb(0, 45, 156);"/><circle r="4" cx="142" cy="516" style="fill: rgb(0, 45, 156);"/><g transform="translate(142, 476)"><g><circle cx="0" cy="0" r="16" style="fill: rgb(0, 45, 156); stroke-width: 0; stroke: transparent; paint-order: stroke;"/><line x1="0" y1="-8" x2="0" y2="8" style="stroke-width: 1.25; stroke: rgb(255, 255, 255);"/><line x1="8" y1="0" x2="-8" y2="0" style="stroke-width: 1.25; stroke: rgb(255, 255, 255);"/></g></g><line x1="182" y1="76" x2="182" y2="156" style="stroke-width: 1; stroke: rgb(0, 45, 156);"/><circle r="4" cx="182" cy="76" style="fill: rgb(0, 45, 156);"/><g transform="translate(182, 156)"><g><circle cx="0" cy="0" r="16" style="fill: rgb(0, 45, 156); stroke-width: 0; stroke: transparent; paint-order: stroke;"/><line x1="0" y1="-8" x2="0" y2="8" style="stroke-width: 1.25; stroke: rgb(255, 255, 255);"/><line x1="8" y1="0" x2="-8" y2="0" style="stroke-width: 1.25; stroke: rgb(255, 255, 255);"/></g></g><line x1="182" y1="236" x2="182" y2="316" style="stroke-width: 1; stroke: rgb(0, 45, 156);"/><circle r="4" cx="182" cy="236" style="fill: rgb(0, 45, 156);"/><g transform="translate(182, 316)"><g><circle cx="0" cy="0" r="16" style="fill: rgb(0, 45, 156); stroke-width: 0; stroke: transparent; paint-order: stroke;"/><line x1="0" y1="-8" x2="0" y2="8" style="stroke-width: 1.25; stroke: rgb(255, 255, 255);"/><line x1="8" y1="0" x2="-8" y2="0" style="stroke-width: 1.25; stroke: rgb(255, 255, 255);"/></g></g><line x1="182" y1="436" x2="182" y2="476" style="stroke-width: 1; stroke: rgb(0, 45, 156);"/><circle r="4" cx="182" cy="436" style="fill: rgb(0, 45, 156);"/><g transform="translate(182, 476)"><g><circle cx="0" cy="0" r="16" style="fill: rgb(0, 45, 156); stroke-width: 0; stroke: transparent; paint-order: stroke;"/><line x1="0" y1="-8" x2="0" y2="8" style="stroke-width: 1.25; stroke: rgb(255, 255, 255);"/><line x1="8" y1="0" x2="-8" y2="0" style="stroke-width: 1.25; stroke: rgb(255, 255, 255);"/></g></g><line x1="222" y1="116" x2="222" y2="156" style="stroke-width: 1; stroke: rgb(0, 45, 156);"/><circle r="4" cx="222" cy="116" style="fill: rgb(0, 45, 156);"/><g transform="translate(222, 156)"><g><circle cx="0" cy="0" r="16" style="fill: rgb(0, 45, 156); stroke-width: 0; stroke: transparent; paint-order: stroke;"/><line x1="0" y1="-8" x2="0" y2="8" style="stroke-width: 1.25; stroke: rgb(255, 255, 255);"/><line x1="8" y1="0" x2="-8" y2="0" style="stroke-width: 1.25; stroke: rgb(255, 255, 255);"/></g></g><line x1="222" y1="236" x2="222" y2="276" style="stroke-width: 1; stroke: rgb(0, 45, 156);"/><circle r="4" cx="222" cy="236" style="fill: rgb(0, 45, 156);"/><g transform="translate(222, 276)"><g><circle cx="0" cy="0" r="16" style="fill: rgb(0, 45, 156); stroke-width: 0; stroke: transparent; paint-order: stroke;"/><line x1="0" y1="-8" x2="0" y2="8" style="stroke-width: 1.25; stroke: rgb(255, 255, 255);"/><line x1="8" y1="0" x2="-8" y2="0" style="stroke-width: 1.25; stroke: rgb(255, 255, 255);"/></g></g><line x1="222" y1="316" x2="222" y2="396" style="stroke-width: 1; stroke: rgb(0, 45, 156);"/><circle r="4" cx="222" cy="396" style="fill: rgb(0, 45, 156);"/><g transform="translate(222, 316)"><g><circle cx="0" cy="0" r="16" style="fill: rgb(0, 45, 156); stroke-width: 0; stroke: transparent; paint-order: stroke;"/><line x1="0" y1="-8" x2="0" y2="8" style="stroke-width: 1.25; stroke: rgb(255, 255, 255);"/><line x1="8" y1="0" x2="-8" y2="0" style="stroke-width: 1.25; stroke: rgb(255, 255, 255);"/></g></g><line x1="222" y1="476" x2="222" y2="516" style="stroke-width: 1; stroke: rgb(0, 45, 156);"/><circle r="4" cx="222" cy="516" style="fill: rgb(0, 45, 156);"/><g transform="translate(222, 476)"><g><circle cx="0" cy="0" r="16" style="fill: rgb(0, 45, 156); stroke-width: 0; stroke: transparent; paint-order: stroke;"/><line x1="0" y1="-8" x2="0" y2="8" style="stroke-width: 1.25; stroke: rgb(255, 255, 255);"/><line x1="8" y1="0" x2="-8" y2="0" style="stroke-width: 1.25; stroke: rgb(255, 255, 255);"/></g></g><line x1="262" y1="76" x2="262" y2="156" style="stroke-width: 1; stroke: rgb(0, 45, 156);"/><circle r="4" cx="262" cy="76" style="fill: rgb(0, 45, 156);"/><g transform="translate(262, 156)"><g><circle cx="0" cy="0" r="16" style="fill: rgb(0, 45, 156); stroke-width: 0; stroke: transparent; paint-order: stroke;"/><line x1="0" y1="-8" x2="0" y2="8" style="stroke-width: 1.25; stroke: rgb(255, 255, 255);"/><line x1="8" y1="0" x2="-8" y2="0" style="stroke-width: 1.25; stroke: rgb(255, 255, 255);"/></g></g><line x1="262" y1="476" x2="262" y2="596" style="stroke-width: 1; stroke: rgb(0, 45, 156);"/><circle r="4" cx="262" cy="476" style="fill: rgb(0, 45, 156);"/><g transform="translate(262, 596)"><g><circle cx="0" cy="0" r="16" style="fill: rgb(0, 45, 156); stroke-width: 0; stroke: transparent; paint-order: stroke;"/><line x1="0" y1="-8" x2="0" y2="8" style="stroke-width: 1.25; stroke: rgb(255, 255, 255);"/><line x1="8" y1="0" x2="-8" y2="0" style="stroke-width: 1.25; stroke: rgb(255, 255, 255);"/></g></g><line x1="302" y1="76" x2="302" y2="116" style="stroke-width: 1; stroke: rgb(0, 45, 156);"/><circle r="4" cx="302" cy="76" style="fill: rgb(0, 45, 156);"/><g transform="translate(302, 116)"><g><circle cx="0" cy="0" r="16" style="fill: rgb(0, 45, 156); stroke-width: 0; stroke: transparent; paint-order: stroke;"/><line x1="0" y1="-8" x2="0" y2="8" style="stroke-width: 1.25; stroke: rgb(255, 255, 255);"/><line x1="8" y1="0" x2="-8" y2="0" style="stroke-width: 1.25; stroke: rgb(255, 255, 255);"/></g></g><g transform="translate(286, 140)"><rect x="0" y="0" width="32" height="32" style="fill: rgb(159, 24, 83); stroke-width: 0; stroke: transparent; paint-order: stroke;"/><path fill-rule="evenodd" clip-rule="evenodd" d="M12.4344 8H25.5V9.25H13.5656L12.0656 24.25H8.92123L8.42123 17.75H7V16.5H9.57877L10.0788 23H10.9344L12.4344 8Z" fill="#ffffff"/><text x="19" y="17" dy=".3em" style="font-family: &quot;IBM Plex Sans&quot;, sans-serif; font-size: 16px; font-style: normal; fill: rgb(255, 255, 255); font-weight: 400; text-anchor: middle;">X</text></g><line x1="302" y1="516" x2="302" y2="596" style="stroke-width: 1; stroke: rgb(0, 45, 156);"/><circle r="4" cx="302" cy="596" style="fill: rgb(0, 45, 156);"/><g transform="translate(302, 516)"><g><circle cx="0" cy="0" r="16" style="fill: rgb(0, 45, 156); stroke-width: 0; stroke: transparent; paint-order: stroke;"/><line x1="0" y1="-8" x2="0" y2="8" style="stroke-width: 1.25; stroke: rgb(255, 255, 255);"/><line x1="8" y1="0" x2="-8" y2="0" style="stroke-width: 1.25; stroke: rgb(255, 255, 255);"/></g></g><line x1="342" y1="156" x2="342" y2="196" style="stroke-width: 1; stroke: rgb(0, 45, 156);"/><circle r="4" cx="342" cy="156" style="fill: rgb(0, 45, 156);"/><g transform="translate(342, 196)"><g><circle cx="0" cy="0" r="16" style="fill: rgb(0, 45, 156); stroke-width: 0; stroke: transparent; paint-order: stroke;"/><line x1="0" y1="-8" x2="0" y2="8" style="stroke-width: 1.25; stroke: rgb(255, 255, 255);"/><line x1="8" y1="0" x2="-8" y2="0" style="stroke-width: 1.25; stroke: rgb(255, 255, 255);"/></g></g><line x1="382" y1="116" x2="382" y2="156" style="stroke-width: 1; stroke: rgb(0, 45, 156);"/><circle r="4" cx="382" cy="116" style="fill: rgb(0, 45, 156);"/><g transform="translate(382, 156)"><g><circle cx="0" cy="0" r="16" style="fill: rgb(0, 45, 156); stroke-width: 0; stroke: transparent; paint-order: stroke;"/><line x1="0" y1="-8" x2="0" y2="8" style="stroke-width: 1.25; stroke: rgb(255, 255, 255);"/><line x1="8" y1="0" x2="-8" y2="0" style="stroke-width: 1.25; stroke: rgb(255, 255, 255);"/></g></g><line x1="382" y1="196" x2="382" y2="396" style="stroke-width: 1; stroke: rgb(0, 45, 156);"/><circle r="4" cx="382" cy="196" style="fill: rgb(0, 45, 156);"/><g transform="translate(382, 396)"><g><circle cx="0" cy="0" r="16" style="fill: rgb(0, 45, 156); stroke-width: 0; stroke: transparent; paint-order: stroke;"/><line x1="0" y1="-8" x2="0" y2="8" style="stroke-width: 1.25; stroke: rgb(255, 255, 255);"/><line x1="8" y1="0" x2="-8" y2="0" style="stroke-width: 1.25; stroke: rgb(255, 255, 255);"/></g></g><line x1="422" y1="156" x2="422" y2="316" style="stroke-width: 1; stroke: rgb(0, 45, 156);"/><circle r="4" cx="422" cy="156" style="fill: rgb(0, 45, 156);"/><g transform="translate(422, 316)"><g><circle cx="0" cy="0" r="16" style="fill: rgb(0, 45, 156); stroke-width: 0; stroke: transparent; paint-order: stroke;"/><line x1="0" y1="-8" x2="0" y2="8" style="stroke-width: 1.25; stroke: rgb(255, 255, 255);"/><line x1="8" y1="0" x2="-8" y2="0" style="stroke-width: 1.25; stroke: rgb(255, 255, 255);"/></g></g><line x1="462" y1="276" x2="462" y2="396" style="stroke-width: 1; stroke: rgb(0, 45, 156);"/><circle r="4" cx="462" cy="276" style="fill: rgb(0, 45, 156);"/><g transform="translate(462, 396)"><g><circle cx="0" cy="0" r="16" style="fill: rgb(0, 45, 156); stroke-width: 0; stroke: transparent; paint-order: stroke;"/><line x1="0" y1="-8" x2="0" y2="8" style="stroke-width: 1.25; stroke: rgb(255, 255, 255);"/><line x1="8" y1="0" x2="-8" y2="0" style="stroke-width: 1.25; stroke: rgb(255, 255, 255);"/></g></g><line x1="502" y1="196" x2="502" y2="396" style="stroke-width: 1; stroke: rgb(0, 45, 156);"/><circle r="4" cx="502" cy="196" style="fill: rgb(0, 45, 156);"/><g transform="translate(502, 396)"><g><circle cx="0" cy="0" r="16" style="fill: rgb(0, 45, 156); stroke-width: 0; stroke: transparent; paint-order: stroke;"/><line x1="0" y1="-8" x2="0" y2="8" style="stroke-width: 1.25; stroke: rgb(255, 255, 255);"/><line x1="8" y1="0" x2="-8" y2="0" style="stroke-width: 1.25; stroke: rgb(255, 255, 255);"/></g></g><line x1="542" y1="276" x2="542" y2="396" style="stroke-width: 1; stroke: rgb(0, 45, 156);"/><circle r="4" cx="542" cy="276" style="fill: rgb(0, 45, 156);"/><g transform="translate(542, 396)"><g><circle cx="0" cy="0" r="16" style="fill: rgb(0, 45, 156); stroke-width: 0; stroke: transparent; paint-order: stroke;"/><line x1="0" y1="-8" x2="0" y2="8" style="stroke-width: 1.25; stroke: rgb(255, 255, 255);"/><line x1="8" y1="0" x2="-8" y2="0" style="stroke-width: 1.25; stroke: rgb(255, 255, 255);"/></g></g><line x1="582" y1="276" x2="582" y2="316" style="stroke-width: 1; stroke: rgb(0, 45, 156);"/><circle r="4" cx="582" cy="276" style="fill: rgb(0, 45, 156);"/><g transform="translate(582, 316)"><g><circle cx="0" cy="0" r="16" style="fill: rgb(0, 45, 156); stroke-width: 0; stroke: transparent; paint-order: stroke;"/><line x1="0" y1="-8" x2="0" y2="8" style="stroke-width: 1.25; stroke: rgb(255, 255, 255);"/><line x1="8" y1="0" x2="-8" y2="0" style="stroke-width: 1.25; stroke: rgb(255, 255, 255);"/></g></g><g transform="translate(566, 380)"><rect x="0" y="0" width="32" height="32" style="fill: rgb(159, 24, 83); stroke-width: 0; stroke: transparent; paint-order: stroke;"/><path fill-rule="evenodd" clip-rule="evenodd" d="M12.4344 8H25.5V9.25H13.5656L12.0656 24.25H8.92123L8.42123 17.75H7V16.5H9.57877L10.0788 23H10.9344L12.4344 8Z" fill="#ffffff"/><text x="19" y="17" dy=".3em" style="font-family: &quot;IBM Plex Sans&quot;, sans-serif; font-size: 16px; font-style: normal; fill: rgb(255, 255, 255); font-weight: 400; text-anchor: middle;">X</text></g><line x1="622" y1="196" x2="622" y2="276" style="stroke-width: 1; stroke: rgb(0, 45, 156);"/><circle r="4" cx="622" cy="276" style="fill: rgb(0, 45, 156);"/><g transform="translate(622, 196)"><g><circle cx="0" cy="0" r="16" style="fill: rgb(0, 45, 156); stroke-width: 0; stroke: transparent; paint-order: stroke;"/><line x1="0" y1="-8" x2="0" y2="8" style="stroke-width: 1.25; stroke: rgb(255, 255, 255);"/><line x1="8" y1="0" x2="-8" y2="0" style="stroke-width: 1.25; stroke: rgb(255, 255, 255);"/></g></g><line x1="622" y1="396" x2="622" y2="476" style="stroke-width: 1; stroke: rgb(0, 45, 156);"/><circle r="4" cx="622" cy="396" style="fill: rgb(0, 45, 156);"/><g transform="translate(622, 476)"><g><circle cx="0" cy="0" r="16" style="fill: rgb(0, 45, 156); stroke-width: 0; stroke: transparent; paint-order: stroke;"/><line x1="0" y1="-8" x2="0" y2="8" style="stroke-width: 1.25; stroke: rgb(255, 255, 255);"/><line x1="8" y1="0" x2="-8" y2="0" style="stroke-width: 1.25; stroke: rgb(255, 255, 255);"/></g></g><line x1="662" y1="196" x2="662" y2="356" style="stroke-width: 1; stroke: rgb(0, 45, 156);"/><circle r="4" cx="662" cy="196" style="fill: rgb(0, 45, 156);"/><g transform="translate(662, 356)"><g><circle cx="0" cy="0" r="16" style="fill: rgb(0, 45, 156); stroke-width: 0; stroke: transparent; paint-order: stroke;"/><line x1="0" y1="-8" x2="0" y2="8" style="stroke-width: 1.25; stroke: rgb(255, 255, 255);"/><line x1="8" y1="0" x2="-8" y2="0" style="stroke-width: 1.25; stroke: rgb(255, 255, 255);"/></g></g><line x1="662" y1="396" x2="662" y2="596" style="stroke-width: 1; stroke: rgb(0, 45, 156);"/><circle r="4" cx="662" cy="396" style="fill: rgb(0, 45, 156);"/><g transform="translate(662, 596)"><g><circle cx="0" cy="0" r="16" style="fill: rgb(0, 45, 156); stroke-width: 0; stroke: transparent; paint-order: stroke;"/><line x1="0" y1="-8" x2="0" y2="8" style="stroke-width: 1.25; stroke: rgb(255, 255, 255);"/><line x1="8" y1="0" x2="-8" y2="0" style="stroke-width: 1.25; stroke: rgb(255, 255, 255);"/></g></g><line x1="702" y1="476" x2="702" y2="556" style="stroke-width: 1; stroke: rgb(0, 45, 156);"/><circle r="4" cx="702" cy="476" style="fill: rgb(0, 45, 156);"/><g transform="translate(702, 556)"><g><circle cx="0" cy="0" r="16" style="fill: rgb(0, 45, 156); stroke-width: 0; stroke: transparent; paint-order: stroke;"/><line x1="0" y1="-8" x2="0" y2="8" style="stroke-width: 1.25; stroke: rgb(255, 255, 255);"/><line x1="8" y1="0" x2="-8" y2="0" style="stroke-width: 1.25; stroke: rgb(255, 255, 255);"/></g></g><line x1="702" y1="196" x2="702" y2="276" style="stroke-width: 1; stroke: rgb(0, 45, 156);"/><circle r="4" cx="702" cy="276" style="fill: rgb(0, 45, 156);"/><g transform="translate(702, 196)"><g><circle cx="0" cy="0" r="16" style="fill: rgb(0, 45, 156); stroke-width: 0; stroke: transparent; paint-order: stroke;"/><line x1="0" y1="-8" x2="0" y2="8" style="stroke-width: 1.25; stroke: rgb(255, 255, 255);"/><line x1="8" y1="0" x2="-8" y2="0" style="stroke-width: 1.25; stroke: rgb(255, 255, 255);"/></g></g><line x1="742" y1="396" x2="742" y2="476" style="stroke-width: 1; stroke: rgb(0, 45, 156);"/><circle r="4" cx="742" cy="396" style="fill: rgb(0, 45, 156);"/><g transform="translate(742, 476)"><g><circle cx="0" cy="0" r="16" style="fill: rgb(0, 45, 156); stroke-width: 0; stroke: transparent; paint-order: stroke;"/><line x1="0" y1="-8" x2="0" y2="8" style="stroke-width: 1.25; stroke: rgb(255, 255, 255);"/><line x1="8" y1="0" x2="-8" y2="0" style="stroke-width: 1.25; stroke: rgb(255, 255, 255);"/></g></g><line x1="742" y1="156" x2="742" y2="276" style="stroke-width: 1; stroke: rgb(0, 45, 156);"/><circle r="4" cx="742" cy="156" style="fill: rgb(0, 45, 156);"/><g transform="translate(742, 276)"><g><circle cx="0" cy="0" r="16" style="fill: rgb(0, 45, 156); stroke-width: 0; stroke: transparent; paint-order: stroke;"/><line x1="0" y1="-8" x2="0" y2="8" style="stroke-width: 1.25; stroke: rgb(255, 255, 255);"/><line x1="8" y1="0" x2="-8" y2="0" style="stroke-width: 1.25; stroke: rgb(255, 255, 255);"/></g></g><line x1="782" y1="476" x2="782" y2="596" style="stroke-width: 1; stroke: rgb(0, 45, 156);"/><circle r="4" cx="782" cy="476" style="fill: rgb(0, 45, 156);"/><g transform="translate(782, 596)"><g><circle cx="0" cy="0" r="16" style="fill: rgb(0, 45, 156); stroke-width: 0; stroke: transparent; paint-order: stroke;"/><line x1="0" y1="-8" x2="0" y2="8" style="stroke-width: 1.25; stroke: rgb(255, 255, 255);"/><line x1="8" y1="0" x2="-8" y2="0" style="stroke-width: 1.25; stroke: rgb(255, 255, 255);"/></g></g><line x1="782" y1="156" x2="782" y2="316" style="stroke-width: 1; stroke: rgb(0, 45, 156);"/><circle r="4" cx="782" cy="156" style="fill: rgb(0, 45, 156);"/><g transform="translate(782, 316)"><g><circle cx="0" cy="0" r="16" style="fill: rgb(0, 45, 156); stroke-width: 0; stroke: transparent; paint-order: stroke;"/><line x1="0" y1="-8" x2="0" y2="8" style="stroke-width: 1.25; stroke: rgb(255, 255, 255);"/><line x1="8" y1="0" x2="-8" y2="0" style="stroke-width: 1.25; stroke: rgb(255, 255, 255);"/></g></g><line x1="822" y1="396" x2="822" y2="596" style="stroke-width: 1; stroke: rgb(0, 45, 156);"/><circle r="4" cx="822" cy="396" style="fill: rgb(0, 45, 156);"/><g transform="translate(822, 596)"><g><circle cx="0" cy="0" r="16" style="fill: rgb(0, 45, 156); stroke-width: 0; stroke: transparent; paint-order: stroke;"/><line x1="0" y1="-8" x2="0" y2="8" style="stroke-width: 1.25; stroke: rgb(255, 255, 255);"/><line x1="8" y1="0" x2="-8" y2="0" style="stroke-width: 1.25; stroke: rgb(255, 255, 255);"/></g></g><line x1="822" y1="276" x2="822" y2="356" style="stroke-width: 1; stroke: rgb(0, 45, 156);"/><circle r="4" cx="822" cy="356" style="fill: rgb(0, 45, 156);"/><g transform="translate(822, 276)"><g><circle cx="0" cy="0" r="16" style="fill: rgb(0, 45, 156); stroke-width: 0; stroke: transparent; paint-order: stroke;"/><line x1="0" y1="-8" x2="0" y2="8" style="stroke-width: 1.25; stroke: rgb(255, 255, 255);"/><line x1="8" y1="0" x2="-8" y2="0" style="stroke-width: 1.25; stroke: rgb(255, 255, 255);"/></g></g><g transform="translate(846, 300)"><rect x="0" y="0" width="32" height="32" style="fill: rgb(159, 24, 83); stroke-width: 0; stroke: transparent; paint-order: stroke;"/><path fill-rule="evenodd" clip-rule="evenodd" d="M12.4344 8H25.5V9.25H13.5656L12.0656 24.25H8.92123L8.42123 17.75H7V16.5H9.57877L10.0788 23H10.9344L12.4344 8Z" fill="#ffffff"/><text x="19" y="17" dy=".3em" style="font-family: &quot;IBM Plex Sans&quot;, sans-serif; font-size: 16px; font-style: normal; fill: rgb(255, 255, 255); font-weight: 400; text-anchor: middle;">X</text></g><g transform="translate(846, 340)"><rect x="0" y="0" width="32" height="32" style="fill: rgb(159, 24, 83); stroke-width: 0; stroke: transparent; paint-order: stroke;"/><path fill-rule="evenodd" clip-rule="evenodd" d="M12.4344 8H25.5V9.25H13.5656L12.0656 24.25H8.92123L8.42123 17.75H7V16.5H9.57877L10.0788 23H10.9344L12.4344 8Z" fill="#ffffff"/><text x="19" y="17" dy=".3em" style="font-family: &quot;IBM Plex Sans&quot;, sans-serif; font-size: 16px; font-style: normal; fill: rgb(255, 255, 255); font-weight: 400; text-anchor: middle;">X</text></g><line x1="902" y1="36" x2="902" y2="356" style="stroke-width: 1; stroke: rgb(0, 45, 156);"/><circle r="4" cx="902" cy="36" style="fill: rgb(0, 45, 156);"/><g transform="translate(902, 356)"><g><circle cx="0" cy="0" r="16" style="fill: rgb(0, 45, 156); stroke-width: 0; stroke: transparent; paint-order: stroke;"/><line x1="0" y1="-8" x2="0" y2="8" style="stroke-width: 1.25; stroke: rgb(255, 255, 255);"/><line x1="8" y1="0" x2="-8" y2="0" style="stroke-width: 1.25; stroke: rgb(255, 255, 255);"/></g></g><line x1="942" y1="316" x2="942" y2="516" style="stroke-width: 1; stroke: rgb(0, 45, 156);"/><circle r="4" cx="942" cy="316" style="fill: rgb(0, 45, 156);"/><g transform="translate(942, 516)"><g><circle cx="0" cy="0" r="16" style="fill: rgb(0, 45, 156); stroke-width: 0; stroke: transparent; paint-order: stroke;"/><line x1="0" y1="-8" x2="0" y2="8" style="stroke-width: 1.25; stroke: rgb(255, 255, 255);"/><line x1="8" y1="0" x2="-8" y2="0" style="stroke-width: 1.25; stroke: rgb(255, 255, 255);"/></g></g><line x1="982" y1="276" x2="982" y2="356" style="stroke-width: 1; stroke: rgb(0, 45, 156);"/><circle r="4" cx="982" cy="276" style="fill: rgb(0, 45, 156);"/><g transform="translate(982, 356)"><g><circle cx="0" cy="0" r="16" style="fill: rgb(0, 45, 156); stroke-width: 0; stroke: transparent; paint-order: stroke;"/><line x1="0" y1="-8" x2="0" y2="8" style="stroke-width: 1.25; stroke: rgb(255, 255, 255);"/><line x1="8" y1="0" x2="-8" y2="0" style="stroke-width: 1.25; stroke: rgb(255, 255, 255);"/></g></g><line x1="982" y1="476" x2="982" y2="516" style="stroke-width: 1; stroke: rgb(0, 45, 156);"/><circle r="4" cx="982" cy="476" style="fill: rgb(0, 45, 156);"/><g transform="translate(982, 516)"><g><circle cx="0" cy="0" r="16" style="fill: rgb(0, 45, 156); stroke-width: 0; stroke: transparent; paint-order: stroke;"/><line x1="0" y1="-8" x2="0" y2="8" style="stroke-width: 1.25; stroke: rgb(255, 255, 255);"/><line x1="8" y1="0" x2="-8" y2="0" style="stroke-width: 1.25; stroke: rgb(255, 255, 255);"/></g></g><line x1="1022" y1="36" x2="1022" y2="356" style="stroke-width: 1; stroke: rgb(0, 45, 156);"/><circle r="4" cx="1022" cy="36" style="fill: rgb(0, 45, 156);"/><g transform="translate(1022, 356)"><g><circle cx="0" cy="0" r="16" style="fill: rgb(0, 45, 156); stroke-width: 0; stroke: transparent; paint-order: stroke;"/><line x1="0" y1="-8" x2="0" y2="8" style="stroke-width: 1.25; stroke: rgb(255, 255, 255);"/><line x1="8" y1="0" x2="-8" y2="0" style="stroke-width: 1.25; stroke: rgb(255, 255, 255);"/></g></g><line x1="1062" y1="316" x2="1062" y2="516" style="stroke-width: 1; stroke: rgb(0, 45, 156);"/><circle r="4" cx="1062" cy="316" style="fill: rgb(0, 45, 156);"/><g transform="translate(1062, 516)"><g><circle cx="0" cy="0" r="16" style="fill: rgb(0, 45, 156); stroke-width: 0; stroke: transparent; paint-order: stroke;"/><line x1="0" y1="-8" x2="0" y2="8" style="stroke-width: 1.25; stroke: rgb(255, 255, 255);"/><line x1="8" y1="0" x2="-8" y2="0" style="stroke-width: 1.25; stroke: rgb(255, 255, 255);"/></g></g><line x1="1102" y1="316" x2="1102" y2="476" style="stroke-width: 1; stroke: rgb(0, 45, 156);"/><circle r="4" cx="1102" cy="316" style="fill: rgb(0, 45, 156);"/><g transform="translate(1102, 476)"><g><circle cx="0" cy="0" r="16" style="fill: rgb(0, 45, 156); stroke-width: 0; stroke: transparent; paint-order: stroke;"/><line x1="0" y1="-8" x2="0" y2="8" style="stroke-width: 1.25; stroke: rgb(255, 255, 255);"/><line x1="8" y1="0" x2="-8" y2="0" style="stroke-width: 1.25; stroke: rgb(255, 255, 255);"/></g></g><g transform="translate(1086, 500)"><rect x="0" y="0" width="32" height="32" style="fill: rgb(159, 24, 83); stroke-width: 0; stroke: transparent; paint-order: stroke;"/><path fill-rule="evenodd" clip-rule="evenodd" d="M12.4344 8H25.5V9.25H13.5656L12.0656 24.25H8.92123L8.42123 17.75H7V16.5H9.57877L10.0788 23H10.9344L12.4344 8Z" fill="#ffffff"/><text x="19" y="17" dy=".3em" style="font-family: &quot;IBM Plex Sans&quot;, sans-serif; font-size: 16px; font-style: normal; fill: rgb(255, 255, 255); font-weight: 400; text-anchor: middle;">X</text></g><g transform="translate(1126, 340)"><rect x="0" y="0" width="32" height="32" style="fill: rgb(159, 24, 83); stroke-width: 0; stroke: transparent; paint-order: stroke;"/><path fill-rule="evenodd" clip-rule="evenodd" d="M12.4344 8H25.5V9.25H13.5656L12.0656 24.25H8.92123L8.42123 17.75H7V16.5H9.57877L10.0788 23H10.9344L12.4344 8Z" fill="#ffffff"/><text x="19" y="17" dy=".3em" style="font-family: &quot;IBM Plex Sans&quot;, sans-serif; font-size: 16px; font-style: normal; fill: rgb(255, 255, 255); font-weight: 400; text-anchor: middle;">X</text></g><line x1="1142" y1="476" x2="1142" y2="556" style="stroke-width: 1; stroke: rgb(0, 45, 156);"/><circle r="4" cx="1142" cy="556" style="fill: rgb(0, 45, 156);"/><g transform="translate(1142, 476)"><g><circle cx="0" cy="0" r="16" style="fill: rgb(0, 45, 156); stroke-width: 0; stroke: transparent; paint-order: stroke;"/><line x1="0" y1="-8" x2="0" y2="8" style="stroke-width: 1.25; stroke: rgb(255, 255, 255);"/><line x1="8" y1="0" x2="-8" y2="0" style="stroke-width: 1.25; stroke: rgb(255, 255, 255);"/></g></g><line x1="1182" y1="516" x2="1182" y2="596" style="stroke-width: 1; stroke: rgb(0, 45, 156);"/><circle r="4" cx="1182" cy="516" style="fill: rgb(0, 45, 156);"/><g transform="translate(1182, 596)"><g><circle cx="0" cy="0" r="16" style="fill: rgb(0, 45, 156); stroke-width: 0; stroke: transparent; paint-order: stroke;"/><line x1="0" y1="-8" x2="0" y2="8" style="stroke-width: 1.25; stroke: rgb(255, 255, 255);"/><line x1="8" y1="0" x2="-8" y2="0" style="stroke-width: 1.25; stroke: rgb(255, 255, 255);"/></g></g><g transform="translate(1206, 500)"><rect x="0" y="0" width="32" height="32" style="fill: rgb(159, 24, 83); stroke-width: 0; stroke: transparent; paint-order: stroke;"/><path fill-rule="evenodd" clip-rule="evenodd" d="M12.4344 8H25.5V9.25H13.5656L12.0656 24.25H8.92123L8.42123 17.75H7V16.5H9.57877L10.0788 23H10.9344L12.4344 8Z" fill="#ffffff"/><text x="19" y="17" dy=".3em" style="font-family: &quot;IBM Plex Sans&quot;, sans-serif; font-size: 16px; font-style: normal; fill: rgb(255, 255, 255); font-weight: 400; text-anchor: middle;">X</text></g><g transform="translate(1206, 540)"><rect x="0" y="0" width="32" height="32" style="fill: rgb(159, 24, 83); stroke-width: 0; stroke: transparent; paint-order: stroke;"/><path fill-rule="evenodd" clip-rule="evenodd" d="M12.4344 8H25.5V9.25H13.5656L12.0656 24.25H8.92123L8.42123 17.75H7V16.5H9.57877L10.0788 23H10.9344L12.4344 8Z" fill="#ffffff"/><text x="19" y="17" dy=".3em" style="font-family: &quot;IBM Plex Sans&quot;, sans-serif; font-size: 16px; font-style: normal; fill: rgb(255, 255, 255); font-weight: 400; text-anchor: middle;">X</text></g><g transform="translate(1206, 580)"><rect x="0" y="0" width="32" height="32" style="fill: rgb(159, 24, 83); stroke-width: 0; stroke: transparent; paint-order: stroke;"/><path fill-rule="evenodd" clip-rule="evenodd" d="M12.4344 8H25.5V9.25H13.5656L12.0656 24.25H8.92123L8.42123 17.75H7V16.5H9.57877L10.0788 23H10.9344L12.4344 8Z" fill="#ffffff"/><text x="19" y="17" dy=".3em" style="font-family: &quot;IBM Plex Sans&quot;, sans-serif; font-size: 16px; font-style: normal; fill: rgb(255, 255, 255); font-weight: 400; text-anchor: middle;">X</text></g><line x1="1262" y1="36" x2="1262" y2="556" style="stroke-width: 1; stroke: rgb(0, 45, 156);"/><circle r="4" cx="1262" cy="36" style="fill: rgb(0, 45, 156);"/><g transform="translate(1262, 556)"><g><circle cx="0" cy="0" r="16" style="fill: rgb(0, 45, 156); stroke-width: 0; stroke: transparent; paint-order: stroke;"/><line x1="0" y1="-8" x2="0" y2="8" style="stroke-width: 1.25; stroke: rgb(255, 255, 255);"/><line x1="8" y1="0" x2="-8" y2="0" style="stroke-width: 1.25; stroke: rgb(255, 255, 255);"/></g></g><line x1="1302" y1="36" x2="1302" y2="596" style="stroke-width: 1; stroke: rgb(0, 45, 156);"/><circle r="4" cx="1302" cy="36" style="fill: rgb(0, 45, 156);"/><g transform="translate(1302, 596)"><g><circle cx="0" cy="0" r="16" style="fill: rgb(0, 45, 156); stroke-width: 0; stroke: transparent; paint-order: stroke;"/><line x1="0" y1="-8" x2="0" y2="8" style="stroke-width: 1.25; stroke: rgb(255, 255, 255);"/><line x1="8" y1="0" x2="-8" y2="0" style="stroke-width: 1.25; stroke: rgb(255, 255, 255);"/></g></g><line x1="1342" y1="476" x2="1342" y2="556" style="stroke-width: 1; stroke: rgb(0, 45, 156);"/><circle r="4" cx="1342" cy="476" style="fill: rgb(0, 45, 156);"/><g transform="translate(1342, 556)"><g><circle cx="0" cy="0" r="16" style="fill: rgb(0, 45, 156); stroke-width: 0; stroke: transparent; paint-order: stroke;"/><line x1="0" y1="-8" x2="0" y2="8" style="stroke-width: 1.25; stroke: rgb(255, 255, 255);"/><line x1="8" y1="0" x2="-8" y2="0" style="stroke-width: 1.25; stroke: rgb(255, 255, 255);"/></g></g><line x1="1342" y1="36" x2="1342" y2="116" style="stroke-width: 1; stroke: rgb(0, 45, 156);"/><circle r="4" cx="1342" cy="36" style="fill: rgb(0, 45, 156);"/><g transform="translate(1342, 116)"><g><circle cx="0" cy="0" r="16" style="fill: rgb(0, 45, 156); stroke-width: 0; stroke: transparent; paint-order: stroke;"/><line x1="0" y1="-8" x2="0" y2="8" style="stroke-width: 1.25; stroke: rgb(255, 255, 255);"/><line x1="8" y1="0" x2="-8" y2="0" style="stroke-width: 1.25; stroke: rgb(255, 255, 255);"/></g></g><line x1="1382" y1="516" x2="1382" y2="596" style="stroke-width: 1; stroke: rgb(0, 45, 156);"/><circle r="4" cx="1382" cy="516" style="fill: rgb(0, 45, 156);"/><g transform="translate(1382, 596)"><g><circle cx="0" cy="0" r="16" style="fill: rgb(0, 45, 156); stroke-width: 0; stroke: transparent; paint-order: stroke;"/><line x1="0" y1="-8" x2="0" y2="8" style="stroke-width: 1.25; stroke: rgb(255, 255, 255);"/><line x1="8" y1="0" x2="-8" y2="0" style="stroke-width: 1.25; stroke: rgb(255, 255, 255);"/></g></g><line x1="1422" y1="36" x2="1422" y2="556" style="stroke-width: 1; stroke: rgb(0, 45, 156);"/><circle r="4" cx="1422" cy="36" style="fill: rgb(0, 45, 156);"/><g transform="translate(1422, 556)"><g><circle cx="0" cy="0" r="16" style="fill: rgb(0, 45, 156); stroke-width: 0; stroke: transparent; paint-order: stroke;"/><line x1="0" y1="-8" x2="0" y2="8" style="stroke-width: 1.25; stroke: rgb(255, 255, 255);"/><line x1="8" y1="0" x2="-8" y2="0" style="stroke-width: 1.25; stroke: rgb(255, 255, 255);"/></g></g><line x1="1462" y1="36" x2="1462" y2="596" style="stroke-width: 1; stroke: rgb(0, 45, 156);"/><circle r="4" cx="1462" cy="36" style="fill: rgb(0, 45, 156);"/><g transform="translate(1462, 596)"><g><circle cx="0" cy="0" r="16" style="fill: rgb(0, 45, 156); stroke-width: 0; stroke: transparent; paint-order: stroke;"/><line x1="0" y1="-8" x2="0" y2="8" style="stroke-width: 1.25; stroke: rgb(255, 255, 255);"/><line x1="8" y1="0" x2="-8" y2="0" style="stroke-width: 1.25; stroke: rgb(255, 255, 255);"/></g></g><g transform="translate(1486, 540)"><rect x="0" y="0" width="32" height="32" style="fill: rgb(159, 24, 83); stroke-width: 0; stroke: transparent; paint-order: stroke;"/><path fill-rule="evenodd" clip-rule="evenodd" d="M12.4344 8H25.5V9.25H13.5656L12.0656 24.25H8.92123L8.42123 17.75H7V16.5H9.57877L10.0788 23H10.9344L12.4344 8Z" fill="#ffffff"/><text x="19" y="17" dy=".3em" style="font-family: &quot;IBM Plex Sans&quot;, sans-serif; font-size: 16px; font-style: normal; fill: rgb(255, 255, 255); font-weight: 400; text-anchor: middle;">X</text></g><line x1="1502" y1="36" x2="1502" y2="276" style="stroke-width: 1; stroke: rgb(0, 45, 156);"/><circle r="4" cx="1502" cy="36" style="fill: rgb(0, 45, 156);"/><g transform="translate(1502, 276)"><g><circle cx="0" cy="0" r="16" style="fill: rgb(0, 45, 156); stroke-width: 0; stroke: transparent; paint-order: stroke;"/><line x1="0" y1="-8" x2="0" y2="8" style="stroke-width: 1.25; stroke: rgb(255, 255, 255);"/><line x1="8" y1="0" x2="-8" y2="0" style="stroke-width: 1.25; stroke: rgb(255, 255, 255);"/></g></g><g transform="translate(1486, 580)"><rect x="0" y="0" width="32" height="32" style="fill: rgb(159, 24, 83); stroke-width: 0; stroke: transparent; paint-order: stroke;"/><path fill-rule="evenodd" clip-rule="evenodd" d="M12.4344 8H25.5V9.25H13.5656L12.0656 24.25H8.92123L8.42123 17.75H7V16.5H9.57877L10.0788 23H10.9344L12.4344 8Z" fill="#ffffff"/><text x="19" y="17" dy=".3em" style="font-family: &quot;IBM Plex Sans&quot;, sans-serif; font-size: 16px; font-style: normal; fill: rgb(255, 255, 255); font-weight: 400; text-anchor: middle;">X</text></g><line x1="1542" y1="276" x2="1542" y2="356" style="stroke-width: 1; stroke: rgb(0, 45, 156);"/><circle r="4" cx="1542" cy="356" style="fill: rgb(0, 45, 156);"/><g transform="translate(1542, 276)"><g><circle cx="0" cy="0" r="16" style="fill: rgb(0, 45, 156); stroke-width: 0; stroke: transparent; paint-order: stroke;"/><line x1="0" y1="-8" x2="0" y2="8" style="stroke-width: 1.25; stroke: rgb(255, 255, 255);"/><line x1="8" y1="0" x2="-8" y2="0" style="stroke-width: 1.25; stroke: rgb(255, 255, 255);"/></g></g><line x1="1582" y1="36" x2="1582" y2="276" style="stroke-width: 1; stroke: rgb(0, 45, 156);"/><circle r="4" cx="1582" cy="36" style="fill: rgb(0, 45, 156);"/><g transform="translate(1582, 276)"><g><circle cx="0" cy="0" r="16" style="fill: rgb(0, 45, 156); stroke-width: 0; stroke: transparent; paint-order: stroke;"/><line x1="0" y1="-8" x2="0" y2="8" style="stroke-width: 1.25; stroke: rgb(255, 255, 255);"/><line x1="8" y1="0" x2="-8" y2="0" style="stroke-width: 1.25; stroke: rgb(255, 255, 255);"/></g></g><line x1="1622" y1="36" x2="1622" y2="476" style="stroke-width: 1; stroke: rgb(0, 45, 156);"/><circle r="4" cx="1622" cy="36" style="fill: rgb(0, 45, 156);"/><g transform="translate(1622, 476)"><g><circle cx="0" cy="0" r="16" style="fill: rgb(0, 45, 156); stroke-width: 0; stroke: transparent; paint-order: stroke;"/><line x1="0" y1="-8" x2="0" y2="8" style="stroke-width: 1.25; stroke: rgb(255, 255, 255);"/><line x1="8" y1="0" x2="-8" y2="0" style="stroke-width: 1.25; stroke: rgb(255, 255, 255);"/></g></g><line x1="1662" y1="36" x2="1662" y2="516" style="stroke-width: 1; stroke: rgb(0, 45, 156);"/><circle r="4" cx="1662" cy="36" style="fill: rgb(0, 45, 156);"/><g transform="translate(1662, 516)"><g><circle cx="0" cy="0" r="16" style="fill: rgb(0, 45, 156); stroke-width: 0; stroke: transparent; paint-order: stroke;"/><line x1="0" y1="-8" x2="0" y2="8" style="stroke-width: 1.25; stroke: rgb(255, 255, 255);"/><line x1="8" y1="0" x2="-8" y2="0" style="stroke-width: 1.25; stroke: rgb(255, 255, 255);"/></g></g><line x1="1702" y1="36" x2="1702" y2="476" style="stroke-width: 1; stroke: rgb(0, 45, 156);"/><circle r="4" cx="1702" cy="36" style="fill: rgb(0, 45, 156);"/><g transform="translate(1702, 476)"><g><circle cx="0" cy="0" r="16" style="fill: rgb(0, 45, 156); stroke-width: 0; stroke: transparent; paint-order: stroke;"/><line x1="0" y1="-8" x2="0" y2="8" style="stroke-width: 1.25; stroke: rgb(255, 255, 255);"/><line x1="8" y1="0" x2="-8" y2="0" style="stroke-width: 1.25; stroke: rgb(255, 255, 255);"/></g></g><line x1="1742" y1="36" x2="1742" y2="516" style="stroke-width: 1; stroke: rgb(0, 45, 156);"/><circle r="4" cx="1742" cy="36" style="fill: rgb(0, 45, 156);"/><g transform="translate(1742, 516)"><g><circle cx="0" cy="0" r="16" style="fill: rgb(0, 45, 156); stroke-width: 0; stroke: transparent; paint-order: stroke;"/><line x1="0" y1="-8" x2="0" y2="8" style="stroke-width: 1.25; stroke: rgb(255, 255, 255);"/><line x1="8" y1="0" x2="-8" y2="0" style="stroke-width: 1.25; stroke: rgb(255, 255, 255);"/></g></g><line x1="1782" y1="476" x2="1782" y2="556" style="stroke-width: 1; stroke: rgb(0, 45, 156);"/><circle r="4" cx="1782" cy="556" style="fill: rgb(0, 45, 156);"/><g transform="translate(1782, 476)"><g><circle cx="0" cy="0" r="16" style="fill: rgb(0, 45, 156); stroke-width: 0; stroke: transparent; paint-order: stroke;"/><line x1="0" y1="-8" x2="0" y2="8" style="stroke-width: 1.25; stroke: rgb(255, 255, 255);"/><line x1="8" y1="0" x2="-8" y2="0" style="stroke-width: 1.25; stroke: rgb(255, 255, 255);"/></g></g><line x1="1822" y1="516" x2="1822" y2="596" style="stroke-width: 1; stroke: rgb(0, 45, 156);"/><circle r="4" cx="1822" cy="596" style="fill: rgb(0, 45, 156);"/><g transform="translate(1822, 516)"><g><circle cx="0" cy="0" r="16" style="fill: rgb(0, 45, 156); stroke-width: 0; stroke: transparent; paint-order: stroke;"/><line x1="0" y1="-8" x2="0" y2="8" style="stroke-width: 1.25; stroke: rgb(255, 255, 255);"/><line x1="8" y1="0" x2="-8" y2="0" style="stroke-width: 1.25; stroke: rgb(255, 255, 255);"/></g></g></g></svg>