<svg xmlns="http://www.w3.org/2000/svg" class="" viewBox="0 0 1696.4 400" width="1696.4" height="400" aria-label="Circuit visualization" style="display: block; user-select: none;"><defs xmlns="http://www.w3.org/1999/xhtml"><style type="text/css">&lt;!--/*--&gt;&lt;![CDATA[/*&gt;&lt;!--*/

  /* from https://fonts.googleapis.com/css2?family=IBM+Plex+Sans&amp;display=swap */
  @font-face {
    font-family: 'IBM Plex Sans';
    font-style: normal;
    font-weight: 400;
    font-display: swap;
    src: url(https://fonts.gstatic.com/s/ibmplexsans/v14/zYXgKVElMYYaJe8bpLHnCwDKhdHeFaxOedc.woff2) format('woff2');
  }
  
  /* from https://fonts.googleapis.com/css2?family=IBM+Plex+Mono&amp;display=swap */
  @font-face {
    font-family: 'IBM Plex Mono';
    font-style: normal;
    font-weight: 400;
    font-display: swap;
    src: url(https://fonts.gstatic.com/s/ibmplexmono/v12/-F63fjptAgt5VM-kVkqdyU8n1i8q131nj-o.woff2) format('woff2');
  }    

/*]]&gt;*/--&gt;</style></defs><rect x="0" y="0" width="1696.4" height="400" style="fill: rgb(255, 255, 255);"/><g><g transform="translate(20, 0)"><g><g><text x="38.4" y="36" dy=".3em" style="fill: rgb(111, 111, 111); font-family: &quot;IBM Plex Mono&quot;, monospace; font-weight: 400; text-anchor: end; font-size: 14px;"><tspan>q[0]</tspan></text><text x="38.4" y="76" dy=".3em" style="fill: rgb(111, 111, 111); font-family: &quot;IBM Plex Mono&quot;, monospace; font-weight: 400; text-anchor: end; font-size: 14px;"><tspan>q[1]</tspan></text><text x="38.4" y="116" dy=".3em" style="fill: rgb(111, 111, 111); font-family: &quot;IBM Plex Mono&quot;, monospace; font-weight: 400; text-anchor: end; font-size: 14px;"><tspan>q[2]</tspan></text><text x="38.4" y="156" dy=".3em" style="fill: rgb(111, 111, 111); font-family: &quot;IBM Plex Mono&quot;, monospace; font-weight: 400; text-anchor: end; font-size: 14px;"><tspan>q[3]</tspan></text><text x="38.4" y="196" dy=".3em" style="fill: rgb(111, 111, 111); font-family: &quot;IBM Plex Mono&quot;, monospace; font-weight: 400; text-anchor: end; font-size: 14px;"><tspan>q[4]</tspan></text><text x="38.4" y="236" dy=".3em" style="fill: rgb(111, 111, 111); font-family: &quot;IBM Plex Mono&quot;, monospace; font-weight: 400; text-anchor: end; font-size: 14px;"><tspan>q[5]</tspan></text><text x="38.4" y="276" dy=".3em" style="fill: rgb(111, 111, 111); font-family: &quot;IBM Plex Mono&quot;, monospace; font-weight: 400; text-anchor: end; font-size: 14px;"><tspan>q[6]</tspan></text><text x="38.4" y="316" dy=".3em" style="fill: rgb(111, 111, 111); font-family: &quot;IBM Plex Mono&quot;, monospace; font-weight: 400; text-anchor: end; font-size: 14px;"><tspan>q[7]</tspan></text><text x="38.4" y="356" dy=".3em" style="fill: rgb(111, 111, 111); font-family: &quot;IBM Plex Mono&quot;, monospace; font-weight: 400; text-anchor: end; font-size: 14px;"><tspan>q[8]</tspan></text></g><g/></g></g><g><g><line x1="68.4" x2="1676.4" y1="36" y2="36" style="fill: none; stroke: rgb(224, 224, 224); stroke-width: 1; stroke-linecap: round;"/><line x1="68.4" x2="1676.4" y1="76" y2="76" style="fill: none; stroke: rgb(224, 224, 224); stroke-width: 1; stroke-linecap: round;"/><line x1="68.4" x2="1676.4" y1="116" y2="116" style="fill: none; stroke: rgb(224, 224, 224); stroke-width: 1; stroke-linecap: round;"/><line x1="68.4" x2="1676.4" y1="156" y2="156" style="fill: none; stroke: rgb(224, 224, 224); stroke-width: 1; stroke-linecap: round;"/><line x1="68.4" x2="1676.4" y1="196" y2="196" style="fill: none; stroke: rgb(224, 224, 224); stroke-width: 1; stroke-linecap: round;"/><line x1="68.4" x2="1676.4" y1="236" y2="236" style="fill: none; stroke: rgb(224, 224, 224); stroke-width: 1; stroke-linecap: round;"/><line x1="68.4" x2="1676.4" y1="276" y2="276" style="fill: none; stroke: rgb(224, 224, 224); stroke-width: 1; stroke-linecap: round;"/><line x1="68.4" x2="1676.4" y1="316" y2="316" style="fill: none; stroke: rgb(224, 224, 224); stroke-width: 1; stroke-linecap: round;"/><line x1="68.4" x2="1676.4" y1="356" y2="356" style="fill: none; stroke: rgb(224, 224, 224); stroke-width: 1; stroke-linecap: round;"/></g></g><line x1="92.4" y1="36" x2="92.4" y2="116" style="stroke-width: 1; stroke: rgb(0, 45, 156);"/><circle r="4" cx="92.4" cy="36" style="fill: rgb(0, 45, 156);"/><g transform="translate(92.4, 116)"><g><circle cx="0" cy="0" r="16" style="fill: rgb(0, 45, 156); stroke-width: 0; stroke: transparent; paint-order: stroke;"/><line x1="0" y1="-8" x2="0" y2="8" style="stroke-width: 1.25; stroke: rgb(255, 255, 255);"/><line x1="8" y1="0" x2="-8" y2="0" style="stroke-width: 1.25; stroke: rgb(255, 255, 255);"/></g></g><g transform="translate(76.4, 340)"><rect x="0" y="0" width="32" height="32" style="fill: rgb(159, 24, 83); stroke-width: 0; stroke: transparent; paint-order: stroke;"/><path fill-rule="evenodd" clip-rule="evenodd" d="M12.4344 8H25.5V9.25H13.5656L12.0656 24.25H8.92123L8.42123 17.75H7V16.5H9.57877L10.0788 23H10.9344L12.4344 8Z" fill="#ffffff"/><text x="19" y="17" dy=".3em" style="font-family: &quot;IBM Plex Sans&quot;, sans-serif; font-size: 16px; font-style: normal; fill: rgb(255, 255, 255); font-weight: 400; text-anchor: middle;">X</text></g><line x1="132.4" y1="76" x2="132.4" y2="276" style="stroke-width: 1; stroke: rgb(0, 45, 156);"/><circle r="4" cx="132.4" cy="76" style="fill: rgb(0, 45, 156);"/><g transform="translate(132.4, 276)"><g><circle cx="0" cy="0" r="16" style="fill: rgb(0, 45, 156); stroke-width: 0; stroke: transparent; paint-order: stroke;"/><line x1="0" y1="-8" x2="0" y2="8" style="stroke-width: 1.25; stroke: rgb(255, 255, 255);"/><line x1="8" y1="0" x2="-8" y2="0" style="stroke-width: 1.25; stroke: rgb(255, 255, 255);"/></g></g><line x1="172.4" y1="116" x2="172.4" y2="316" style="stroke-width: 1; stroke: rgb(0, 45, 156);"/><circle r="4" cx="172.4" cy="116" style="fill: rgb(0, 45, 156);"/><g transform="translate(172.4, 316)"><g><circle cx="0" cy="0" r="16" style="fill: rgb(0, 45, 156); stroke-width: 0; stroke: transparent; paint-order: stroke;"/><line x1="0" y1="-8" x2="0" y2="8" style="stroke-width: 1.25; stroke: rgb(255, 255, 255);"/><line x1="8" y1="0" x2="-8" y2="0" style="stroke-width: 1.25; stroke: rgb(255, 255, 255);"/></g></g><g transform="translate(196.4, 260)"><rect x="0" y="0" width="32" height="32" style="fill: rgb(159, 24, 83); stroke-width: 0; stroke: transparent; paint-order: stroke;"/><path fill-rule="evenodd" clip-rule="evenodd" d="M12.4344 8H25.5V9.25H13.5656L12.0656 24.25H8.92123L8.42123 17.75H7V16.5H9.57877L10.0788 23H10.9344L12.4344 8Z" fill="#ffffff"/><text x="19" y="17" dy=".3em" style="font-family: &quot;IBM Plex Sans&quot;, sans-serif; font-size: 16px; font-style: normal; fill: rgb(255, 255, 255); font-weight: 400; text-anchor: middle;">X</text></g><g transform="translate(196.4, 300)"><rect x="0" y="0" width="32" height="32" style="fill: rgb(159, 24, 83); stroke-width: 0; stroke: transparent; paint-order: stroke;"/><path fill-rule="evenodd" clip-rule="evenodd" d="M12.4344 8H25.5V9.25H13.5656L12.0656 24.25H8.92123L8.42123 17.75H7V16.5H9.57877L10.0788 23H10.9344L12.4344 8Z" fill="#ffffff"/><text x="19" y="17" dy=".3em" style="font-family: &quot;IBM Plex Sans&quot;, sans-serif; font-size: 16px; font-style: normal; fill: rgb(255, 255, 255); font-weight: 400; text-anchor: middle;">X</text></g><line x1="252.4" y1="36" x2="252.4" y2="316" style="stroke-width: 1; stroke: rgb(0, 45, 156);"/><circle r="4" cx="252.4" cy="36" style="fill: rgb(0, 45, 156);"/><g transform="translate(252.4, 316)"><g><circle cx="0" cy="0" r="16" style="fill: rgb(0, 45, 156); stroke-width: 0; stroke: transparent; paint-order: stroke;"/><line x1="0" y1="-8" x2="0" y2="8" style="stroke-width: 1.25; stroke: rgb(255, 255, 255);"/><line x1="8" y1="0" x2="-8" y2="0" style="stroke-width: 1.25; stroke: rgb(255, 255, 255);"/></g></g><line x1="292.4" y1="116" x2="292.4" y2="316" style="stroke-width: 1; stroke: rgb(0, 45, 156);"/><circle r="4" cx="292.4" cy="116" style="fill: rgb(0, 45, 156);"/><g transform="translate(292.4, 316)"><g><circle cx="0" cy="0" r="16" style="fill: rgb(0, 45, 156); stroke-width: 0; stroke: transparent; paint-order: stroke;"/><line x1="0" y1="-8" x2="0" y2="8" style="stroke-width: 1.25; stroke: rgb(255, 255, 255);"/><line x1="8" y1="0" x2="-8" y2="0" style="stroke-width: 1.25; stroke: rgb(255, 255, 255);"/></g></g><line x1="332.4" y1="36" x2="332.4" y2="316" style="stroke-width: 1; stroke: rgb(0, 45, 156);"/><circle r="4" cx="332.4" cy="36" style="fill: rgb(0, 45, 156);"/><g transform="translate(332.4, 316)"><g><circle cx="0" cy="0" r="16" style="fill: rgb(0, 45, 156); stroke-width: 0; stroke: transparent; paint-order: stroke;"/><line x1="0" y1="-8" x2="0" y2="8" style="stroke-width: 1.25; stroke: rgb(255, 255, 255);"/><line x1="8" y1="0" x2="-8" y2="0" style="stroke-width: 1.25; stroke: rgb(255, 255, 255);"/></g></g><line x1="372.4" y1="36" x2="372.4" y2="116" style="stroke-width: 1; stroke: rgb(0, 45, 156);"/><circle r="4" cx="372.4" cy="36" style="fill: rgb(0, 45, 156);"/><g transform="translate(372.4, 116)"><g><circle cx="0" cy="0" r="16" style="fill: rgb(0, 45, 156); stroke-width: 0; stroke: transparent; paint-order: stroke;"/><line x1="0" y1="-8" x2="0" y2="8" style="stroke-width: 1.25; stroke: rgb(255, 255, 255);"/><line x1="8" y1="0" x2="-8" y2="0" style="stroke-width: 1.25; stroke: rgb(255, 255, 255);"/></g></g><g transform="translate(356.4, 300)"><rect x="0" y="0" width="32" height="32" style="fill: rgb(159, 24, 83); stroke-width: 0; stroke: transparent; paint-order: stroke;"/><path fill-rule="evenodd" clip-rule="evenodd" d="M12.4344 8H25.5V9.25H13.5656L12.0656 24.25H8.92123L8.42123 17.75H7V16.5H9.57877L10.0788 23H10.9344L12.4344 8Z" fill="#ffffff"/><text x="19" y="17" dy=".3em" style="font-family: &quot;IBM Plex Sans&quot;, sans-serif; font-size: 16px; font-style: normal; fill: rgb(255, 255, 255); font-weight: 400; text-anchor: middle;">X</text></g><line x1="412.4" y1="36" x2="412.4" y2="356" style="stroke-width: 1; stroke: rgb(0, 45, 156);"/><circle r="4" cx="412.4" cy="36" style="fill: rgb(0, 45, 156);"/><g transform="translate(412.4, 356)"><g><circle cx="0" cy="0" r="16" style="fill: rgb(0, 45, 156); stroke-width: 0; stroke: transparent; paint-order: stroke;"/><line x1="0" y1="-8" x2="0" y2="8" style="stroke-width: 1.25; stroke: rgb(255, 255, 255);"/><line x1="8" y1="0" x2="-8" y2="0" style="stroke-width: 1.25; stroke: rgb(255, 255, 255);"/></g></g><line x1="452.4" y1="276" x2="452.4" y2="316" style="stroke-width: 1; stroke: rgb(0, 45, 156);"/><circle r="4" cx="452.4" cy="316" style="fill: rgb(0, 45, 156);"/><g transform="translate(452.4, 276)"><g><circle cx="0" cy="0" r="16" style="fill: rgb(0, 45, 156); stroke-width: 0; stroke: transparent; paint-order: stroke;"/><line x1="0" y1="-8" x2="0" y2="8" style="stroke-width: 1.25; stroke: rgb(255, 255, 255);"/><line x1="8" y1="0" x2="-8" y2="0" style="stroke-width: 1.25; stroke: rgb(255, 255, 255);"/></g></g><g transform="translate(452.4, 36)"><g><circle cx="0" cy="0" r="16" style="fill: rgb(0, 45, 156); stroke-width: 0; stroke: transparent; paint-order: stroke;"/><line x1="0" y1="-8" x2="0" y2="8" style="stroke-width: 1.25; stroke: rgb(255, 255, 255);"/><line x1="8" y1="0" x2="-8" y2="0" style="stroke-width: 1.25; stroke: rgb(255, 255, 255);"/></g></g><line x1="492.4" y1="76" x2="492.4" y2="276" style="stroke-width: 1; stroke: rgb(0, 45, 156);"/><circle r="4" cx="492.4" cy="76" style="fill: rgb(0, 45, 156);"/><g transform="translate(492.4, 276)"><g><circle cx="0" cy="0" r="16" style="fill: rgb(0, 45, 156); stroke-width: 0; stroke: transparent; paint-order: stroke;"/><line x1="0" y1="-8" x2="0" y2="8" style="stroke-width: 1.25; stroke: rgb(255, 255, 255);"/><line x1="8" y1="0" x2="-8" y2="0" style="stroke-width: 1.25; stroke: rgb(255, 255, 255);"/></g></g><line x1="532.4" y1="116" x2="532.4" y2="356" style="stroke-width: 1; stroke: rgb(0, 45, 156);"/><circle r="4" cx="532.4" cy="116" style="fill: rgb(0, 45, 156);"/><g transform="translate(532.4, 356)"><g><circle cx="0" cy="0" r="16" style="fill: rgb(0, 45, 156); stroke-width: 0; stroke: transparent; paint-order: stroke;"/><line x1="0" y1="-8" x2="0" y2="8" style="stroke-width: 1.25; stroke: rgb(255, 255, 255);"/><line x1="8" y1="0" x2="-8" y2="0" style="stroke-width: 1.25; stroke: rgb(255, 255, 255);"/></g></g><line x1="572.4" y1="36" x2="572.4" y2="356" style="stroke-width: 1; stroke: rgb(0, 45, 156);"/><circle r="4" cx="572.4" cy="36" style="fill: rgb(0, 45, 156);"/><g transform="translate(572.4, 356)"><g><circle cx="0" cy="0" r="16" style="fill: rgb(0, 45, 156); stroke-width: 0; stroke: transparent; paint-order: stroke;"/><line x1="0" y1="-8" x2="0" y2="8" style="stroke-width: 1.25; stroke: rgb(255, 255, 255);"/><line x1="8" y1="0" x2="-8" y2="0" style="stroke-width: 1.25; stroke: rgb(255, 255, 255);"/></g></g><line x1="612.4" y1="276" x2="612.4" y2="316" style="stroke-width: 1; stroke: rgb(0, 45, 156);"/><circle r="4" cx="612.4" cy="316" style="fill: rgb(0, 45, 156);"/><g transform="translate(612.4, 276)"><g><circle cx="0" cy="0" r="16" style="fill: rgb(0, 45, 156); stroke-width: 0; stroke: transparent; paint-order: stroke;"/><line x1="0" y1="-8" x2="0" y2="8" style="stroke-width: 1.25; stroke: rgb(255, 255, 255);"/><line x1="8" y1="0" x2="-8" y2="0" style="stroke-width: 1.25; stroke: rgb(255, 255, 255);"/></g></g><line x1="652.4" y1="76" x2="652.4" y2="316" style="stroke-width: 1; stroke: rgb(0, 45, 156);"/><circle r="4" cx="652.4" cy="76" style="fill: rgb(0, 45, 156);"/><g transform="translate(652.4, 316)"><g><circle cx="0" cy="0" r="16" style="fill: rgb(0, 45, 156); stroke-width: 0; stroke: transparent; paint-order: stroke;"/><line x1="0" y1="-8" x2="0" y2="8" style="stroke-width: 1.25; stroke: rgb(255, 255, 255);"/><line x1="8" y1="0" x2="-8" y2="0" style="stroke-width: 1.25; stroke: rgb(255, 255, 255);"/></g></g><line x1="692.4" y1="116" x2="692.4" y2="356" style="stroke-width: 1; stroke: rgb(0, 45, 156);"/><circle r="4" cx="692.4" cy="116" style="fill: rgb(0, 45, 156);"/><g transform="translate(692.4, 356)"><g><circle cx="0" cy="0" r="16" style="fill: rgb(0, 45, 156); stroke-width: 0; stroke: transparent; paint-order: stroke;"/><line x1="0" y1="-8" x2="0" y2="8" style="stroke-width: 1.25; stroke: rgb(255, 255, 255);"/><line x1="8" y1="0" x2="-8" y2="0" style="stroke-width: 1.25; stroke: rgb(255, 255, 255);"/></g></g><g transform="translate(716.4, 260)"><rect x="0" y="0" width="32" height="32" style="fill: rgb(159, 24, 83); stroke-width: 0; stroke: transparent; paint-order: stroke;"/><path fill-rule="evenodd" clip-rule="evenodd" d="M12.4344 8H25.5V9.25H13.5656L12.0656 24.25H8.92123L8.42123 17.75H7V16.5H9.57877L10.0788 23H10.9344L12.4344 8Z" fill="#ffffff"/><text x="19" y="17" dy=".3em" style="font-family: &quot;IBM Plex Sans&quot;, sans-serif; font-size: 16px; font-style: normal; fill: rgb(255, 255, 255); font-weight: 400; text-anchor: middle;">X</text></g><g transform="translate(716.4, 340)"><rect x="0" y="0" width="32" height="32" style="fill: rgb(159, 24, 83); stroke-width: 0; stroke: transparent; paint-order: stroke;"/><path fill-rule="evenodd" clip-rule="evenodd" d="M12.4344 8H25.5V9.25H13.5656L12.0656 24.25H8.92123L8.42123 17.75H7V16.5H9.57877L10.0788 23H10.9344L12.4344 8Z" fill="#ffffff"/><text x="19" y="17" dy=".3em" style="font-family: &quot;IBM Plex Sans&quot;, sans-serif; font-size: 16px; font-style: normal; fill: rgb(255, 255, 255); font-weight: 400; text-anchor: middle;">X</text></g><line x1="772.4" y1="236" x2="772.4" y2="276" style="stroke-width: 1; stroke: rgb(0, 45, 156);"/><circle r="4" cx="772.4" cy="276" style="fill: rgb(0, 45, 156);"/><g transform="translate(772.4, 236)"><g><circle cx="0" cy="0" r="16" style="fill: rgb(0, 45, 156); stroke-width: 0; stroke: transparent; paint-order: stroke;"/><line x1="0" y1="-8" x2="0" y2="8" style="stroke-width: 1.25; stroke: rgb(255, 255, 255);"/><line x1="8" y1="0" x2="-8" y2="0" style="stroke-width: 1.25; stroke: rgb(255, 255, 255);"/></g></g><line x1="812.4" y1="156" x2="812.4" y2="276" style="stroke-width: 1; stroke: rgb(0, 45, 156);"/><circle r="4" cx="812.4" cy="276" style="fill: rgb(0, 45, 156);"/><g transform="translate(812.4, 156)"><g><circle cx="0" cy="0" r="16" style="fill: rgb(0, 45, 156); stroke-width: 0; stroke: transparent; paint-order: stroke;"/><line x1="0" y1="-8" x2="0" y2="8" style="stroke-width: 1.25; stroke: rgb(255, 255, 255);"/><line x1="8" y1="0" x2="-8" y2="0" style="stroke-width: 1.25; stroke: rgb(255, 255, 255);"/></g></g><g transform="translate(836.4, 260)"><rect x="0" y="0" width="32" height="32" style="fill: rgb(159, 24, 83); stroke-width: 0; stroke: transparent; paint-order: stroke;"/><path fill-rule="evenodd" clip-rule="evenodd" d="M12.4344 8H25.5V9.25H13.5656L12.0656 24.25H8.92123L8.42123 17.75H7V16.5H9.57877L10.0788 23H10.9344L12.4344 8Z" fill="#ffffff"/><text x="19" y="17" dy=".3em" style="font-family: &quot;IBM Plex Sans&quot;, sans-serif; font-size: 16px; font-style: normal; fill: rgb(255, 255, 255); font-weight: 400; text-anchor: middle;">X</text></g><line x1="892.4" y1="276" x2="892.4" y2="356" style="stroke-width: 1; stroke: rgb(0, 45, 156);"/><circle r="4" cx="892.4" cy="356" style="fill: rgb(0, 45, 156);"/><g transform="translate(892.4, 276)"><g><circle cx="0" cy="0" r="16" style="fill: rgb(0, 45, 156); stroke-width: 0; stroke: transparent; paint-order: stroke;"/><line x1="0" y1="-8" x2="0" y2="8" style="stroke-width: 1.25; stroke: rgb(255, 255, 255);"/><line x1="8" y1="0" x2="-8" y2="0" style="stroke-width: 1.25; stroke: rgb(255, 255, 255);"/></g></g><line x1="932.4" y1="76" x2="932.4" y2="276" style="stroke-width: 1; stroke: rgb(0, 45, 156);"/><circle r="4" cx="932.4" cy="76" style="fill: rgb(0, 45, 156);"/><g transform="translate(932.4, 276)"><g><circle cx="0" cy="0" r="16" style="fill: rgb(0, 45, 156); stroke-width: 0; stroke: transparent; paint-order: stroke;"/><line x1="0" y1="-8" x2="0" y2="8" style="stroke-width: 1.25; stroke: rgb(255, 255, 255);"/><line x1="8" y1="0" x2="-8" y2="0" style="stroke-width: 1.25; stroke: rgb(255, 255, 255);"/></g></g><g transform="translate(972.4, 76)"><g><circle cx="0" cy="0" r="16" style="fill: rgb(0, 45, 156); stroke-width: 0; stroke: transparent; paint-order: stroke;"/><line x1="0" y1="-8" x2="0" y2="8" style="stroke-width: 1.25; stroke: rgb(255, 255, 255);"/><line x1="8" y1="0" x2="-8" y2="0" style="stroke-width: 1.25; stroke: rgb(255, 255, 255);"/></g></g><line x1="972.4" y1="276" x2="972.4" y2="356" style="stroke-width: 1; stroke: rgb(0, 45, 156);"/><circle r="4" cx="972.4" cy="356" style="fill: rgb(0, 45, 156);"/><g transform="translate(972.4, 276)"><g><circle cx="0" cy="0" r="16" style="fill: rgb(0, 45, 156); stroke-width: 0; stroke: transparent; paint-order: stroke;"/><line x1="0" y1="-8" x2="0" y2="8" style="stroke-width: 1.25; stroke: rgb(255, 255, 255);"/><line x1="8" y1="0" x2="-8" y2="0" style="stroke-width: 1.25; stroke: rgb(255, 255, 255);"/></g></g><line x1="1012.4" y1="76" x2="1012.4" y2="356" style="stroke-width: 1; stroke: rgb(0, 45, 156);"/><circle r="4" cx="1012.4" cy="76" style="fill: rgb(0, 45, 156);"/><g transform="translate(1012.4, 356)"><g><circle cx="0" cy="0" r="16" style="fill: rgb(0, 45, 156); stroke-width: 0; stroke: transparent; paint-order: stroke;"/><line x1="0" y1="-8" x2="0" y2="8" style="stroke-width: 1.25; stroke: rgb(255, 255, 255);"/><line x1="8" y1="0" x2="-8" y2="0" style="stroke-width: 1.25; stroke: rgb(255, 255, 255);"/></g></g><line x1="1052.4" y1="76" x2="1052.4" y2="236" style="stroke-width: 1; stroke: rgb(0, 45, 156);"/><circle r="4" cx="1052.4" cy="76" style="fill: rgb(0, 45, 156);"/><g transform="translate(1052.4, 236)"><g><circle cx="0" cy="0" r="16" style="fill: rgb(0, 45, 156); stroke-width: 0; stroke: transparent; paint-order: stroke;"/><line x1="0" y1="-8" x2="0" y2="8" style="stroke-width: 1.25; stroke: rgb(255, 255, 255);"/><line x1="8" y1="0" x2="-8" y2="0" style="stroke-width: 1.25; stroke: rgb(255, 255, 255);"/></g></g><line x1="1052.4" y1="316" x2="1052.4" y2="356" style="stroke-width: 1; stroke: rgb(0, 45, 156);"/><circle r="4" cx="1052.4" cy="356" style="fill: rgb(0, 45, 156);"/><g transform="translate(1052.4, 316)"><g><circle cx="0" cy="0" r="16" style="fill: rgb(0, 45, 156); stroke-width: 0; stroke: transparent; paint-order: stroke;"/><line x1="0" y1="-8" x2="0" y2="8" style="stroke-width: 1.25; stroke: rgb(255, 255, 255);"/><line x1="8" y1="0" x2="-8" y2="0" style="stroke-width: 1.25; stroke: rgb(255, 255, 255);"/></g></g><line x1="1092.4" y1="76" x2="1092.4" y2="276" style="stroke-width: 1; stroke: rgb(0, 45, 156);"/><circle r="4" cx="1092.4" cy="76" style="fill: rgb(0, 45, 156);"/><g transform="translate(1092.4, 276)"><g><circle cx="0" cy="0" r="16" style="fill: rgb(0, 45, 156); stroke-width: 0; stroke: transparent; paint-order: stroke;"/><line x1="0" y1="-8" x2="0" y2="8" style="stroke-width: 1.25; stroke: rgb(255, 255, 255);"/><line x1="8" y1="0" x2="-8" y2="0" style="stroke-width: 1.25; stroke: rgb(255, 255, 255);"/></g></g><line x1="1132.4" y1="156" x2="1132.4" y2="316" style="stroke-width: 1; stroke: rgb(0, 45, 156);"/><circle r="4" cx="1132.4" cy="316" style="fill: rgb(0, 45, 156);"/><g transform="translate(1132.4, 156)"><g><circle cx="0" cy="0" r="16" style="fill: rgb(0, 45, 156); stroke-width: 0; stroke: transparent; paint-order: stroke;"/><line x1="0" y1="-8" x2="0" y2="8" style="stroke-width: 1.25; stroke: rgb(255, 255, 255);"/><line x1="8" y1="0" x2="-8" y2="0" style="stroke-width: 1.25; stroke: rgb(255, 255, 255);"/></g></g><g transform="translate(1132.4, 76)"><g><circle cx="0" cy="0" r="16" style="fill: rgb(0, 45, 156); stroke-width: 0; stroke: transparent; paint-order: stroke;"/><line x1="0" y1="-8" x2="0" y2="8" style="stroke-width: 1.25; stroke: rgb(255, 255, 255);"/><line x1="8" y1="0" x2="-8" y2="0" style="stroke-width: 1.25; stroke: rgb(255, 255, 255);"/></g></g><line x1="1172.4" y1="236" x2="1172.4" y2="356" style="stroke-width: 1; stroke: rgb(0, 45, 156);"/><circle r="4" cx="1172.4" cy="236" style="fill: rgb(0, 45, 156);"/><g transform="translate(1172.4, 356)"><g><circle cx="0" cy="0" r="16" style="fill: rgb(0, 45, 156); stroke-width: 0; stroke: transparent; paint-order: stroke;"/><line x1="0" y1="-8" x2="0" y2="8" style="stroke-width: 1.25; stroke: rgb(255, 255, 255);"/><line x1="8" y1="0" x2="-8" y2="0" style="stroke-width: 1.25; stroke: rgb(255, 255, 255);"/></g></g><g transform="translate(1156.4, 140)"><rect x="0" y="0" width="32" height="32" style="fill: rgb(159, 24, 83); stroke-width: 0; stroke: transparent; paint-order: stroke;"/><path fill-rule="evenodd" clip-rule="evenodd" d="M12.4344 8H25.5V9.25H13.5656L12.0656 24.25H8.92123L8.42123 17.75H7V16.5H9.57877L10.0788 23H10.9344L12.4344 8Z" fill="#ffffff"/><text x="19" y="17" dy=".3em" style="font-family: &quot;IBM Plex Sans&quot;, sans-serif; font-size: 16px; font-style: normal; fill: rgb(255, 255, 255); font-weight: 400; text-anchor: middle;">X</text></g><g transform="translate(1196.4, 220)"><rect x="0" y="0" width="32" height="32" style="fill: rgb(159, 24, 83); stroke-width: 0; stroke: transparent; paint-order: stroke;"/><path fill-rule="evenodd" clip-rule="evenodd" d="M12.4344 8H25.5V9.25H13.5656L12.0656 24.25H8.92123L8.42123 17.75H7V16.5H9.57877L10.0788 23H10.9344L12.4344 8Z" fill="#ffffff"/><text x="19" y="17" dy=".3em" style="font-family: &quot;IBM Plex Sans&quot;, sans-serif; font-size: 16px; font-style: normal; fill: rgb(255, 255, 255); font-weight: 400; text-anchor: middle;">X</text></g><g transform="translate(1196.4, 260)"><rect x="0" y="0" width="32" height="32" style="fill: rgb(159, 24, 83); stroke-width: 0; stroke: transparent; paint-order: stroke;"/><path fill-rule="evenodd" clip-rule="evenodd" d="M12.4344 8H25.5V9.25H13.5656L12.0656 24.25H8.92123L8.42123 17.75H7V16.5H9.57877L10.0788 23H10.9344L12.4344 8Z" fill="#ffffff"/><text x="19" y="17" dy=".3em" style="font-family: &quot;IBM Plex Sans&quot;, sans-serif; font-size: 16px; font-style: normal; fill: rgb(255, 255, 255); font-weight: 400; text-anchor: middle;">X</text></g><g transform="translate(1196.4, 340)"><rect x="0" y="0" width="32" height="32" style="fill: rgb(159, 24, 83); stroke-width: 0; stroke: transparent; paint-order: stroke;"/><path fill-rule="evenodd" clip-rule="evenodd" d="M12.4344 8H25.5V9.25H13.5656L12.0656 24.25H8.92123L8.42123 17.75H7V16.5H9.57877L10.0788 23H10.9344L12.4344 8Z" fill="#ffffff"/><text x="19" y="17" dy=".3em" style="font-family: &quot;IBM Plex Sans&quot;, sans-serif; font-size: 16px; font-style: normal; fill: rgb(255, 255, 255); font-weight: 400; text-anchor: middle;">X</text></g><line x1="1212.4" y1="76" x2="1212.4" y2="156" style="stroke-width: 1; stroke: rgb(0, 45, 156);"/><circle r="4" cx="1212.4" cy="76" style="fill: rgb(0, 45, 156);"/><g transform="translate(1212.4, 156)"><g><circle cx="0" cy="0" r="16" style="fill: rgb(0, 45, 156); stroke-width: 0; stroke: transparent; paint-order: stroke;"/><line x1="0" y1="-8" x2="0" y2="8" style="stroke-width: 1.25; stroke: rgb(255, 255, 255);"/><line x1="8" y1="0" x2="-8" y2="0" style="stroke-width: 1.25; stroke: rgb(255, 255, 255);"/></g></g><line x1="1252.4" y1="36" x2="1252.4" y2="356" style="stroke-width: 1; stroke: rgb(0, 45, 156);"/><circle r="4" cx="1252.4" cy="36" style="fill: rgb(0, 45, 156);"/><g transform="translate(1252.4, 356)"><g><circle cx="0" cy="0" r="16" style="fill: rgb(0, 45, 156); stroke-width: 0; stroke: transparent; paint-order: stroke;"/><line x1="0" y1="-8" x2="0" y2="8" style="stroke-width: 1.25; stroke: rgb(255, 255, 255);"/><line x1="8" y1="0" x2="-8" y2="0" style="stroke-width: 1.25; stroke: rgb(255, 255, 255);"/></g></g><line x1="1292.4" y1="196" x2="1292.4" y2="276" style="stroke-width: 1; stroke: rgb(0, 45, 156);"/><circle r="4" cx="1292.4" cy="276" style="fill: rgb(0, 45, 156);"/><g transform="translate(1292.4, 196)"><g><circle cx="0" cy="0" r="16" style="fill: rgb(0, 45, 156); stroke-width: 0; stroke: transparent; paint-order: stroke;"/><line x1="0" y1="-8" x2="0" y2="8" style="stroke-width: 1.25; stroke: rgb(255, 255, 255);"/><line x1="8" y1="0" x2="-8" y2="0" style="stroke-width: 1.25; stroke: rgb(255, 255, 255);"/></g></g><line x1="1332.4" y1="116" x2="1332.4" y2="356" style="stroke-width: 1; stroke: rgb(0, 45, 156);"/><circle r="4" cx="1332.4" cy="116" style="fill: rgb(0, 45, 156);"/><g transform="translate(1332.4, 356)"><g><circle cx="0" cy="0" r="16" style="fill: rgb(0, 45, 156); stroke-width: 0; stroke: transparent; paint-order: stroke;"/><line x1="0" y1="-8" x2="0" y2="8" style="stroke-width: 1.25; stroke: rgb(255, 255, 255);"/><line x1="8" y1="0" x2="-8" y2="0" style="stroke-width: 1.25; stroke: rgb(255, 255, 255);"/></g></g><line x1="1372.4" y1="156" x2="1372.4" y2="316" style="stroke-width: 1; stroke: rgb(0, 45, 156);"/><circle r="4" cx="1372.4" cy="316" style="fill: rgb(0, 45, 156);"/><g transform="translate(1372.4, 156)"><g><circle cx="0" cy="0" r="16" style="fill: rgb(0, 45, 156); stroke-width: 0; stroke: transparent; paint-order: stroke;"/><line x1="0" y1="-8" x2="0" y2="8" style="stroke-width: 1.25; stroke: rgb(255, 255, 255);"/><line x1="8" y1="0" x2="-8" y2="0" style="stroke-width: 1.25; stroke: rgb(255, 255, 255);"/></g></g><line x1="1412.4" y1="36" x2="1412.4" y2="356" style="stroke-width: 1; stroke: rgb(0, 45, 156);"/><circle r="4" cx="1412.4" cy="36" style="fill: rgb(0, 45, 156);"/><g transform="translate(1412.4, 356)"><g><circle cx="0" cy="0" r="16" style="fill: rgb(0, 45, 156); stroke-width: 0; stroke: transparent; paint-order: stroke;"/><line x1="0" y1="-8" x2="0" y2="8" style="stroke-width: 1.25; stroke: rgb(255, 255, 255);"/><line x1="8" y1="0" x2="-8" y2="0" style="stroke-width: 1.25; stroke: rgb(255, 255, 255);"/></g></g><line x1="1452.4" y1="76" x2="1452.4" y2="156" style="stroke-width: 1; stroke: rgb(0, 45, 156);"/><circle r="4" cx="1452.4" cy="76" style="fill: rgb(0, 45, 156);"/><g transform="translate(1452.4, 156)"><g><circle cx="0" cy="0" r="16" style="fill: rgb(0, 45, 156); stroke-width: 0; stroke: transparent; paint-order: stroke;"/><line x1="0" y1="-8" x2="0" y2="8" style="stroke-width: 1.25; stroke: rgb(255, 255, 255);"/><line x1="8" y1="0" x2="-8" y2="0" style="stroke-width: 1.25; stroke: rgb(255, 255, 255);"/></g></g><line x1="1452.4" y1="236" x2="1452.4" y2="316" style="stroke-width: 1; stroke: rgb(0, 45, 156);"/><circle r="4" cx="1452.4" cy="316" style="fill: rgb(0, 45, 156);"/><g transform="translate(1452.4, 236)"><g><circle cx="0" cy="0" r="16" style="fill: rgb(0, 45, 156); stroke-width: 0; stroke: transparent; paint-order: stroke;"/><line x1="0" y1="-8" x2="0" y2="8" style="stroke-width: 1.25; stroke: rgb(255, 255, 255);"/><line x1="8" y1="0" x2="-8" y2="0" style="stroke-width: 1.25; stroke: rgb(255, 255, 255);"/></g></g><line x1="1492.4" y1="76" x2="1492.4" y2="236" style="stroke-width: 1; stroke: rgb(0, 45, 156);"/><circle r="4" cx="1492.4" cy="76" style="fill: rgb(0, 45, 156);"/><g transform="translate(1492.4, 236)"><g><circle cx="0" cy="0" r="16" style="fill: rgb(0, 45, 156); stroke-width: 0; stroke: transparent; paint-order: stroke;"/><line x1="0" y1="-8" x2="0" y2="8" style="stroke-width: 1.25; stroke: rgb(255, 255, 255);"/><line x1="8" y1="0" x2="-8" y2="0" style="stroke-width: 1.25; stroke: rgb(255, 255, 255);"/></g></g><line x1="1532.4" y1="116" x2="1532.4" y2="356" style="stroke-width: 1; stroke: rgb(0, 45, 156);"/><circle r="4" cx="1532.4" cy="116" style="fill: rgb(0, 45, 156);"/><g transform="translate(1532.4, 356)"><g><circle cx="0" cy="0" r="16" style="fill: rgb(0, 45, 156); stroke-width: 0; stroke: transparent; paint-order: stroke;"/><line x1="0" y1="-8" x2="0" y2="8" style="stroke-width: 1.25; stroke: rgb(255, 255, 255);"/><line x1="8" y1="0" x2="-8" y2="0" style="stroke-width: 1.25; stroke: rgb(255, 255, 255);"/></g></g><line x1="1572.4" y1="236" x2="1572.4" y2="316" style="stroke-width: 1; stroke: rgb(0, 45, 156);"/><circle r="4" cx="1572.4" cy="316" style="fill: rgb(0, 45, 156);"/><g transform="translate(1572.4, 236)"><g><circle cx="0" cy="0" r="16" style="fill: rgb(0, 45, 156); stroke-width: 0; stroke: transparent; paint-order: stroke;"/><line x1="0" y1="-8" x2="0" y2="8" style="stroke-width: 1.25; stroke: rgb(255, 255, 255);"/><line x1="8" y1="0" x2="-8" y2="0" style="stroke-width: 1.25; stroke: rgb(255, 255, 255);"/></g></g><g transform="translate(1556.4, 340)"><rect x="0" y="0" width="32" height="32" style="fill: rgb(159, 24, 83); stroke-width: 0; stroke: transparent; paint-order: stroke;"/><path fill-rule="evenodd" clip-rule="evenodd" d="M12.4344 8H25.5V9.25H13.5656L12.0656 24.25H8.92123L8.42123 17.75H7V16.5H9.57877L10.0788 23H10.9344L12.4344 8Z" fill="#ffffff"/><text x="19" y="17" dy=".3em" style="font-family: &quot;IBM Plex Sans&quot;, sans-serif; font-size: 16px; font-style: normal; fill: rgb(255, 255, 255); font-weight: 400; text-anchor: middle;">X</text></g><g transform="translate(1596.4, 220)"><rect x="0" y="0" width="32" height="32" style="fill: rgb(159, 24, 83); stroke-width: 0; stroke: transparent; paint-order: stroke;"/><path fill-rule="evenodd" clip-rule="evenodd" d="M12.4344 8H25.5V9.25H13.5656L12.0656 24.25H8.92123L8.42123 17.75H7V16.5H9.57877L10.0788 23H10.9344L12.4344 8Z" fill="#ffffff"/><text x="19" y="17" dy=".3em" style="font-family: &quot;IBM Plex Sans&quot;, sans-serif; font-size: 16px; font-style: normal; fill: rgb(255, 255, 255); font-weight: 400; text-anchor: middle;">X</text></g><line x1="1652.4" y1="236" x2="1652.4" y2="356" style="stroke-width: 1; stroke: rgb(0, 45, 156);"/><circle r="4" cx="1652.4" cy="236" style="fill: rgb(0, 45, 156);"/><g transform="translate(1652.4, 356)"><g><circle cx="0" cy="0" r="16" style="fill: rgb(0, 45, 156); stroke-width: 0; stroke: transparent; paint-order: stroke;"/><line x1="0" y1="-8" x2="0" y2="8" style="stroke-width: 1.25; stroke: rgb(255, 255, 255);"/><line x1="8" y1="0" x2="-8" y2="0" style="stroke-width: 1.25; stroke: rgb(255, 255, 255);"/></g></g></g></svg>